<mxfile host="Electron" agent="Mozilla/5.0 (X11; Linux x86_64) AppleWebKit/537.36 (KHTML, like Gecko) draw.io/26.1.1 Chrome/132.0.6834.210 Electron/34.3.3 Safari/537.36" version="26.1.1">
  <diagram id="Q8UWIDvTnTWvmisHTtFj" name="Page-1">
    <mxGraphModel dx="2261" dy="782" grid="1" gridSize="10" guides="1" tooltips="1" connect="1" arrows="1" fold="1" page="1" pageScale="1" pageWidth="827" pageHeight="1169" math="0" shadow="0">
      <root>
        <mxCell id="0" />
        <mxCell id="1" parent="0" />
        <mxCell id="PhVBeyCCx-G29xjLYICd-1" value="" style="rounded=0;whiteSpace=wrap;html=1;imageWidth=24;aspect=fixed;strokeColor=none;" vertex="1" parent="1">
          <mxGeometry x="-6.889999999999986" y="148.75" width="1017.78" height="572.5" as="geometry" />
        </mxCell>
        <mxCell id="rMWVGPfARK4X7Arb33Px-16" value="&lt;font style=&quot;font-size: 13px;&quot;&gt;Host&amp;nbsp;&lt;/font&gt;&lt;div&gt;&lt;font style=&quot;font-size: 13px;&quot;&gt;C/C++ code&lt;/font&gt;&lt;/div&gt;" style="shape=note;whiteSpace=wrap;html=1;backgroundOutline=1;darkOpacity=0.05;size=7;fillColor=#fff2cc;strokeColor=#d6b656;fontSize=14;" parent="1" vertex="1">
          <mxGeometry x="135" y="640" width="70" height="70" as="geometry" />
        </mxCell>
        <mxCell id="d4Aca1u6HOUoMToGAWtU-49" value="" style="rounded=0;whiteSpace=wrap;html=1;fillColor=#f5f5f5;strokeColor=none;fontColor=#333333;" parent="1" vertex="1">
          <mxGeometry x="396.56" y="155" width="183.44" height="190" as="geometry" />
        </mxCell>
        <mxCell id="d4Aca1u6HOUoMToGAWtU-4" value="&lt;span style=&quot;font-size: 13px;&quot;&gt;Accelerator C/C++ code&lt;br&gt;&lt;/span&gt;" style="shape=note;whiteSpace=wrap;html=1;backgroundOutline=1;darkOpacity=0.05;size=7;fillColor=#fff2cc;strokeColor=#d6b656;fontSize=14;" parent="1" vertex="1">
          <mxGeometry x="285" y="640" width="70" height="70" as="geometry" />
        </mxCell>
        <mxCell id="wPGymhWY9zPTNBUGQzJ1-2" value="" style="shape=cube;whiteSpace=wrap;html=1;boundedLbl=1;backgroundOutline=1;darkOpacity=0.05;darkOpacity2=0.1;size=5;fillColor=#d5e8d4;strokeColor=#82b366;fontSize=14;" parent="1" vertex="1">
          <mxGeometry y="250" width="380" height="370" as="geometry" />
        </mxCell>
        <mxCell id="wPGymhWY9zPTNBUGQzJ1-1" value="C/C++ Application Code" style="shape=note;whiteSpace=wrap;html=1;backgroundOutline=1;darkOpacity=0.05;size=7;fillColor=#fff2cc;strokeColor=#d6b656;fontSize=14;" parent="1" vertex="1">
          <mxGeometry x="152.5" y="160" width="75" height="67.5" as="geometry" />
        </mxCell>
        <mxCell id="uZdSeVqPh_KYlumVynNW-2" style="edgeStyle=orthogonalEdgeStyle;rounded=0;orthogonalLoop=1;jettySize=auto;html=1;exitX=0;exitY=0;exitDx=240;exitDy=25;exitPerimeter=0;entryX=0;entryY=0.5;entryDx=0;entryDy=0;entryPerimeter=0;" parent="1" source="wPGymhWY9zPTNBUGQzJ1-4" target="rMWVGPfARK4X7Arb33Px-2" edge="1">
          <mxGeometry relative="1" as="geometry">
            <mxPoint x="400" y="485" as="targetPoint" />
          </mxGeometry>
        </mxCell>
        <mxCell id="wPGymhWY9zPTNBUGQzJ1-4" value="&lt;font style=&quot;font-size: 13px;&quot;&gt;Extended Task Graph (ETG) Generator&lt;/font&gt;" style="shape=cube;whiteSpace=wrap;html=1;boundedLbl=1;backgroundOutline=1;darkOpacity=0.05;darkOpacity2=0.1;size=10;fillColor=#dae8fc;strokeColor=#6c8ebf;fontSize=13;" parent="1" vertex="1">
          <mxGeometry x="124.06" y="460" width="240" height="40" as="geometry" />
        </mxCell>
        <mxCell id="wPGymhWY9zPTNBUGQzJ1-6" value="Clang Frontend (AST generation)" style="shape=cube;whiteSpace=wrap;html=1;boundedLbl=1;backgroundOutline=1;darkOpacity=0.05;darkOpacity2=0.1;size=0;fillColor=#f8cecc;strokeColor=#b85450;fontSize=14;" parent="1" vertex="1">
          <mxGeometry x="20" y="260" width="345" height="30" as="geometry" />
        </mxCell>
        <mxCell id="Z7GEWmz_fn6iVJh9K8Ma-1" value="&lt;p style=&quot;line-height: 100%;&quot;&gt;&lt;br&gt;&lt;/p&gt;" style="shape=cube;whiteSpace=wrap;html=1;boundedLbl=1;backgroundOutline=1;darkOpacity=0.05;darkOpacity2=0.1;size=10;fillColor=#dae8fc;strokeColor=#6c8ebf;fontSize=13;align=left;" parent="1" vertex="1">
          <mxGeometry x="125" y="310" width="240" height="140" as="geometry" />
        </mxCell>
        <mxCell id="rMWVGPfARK4X7Arb33Px-1" value="&lt;font style=&quot;font-size: 13px;&quot;&gt;Properties JSON&lt;/font&gt;" style="shape=note;whiteSpace=wrap;html=1;backgroundOutline=1;darkOpacity=0.05;size=7;fillColor=#e1d5e7;strokeColor=#9673a6;fontSize=14;" parent="1" vertex="1">
          <mxGeometry x="403.11" y="470" width="79.06" height="30" as="geometry" />
        </mxCell>
        <mxCell id="rMWVGPfARK4X7Arb33Px-2" value="&lt;font style=&quot;font-size: 13px;&quot;&gt;Graph Dotfile&lt;/font&gt;" style="shape=note;whiteSpace=wrap;html=1;backgroundOutline=1;darkOpacity=0.05;size=7;fillColor=#e1d5e7;strokeColor=#9673a6;fontSize=14;" parent="1" vertex="1">
          <mxGeometry x="403.11" y="430" width="79.06" height="30" as="geometry" />
        </mxCell>
        <mxCell id="rMWVGPfARK4X7Arb33Px-29" value="Target Properties" style="text;html=1;strokeColor=default;fillColor=none;align=center;verticalAlign=middle;whiteSpace=wrap;rounded=0;dashed=1;" parent="1" vertex="1">
          <mxGeometry x="400" y="574" width="80" height="30" as="geometry" />
        </mxCell>
        <mxCell id="d4Aca1u6HOUoMToGAWtU-2" value="Clava API (AST manipulation)" style="shape=cube;whiteSpace=wrap;html=1;boundedLbl=1;backgroundOutline=1;darkOpacity=0.05;darkOpacity2=0.1;size=0;fillColor=#d5e8d4;strokeColor=#82b366;fontSize=14;" parent="1" vertex="1">
          <mxGeometry x="20" y="310" width="90" height="300" as="geometry" />
        </mxCell>
        <mxCell id="d4Aca1u6HOUoMToGAWtU-9" style="edgeStyle=orthogonalEdgeStyle;rounded=0;orthogonalLoop=1;jettySize=auto;html=1;entryX=0.5;entryY=1;entryDx=0;entryDy=0;entryPerimeter=0;exitX=0.5;exitY=1;exitDx=0;exitDy=0;exitPerimeter=0;" parent="1" source="wPGymhWY9zPTNBUGQzJ1-1" edge="1">
          <mxGeometry relative="1" as="geometry">
            <mxPoint x="190" y="250" as="targetPoint" />
          </mxGeometry>
        </mxCell>
        <mxCell id="d4Aca1u6HOUoMToGAWtU-10" value="&lt;font style=&quot;font-size: 13px;&quot;&gt;Directive Design Space Exploration&lt;/font&gt;" style="shape=cube;whiteSpace=wrap;html=1;boundedLbl=1;backgroundOutline=1;darkOpacity=0.05;darkOpacity2=0.1;size=10;fillColor=#dae8fc;strokeColor=#6c8ebf;fontSize=11;" parent="1" vertex="1">
          <mxGeometry x="124.06" y="510" width="240" height="40" as="geometry" />
        </mxCell>
        <mxCell id="d4Aca1u6HOUoMToGAWtU-11" value="&lt;font style=&quot;font-size: 13px;&quot;&gt;Holistic Optimization and Partitioning Algorithm (Hoopa)&lt;/font&gt;" style="shape=cube;whiteSpace=wrap;html=1;boundedLbl=1;backgroundOutline=1;darkOpacity=0.05;darkOpacity2=0.1;size=10;fillColor=#dae8fc;strokeColor=#6c8ebf;fontSize=11;" parent="1" vertex="1">
          <mxGeometry x="124.06" y="560" width="240" height="50" as="geometry" />
        </mxCell>
        <mxCell id="d4Aca1u6HOUoMToGAWtU-13" style="edgeStyle=orthogonalEdgeStyle;rounded=0;orthogonalLoop=1;jettySize=auto;html=1;exitX=0;exitY=0;exitDx=125.00000000000001;exitDy=110;exitPerimeter=0;entryX=0.542;entryY=0.034;entryDx=0;entryDy=0;entryPerimeter=0;" parent="1" edge="1">
          <mxGeometry relative="1" as="geometry">
            <mxPoint x="254.06" y="450" as="sourcePoint" />
            <mxPoint x="254.13999999999987" y="461.36" as="targetPoint" />
          </mxGeometry>
        </mxCell>
        <mxCell id="d4Aca1u6HOUoMToGAWtU-14" style="edgeStyle=orthogonalEdgeStyle;rounded=0;orthogonalLoop=1;jettySize=auto;html=1;exitX=0;exitY=0;exitDx=125.00000000000001;exitDy=110;exitPerimeter=0;entryX=0.542;entryY=0.034;entryDx=0;entryDy=0;entryPerimeter=0;" parent="1" edge="1">
          <mxGeometry relative="1" as="geometry">
            <mxPoint x="254.06" y="500" as="sourcePoint" />
            <mxPoint x="254.06" y="511" as="targetPoint" />
          </mxGeometry>
        </mxCell>
        <mxCell id="d4Aca1u6HOUoMToGAWtU-16" style="edgeStyle=orthogonalEdgeStyle;rounded=0;orthogonalLoop=1;jettySize=auto;html=1;exitX=0;exitY=0;exitDx=125.00000000000001;exitDy=110;exitPerimeter=0;entryX=0.542;entryY=0.034;entryDx=0;entryDy=0;entryPerimeter=0;" parent="1" edge="1">
          <mxGeometry relative="1" as="geometry">
            <mxPoint x="254.06" y="550" as="sourcePoint" />
            <mxPoint x="254.06" y="561" as="targetPoint" />
          </mxGeometry>
        </mxCell>
        <mxCell id="d4Aca1u6HOUoMToGAWtU-20" style="edgeStyle=orthogonalEdgeStyle;rounded=0;orthogonalLoop=1;jettySize=auto;html=1;exitX=0;exitY=0;exitDx=175;exitDy=30;exitPerimeter=0;" parent="1" edge="1">
          <mxGeometry relative="1" as="geometry">
            <Array as="points">
              <mxPoint x="196.06" y="300" />
              <mxPoint x="261.06" y="300" />
            </Array>
            <mxPoint x="261.06" y="310" as="targetPoint" />
            <mxPoint x="196.06" y="290" as="sourcePoint" />
          </mxGeometry>
        </mxCell>
        <mxCell id="d4Aca1u6HOUoMToGAWtU-22" style="edgeStyle=orthogonalEdgeStyle;rounded=0;orthogonalLoop=1;jettySize=auto;html=1;exitX=0;exitY=0;exitDx=240;exitDy=25;exitPerimeter=0;entryX=0;entryY=0.5;entryDx=0;entryDy=0;entryPerimeter=0;" parent="1" source="wPGymhWY9zPTNBUGQzJ1-4" target="rMWVGPfARK4X7Arb33Px-1" edge="1">
          <mxGeometry relative="1" as="geometry" />
        </mxCell>
        <mxCell id="d4Aca1u6HOUoMToGAWtU-23" style="edgeStyle=orthogonalEdgeStyle;rounded=0;orthogonalLoop=1;jettySize=auto;html=1;exitX=0;exitY=0.5;exitDx=0;exitDy=0;entryX=0;entryY=0;entryDx=240;entryDy=25;entryPerimeter=0;" parent="1" edge="1">
          <mxGeometry relative="1" as="geometry">
            <mxPoint x="400" y="588" as="sourcePoint" />
            <mxPoint x="364.05999999999995" y="588" as="targetPoint" />
          </mxGeometry>
        </mxCell>
        <mxCell id="d4Aca1u6HOUoMToGAWtU-24" value="&lt;font style=&quot;font-size: 12px;&quot;&gt;Ensuring functions return void&lt;/font&gt;" style="rounded=0;whiteSpace=wrap;html=1;fillColor=#ffe6cc;strokeColor=#d79b00;fontSize=11;" parent="1" vertex="1">
          <mxGeometry x="191.06" y="405" width="170" height="20" as="geometry" />
        </mxCell>
        <mxCell id="d4Aca1u6HOUoMToGAWtU-26" value="&lt;font style=&quot;font-size: 12px;&quot;&gt;Constant Folding+Propagation&lt;/font&gt;" style="rounded=0;whiteSpace=wrap;html=1;fillColor=#ffe6cc;strokeColor=#d79b00;fontSize=11;" parent="1" vertex="1">
          <mxGeometry x="191.06" y="385" width="170" height="20" as="geometry" />
        </mxCell>
        <mxCell id="d4Aca1u6HOUoMToGAWtU-27" value="&lt;font style=&quot;font-size: 12px;&quot;&gt;Array and struct flattening&lt;/font&gt;" style="rounded=0;whiteSpace=wrap;html=1;fillColor=#ffe6cc;strokeColor=#d79b00;fontSize=11;" parent="1" vertex="1">
          <mxGeometry x="191.06" y="365" width="170" height="20" as="geometry" />
        </mxCell>
        <mxCell id="d4Aca1u6HOUoMToGAWtU-28" value="&lt;font style=&quot;font-size: 12px;&quot;&gt;Loop Canonization&lt;/font&gt;" style="rounded=0;whiteSpace=wrap;html=1;fillColor=#ffe6cc;strokeColor=#d79b00;fontSize=11;" parent="1" vertex="1">
          <mxGeometry x="191.06" y="345" width="170" height="20" as="geometry" />
        </mxCell>
        <mxCell id="d4Aca1u6HOUoMToGAWtU-29" value="&lt;font style=&quot;font-size: 13px;&quot;&gt;Preprocessing &lt;br style=&quot;font-size: 13px;&quot;&gt;Transformations&lt;/font&gt;" style="text;html=1;align=center;verticalAlign=middle;resizable=0;points=[];autosize=1;strokeColor=none;fillColor=none;rotation=-90;fontSize=13;" parent="1" vertex="1">
          <mxGeometry x="105" y="365" width="120" height="40" as="geometry" />
        </mxCell>
        <mxCell id="d4Aca1u6HOUoMToGAWtU-30" style="edgeStyle=orthogonalEdgeStyle;rounded=0;orthogonalLoop=1;jettySize=auto;html=1;entryX=0.995;entryY=0.192;entryDx=0;entryDy=0;entryPerimeter=0;" parent="1" edge="1">
          <mxGeometry relative="1" as="geometry">
            <mxPoint x="130" y="365" as="sourcePoint" />
            <mxPoint x="109.52499999999998" y="365.00000000000006" as="targetPoint" />
            <Array as="points">
              <mxPoint x="130" y="365.48" />
            </Array>
          </mxGeometry>
        </mxCell>
        <mxCell id="d4Aca1u6HOUoMToGAWtU-36" style="edgeStyle=orthogonalEdgeStyle;rounded=0;orthogonalLoop=1;jettySize=auto;html=1;exitX=0;exitY=0;exitDx=0;exitDy=15;exitPerimeter=0;" parent="1" source="wPGymhWY9zPTNBUGQzJ1-4" edge="1">
          <mxGeometry relative="1" as="geometry">
            <mxPoint x="110" y="475" as="targetPoint" />
          </mxGeometry>
        </mxCell>
        <mxCell id="d4Aca1u6HOUoMToGAWtU-37" style="edgeStyle=orthogonalEdgeStyle;rounded=0;orthogonalLoop=1;jettySize=auto;html=1;exitX=0;exitY=0;exitDx=0;exitDy=15;exitPerimeter=0;" parent="1" edge="1">
          <mxGeometry relative="1" as="geometry">
            <mxPoint x="110" y="528" as="targetPoint" />
            <mxPoint x="124.05999999999995" y="528" as="sourcePoint" />
          </mxGeometry>
        </mxCell>
        <mxCell id="d4Aca1u6HOUoMToGAWtU-40" value="" style="rounded=0;whiteSpace=wrap;html=1;fillColor=#dae8fc;strokeColor=#6c8ebf;align=left;fontSize=13;" parent="1" vertex="1">
          <mxGeometry x="400" y="200" width="20" height="20" as="geometry" />
        </mxCell>
        <mxCell id="d4Aca1u6HOUoMToGAWtU-41" value="Clava extensions (NPM packages)" style="text;html=1;strokeColor=none;fillColor=none;align=left;verticalAlign=middle;whiteSpace=wrap;rounded=0;fontSize=13;" parent="1" vertex="1">
          <mxGeometry x="429" y="197.5" width="116" height="25" as="geometry" />
        </mxCell>
        <mxCell id="d4Aca1u6HOUoMToGAWtU-42" value="" style="rounded=0;whiteSpace=wrap;html=1;fillColor=#fff2cc;strokeColor=#d6b656;align=left;fontSize=13;" parent="1" vertex="1">
          <mxGeometry x="400" y="280" width="20" height="20" as="geometry" />
        </mxCell>
        <mxCell id="d4Aca1u6HOUoMToGAWtU-43" value="Application Source Code" style="text;html=1;strokeColor=none;fillColor=none;align=left;verticalAlign=middle;whiteSpace=wrap;rounded=0;fontSize=13;" parent="1" vertex="1">
          <mxGeometry x="429" y="277.5" width="156" height="25" as="geometry" />
        </mxCell>
        <mxCell id="d4Aca1u6HOUoMToGAWtU-44" value="Intermediate Artifacts" style="text;html=1;strokeColor=none;fillColor=none;align=left;verticalAlign=middle;whiteSpace=wrap;rounded=0;fontSize=13;" parent="1" vertex="1">
          <mxGeometry x="429" y="317.5" width="136" height="25" as="geometry" />
        </mxCell>
        <mxCell id="d4Aca1u6HOUoMToGAWtU-45" value="" style="rounded=0;whiteSpace=wrap;html=1;fillColor=#d5e8d4;strokeColor=#82b366;align=left;fontSize=13;" parent="1" vertex="1">
          <mxGeometry x="400.22" y="160.5" width="20" height="20" as="geometry" />
        </mxCell>
        <mxCell id="d4Aca1u6HOUoMToGAWtU-46" value="Clava Source-to-Source Compiler" style="text;html=1;strokeColor=none;fillColor=none;align=left;verticalAlign=middle;whiteSpace=wrap;rounded=0;fontSize=13;" parent="1" vertex="1">
          <mxGeometry x="429" y="158" width="146" height="25" as="geometry" />
        </mxCell>
        <mxCell id="zoL8zQpxSu9de9vwSaM2-1" value="&lt;font style=&quot;font-size: 12px;&quot;&gt;Outlining code regions&lt;/font&gt;" style="rounded=0;whiteSpace=wrap;html=1;fillColor=#ffe6cc;strokeColor=#d79b00;fontSize=11;" parent="1" vertex="1">
          <mxGeometry x="191.06" y="425" width="170" height="20" as="geometry" />
        </mxCell>
        <mxCell id="uZdSeVqPh_KYlumVynNW-4" value="" style="rounded=0;whiteSpace=wrap;html=1;fillColor=#f8cecc;strokeColor=#b85450;align=left;fontSize=13;" parent="1" vertex="1">
          <mxGeometry x="400" y="240" width="20" height="20" as="geometry" />
        </mxCell>
        <mxCell id="uZdSeVqPh_KYlumVynNW-5" value="External dependencies" style="text;html=1;strokeColor=none;fillColor=none;align=left;verticalAlign=middle;whiteSpace=wrap;rounded=0;fontSize=13;" parent="1" vertex="1">
          <mxGeometry x="429" y="237.5" width="156" height="25" as="geometry" />
        </mxCell>
        <mxCell id="uZdSeVqPh_KYlumVynNW-7" value="" style="rounded=0;whiteSpace=wrap;html=1;fillColor=#e1d5e7;strokeColor=#9673a6;align=left;fontSize=13;" parent="1" vertex="1">
          <mxGeometry x="400" y="320" width="20" height="20" as="geometry" />
        </mxCell>
        <mxCell id="uZdSeVqPh_KYlumVynNW-9" style="edgeStyle=orthogonalEdgeStyle;rounded=0;orthogonalLoop=1;jettySize=auto;html=1;exitX=0;exitY=0;exitDx=0;exitDy=15;exitPerimeter=0;" parent="1" edge="1">
          <mxGeometry relative="1" as="geometry">
            <mxPoint x="110" y="582.73" as="targetPoint" />
            <mxPoint x="124" y="582.73" as="sourcePoint" />
          </mxGeometry>
        </mxCell>
        <mxCell id="Woon1ckqIakj2TTkOYpj-1" value="&lt;span style=&quot;font-size: 12px;&quot;&gt;Statement decomposition&lt;/span&gt;" style="rounded=0;whiteSpace=wrap;html=1;fillColor=#ffe6cc;strokeColor=#d79b00;fontSize=11;" parent="1" vertex="1">
          <mxGeometry x="191.06" y="325" width="170" height="20" as="geometry" />
        </mxCell>
        <mxCell id="Woon1ckqIakj2TTkOYpj-2" value="Vitis HLS" style="text;html=1;strokeColor=#b85450;fillColor=#f8cecc;align=center;verticalAlign=middle;whiteSpace=wrap;rounded=0;" parent="1" vertex="1">
          <mxGeometry x="402.17" y="520" width="80" height="30" as="geometry" />
        </mxCell>
        <mxCell id="Woon1ckqIakj2TTkOYpj-3" style="edgeStyle=orthogonalEdgeStyle;rounded=0;orthogonalLoop=1;jettySize=auto;html=1;exitX=0;exitY=0.5;exitDx=0;exitDy=0;entryX=0;entryY=0;entryDx=240;entryDy=25;entryPerimeter=0;startArrow=classic;startFill=1;" parent="1" source="Woon1ckqIakj2TTkOYpj-2" target="d4Aca1u6HOUoMToGAWtU-10" edge="1">
          <mxGeometry relative="1" as="geometry" />
        </mxCell>
        <mxCell id="Woon1ckqIakj2TTkOYpj-4" value="" style="endArrow=classic;html=1;rounded=0;" parent="1" edge="1">
          <mxGeometry width="50" height="50" relative="1" as="geometry">
            <mxPoint x="320" y="620" as="sourcePoint" />
            <mxPoint x="320" y="640" as="targetPoint" />
          </mxGeometry>
        </mxCell>
        <mxCell id="Woon1ckqIakj2TTkOYpj-6" value="" style="endArrow=classic;html=1;rounded=0;" parent="1" edge="1">
          <mxGeometry width="50" height="50" relative="1" as="geometry">
            <mxPoint x="169.86" y="620" as="sourcePoint" />
            <mxPoint x="170" y="640" as="targetPoint" />
          </mxGeometry>
        </mxCell>
        <mxCell id="PhVBeyCCx-G29xjLYICd-16" value="&lt;div&gt;&lt;font style=&quot;font-size: 26px;&quot;&gt;&lt;font style=&quot;&quot;&gt;Ergonomic C/C++ source-to-source analysis and&amp;nbsp;&lt;/font&gt;&lt;span style=&quot;background-color: transparent; color: light-dark(rgb(0, 0, 0), rgb(255, 255, 255));&quot;&gt;transformations for HLS using Clava&lt;/span&gt;&lt;/font&gt;&lt;/div&gt;" style="text;html=1;align=center;verticalAlign=middle;whiteSpace=wrap;rounded=0;fontSize=28;fontStyle=1" vertex="1" parent="1">
          <mxGeometry x="585" y="160" width="415" height="170" as="geometry" />
        </mxCell>
        <mxCell id="PhVBeyCCx-G29xjLYICd-17" value="" style="shape=image;verticalLabelPosition=bottom;labelBackgroundColor=default;verticalAlign=top;aspect=fixed;imageAspect=0;editableCssRules=.*;image=data:image/svg+xml,PHN2ZyB4bWxuczp4bGluaz0iaHR0cDovL3d3dy53My5vcmcvMTk5OS94bGluayIgeG1sbnM9Imh0dHA6Ly93d3cudzMub3JnLzIwMDAvc3ZnIiBoZWlnaHQ9IjIyNC44Nzc1NjA5NzU2MDk3NSIgd2lkdGg9IjIyNC44Nzc1NjA5NzU2MDk3NSIgdmlld0JveD0iLTIuNDM4NzgwNDg3ODA0ODc3OCAtMi40Mzg3ODA0ODc4MDQ4Nzc4IDIyNC44Nzc1NjA5NzU2MDk3NSAyMjQuODc3NTYwOTc1NjA5NzUiIHk9IjAiIHg9IjAiIHZlcnNpb249IjEuMSI+JiN4YTs8cmVjdCBzdHJva2U9Im5vbmUiIGhlaWdodD0iMjIwIiBmaWxsPSIjRkZGRkZGIiB3aWR0aD0iMjIwIiB5PSIwIiB4PSIwIi8+JiN4YTs8ZyB0cmFuc2Zvcm09InRyYW5zbGF0ZSgxMCwgMTApIj4mI3hhOzxpbWFnZSB4bGluazpocmVmPSJkYXRhOmltYWdlL3BuZztiYXNlNjQsaVZCT1J3MEtHZ29BQUFBTlNVaEVVZ0FBQVBBQUFBRHdDQVlBQUFBK1ZlbVNBQUFYOFVsRVFWUjQydTJkdlhNYlY1YkZ6MjJBYThxYXFvRmxqejJLM0NvQnM0RGtJcHZaWmdLenlVUmxzNUhJYkROUzJXWUVzODFFL2dXaXNzbEVoaHNKeWpiVDQ5UkloQWRRcVoxcDFsb2JyaHBiOUFqb3V3RWhXWmI0Z1c3MDErcyt2OGpsc3FWRzl6MTl6bjM5UGdCQ0NDR0VFRUlJSVlRUVFnZ2hoQkJDUGtCNEMreWsyZlRjY1FVMUZkUkU0Yjc1OS9yT1A1LzR3QVUrQUFRQmhsTEJVQlREeWhqRFhzLzR2S3NVTUlrQjEvVnFjeGZoQXZBVXFJbnFvaXBxQW5ncXFFRlJTNmdhaGxENEFJYUFHb2p6Z3lxTTQ4RHZQekdHVDRZQ0ppZUl0WElCYlhIZ0l0QWJjaXhhTjZlWGF3RDRFRGxRaFpsVEdEbzNCVndxR3RjOVQ0RzJxQzVDMGM2eFdLY3RJRjhCQTBjZUNkQ2xVMVBBaGV0VlJ4V3NJTkFiRUxRVGk3LzVxYWdoRkYxeFpMOHlScGNPVFFGYlIvMHJyNDF4Y0ZNZ0s3WTdiRHdPclh1b09QdUR2NW91cTRNQ3pyVm9JYkphZUplZFFjd1FkTldSK3hRekJad1AwUWJCRFVBMktOcG9ZcTRFc3NXWVRRR25odXQ2dGVwRnJDTFFtd0RhdkNPeFlNU1JuZGMvWXMvM3paQzNnd0tPbmNaMXo5TWd1TTJJbkdnMURnWFlveXRUd0RIM3RycEp0MDJkTGlxeXhWNlpBcVp3YmUrVkhkbnFQekc3dkJzVThEUlJlUldCYnBiOTh3K0ZUQUZiNTdneTFuc1VMb1ZNQVRNcWt4U0VyQlZaSzN1UFhGb0JONXVlT3hLOVIrRmFYc0NDM1RLUFdwZE93SzdyMWFvZkIrdFE2YkQ4aTFUSjJobjk1T3lVN1R0eXBVdy85bXJMVzZuTzZRTkFWbGp4aFZOd3V6S0hQMzM2eGVVZnZ2djJoYUVETXk0VHhtbzZjTlkwV2d2cmdZTS9BMml5dEV1REZ3aFdMLzN1OHMvZnZYenhQM1JndWk2eGwyNVZaYTJvYmx4SUIvNURjK0gyMk1FZVhaY0FjRld3VXRUZXVGQU83THBlclhvaDJBUmtnM1ZMUHNEUjdkR1B6bGFSUnFvTEkrREdkYzlEb0E4NGs0cWNVL0IrUldXNUtKRzZFQkc2MFZwWVYyQVh3Tzlab3VRY2FrVWE0TEpld1BYV3dsMUFPZ0RtV1p0a1N1WUIvUEhTRjEvVXZ2djI3Ly9OQ0owQmsxSG1Cd0E4MWlPWkFWTlZ1V1ZycEJaYnhUc1dmY2grbDVTOUwzYXNpOHhmZWUyUm80OHBYaElYQ3JnajBjZFhXOTRLZStBRWFiUVcxcUg0TS90ZGtrUmZMTUNmTHYzdThnODJEVzVaSStCNmMyRVRJdi9GT2lNSjg4ZExuMytCNzc3OSt5TUtPRjd4ZGxoYkpLV3V1RzJMaUhNdjRIcHI0UzVFL3BORlJTaGl5d1RjdUxaNEQ1RC9ZREdSckVUODZlZS9kNy83OXUvN0ZIQUU4YXBpbFVWRU1zYkxzNGh6S2VESjdDbzZMNkdJYlJQd1pNQ0tQUy9KbllqejJCTlhjaWplRG11RjVMVW56cHVJS3hRdklmYUtPQmNDL2tOejRiYUtiTE00aUMwaS91eXp5Lzcvdlh4eGtQbVZaSDBCeDhkMjZtTVdCYkdNb1RpeTNIOWlUSllYa2VsaWhtYlRjeEhvQTlZQ3NaQWFBbjNRYkhwdUtSM1lkYjNhM0FXdUtpS1doMm5BZi8xS2xyTGFaeXN6QjY1K3pKTUFpZjBvNEZZdjZMMnMvdjVNQnJIcXpZVk5UdFFnQmFLWjFjaDA2aEY2Y3B6blF6NXpVamdxc3B6MmNhZXBDcGhiNFpDQ002eXFMS1c1TlU4MXpWODNPZW9rVy9FS2hxSXlmTnZEaU5hZ3FMSDJMR1R5TEZVd2hHSW9nS3ZRTE91ck5xbng1Y0k1Y0Q1bVdrbDNjR2crdUxtdTY5V3E4L0FnOENDNElhb2VVMEwreEFvVkE4VWpGWmc1aFRuSjZlcE5ydzNKdWtXVE80TkRzMTBZQVUrMmdIMmVlUTJvclBWN1puZWEvN1p4M2ZPQ0FLc085Q2JGbktIRFF2WTB3UDNSRWN5MG4ycnFyY1dIeVBwUXU1VDY0Y1FGbktmdnZhTlg4a21VNzNYSHg3WmdRMFZ2TW02bms1VEV3ZjNYUDJJdnl2T3F0N3dOUU85bSsrNUo1L3R3NGdLZXJPM2R5RUZSN0E4T3pjck1MNk41ckVCMGs2NGN2OXVxeW4xUjdBMTZzem1YNjNtMTZzLzZmZWEveWRIdHdaTy8zTEZXd0huNlpCUW1Qay9seWsxdmxVS09xYmNOWkdkMGhPMDQzU29YTVRxRktKM29UQ3daWnpkRDVZUDdDTVI2RS9zOXM5cy9QTGdpS21zQytGUmlCT0dxYkkxK2tpdURudW5FSGpWVmNySGNUOFo2ejNXOW1uVUNyamNYOHVOT2N2S0lKWVdjMGVNUTJhMEdzcFNJY0graG00ZmZxb0JiL1JnYnlaVjJBdVJsMVBtWG15Zzd6dzVOS24xNHZlbDE0T2c2Qjd0T0xMY3VGRnV6OXJoVDk4SC8xT2Q1ZVE1VmxTdEptRWdpRXpsR2p0NkY1cXB5VW5zYkQzcW0wMng2dTJOQlI2RzM0M3ZUaXE4Q0k4QlFnVytnR0lxRG9ZN2hTd1hEeWhoREFEZzZ3dkFzVjNOZHJ6WS9qOXE0Z3BxT2o0dGJLbkJWNGFxaUpvSXZvYWhCMUl1dCtBVkRDZVJPbkdNUTUrRWJNNnhmVy9TUms5TXJrNXJnRWJzRE42NTdxeHJrcC9jRkFIRmtLWXVGMTFkYjNvb0R2VHQxS3lFWUF1SUxZRlJ4b0lCLzJvU0ZOSEJkcnpaM0VXNFF3QldCQjJBUmdBdlZxVVdoa0ozeEszU3lXRzUzdGVWdEMzUTlSMG53MXJORHM1ZHZBYmNXbitkdFpIWndlSkRwemlQMXB0ZUI2T1pKcmdwQkY0SkhBRXpXdXp1RUVYWjFIaDRjdEtHNGNaSmJDK0NyeWxvYWNmblUrNTZENzhIdjM1TzR2dzFYNHkzVWhmeDlWaEZrTG9vM3NYcms0SUVxSGprT1ROUkpDbmxnY3QzZGQxdVQ0NjJSMEFad1U0R0RVVWF1KzJ2SGc1K25BN0RmR2REcTVNNkI4N3ZTNk9UNXo2VDQ1RzB3ZGNKdzlFcXV4UFZ5aSswejB0ako1NlFHRVg3YUtTdEg4OGhqd3FuRitWa3BGZ0UzbTU2YjEzT01GUGlHcFZ4T2ZKUFRGa1YxUGE3TjhHSVI4Tmo1Y0lDR2tGd2tzSHhPcnFuRnBabVpCWnhuOXlVa3I2aGlOUTRYbmxuQWRGOUNvdkZhWnUrRlp4SXczWmVRV2VLOTNwNTFvY05NQXFiN0VqSmJMenpyaUhSa0FUZWJuZ3ZOd1hyTDgzdU5HdXVreEwxbTN0ZHJxNjdQNHNLUkJUeXVvRzNEWW5aSDhGdVdjVGx4dmVUVzRlYkZoYU5INk1DTytLeVlmdUk5S1JaelA5cXhXNHBvOUZWcmtRUjh0ZVd0MkxLVmpEQkNsNWFnYWtlTkt1RFd2L0xhcVFsWVlsem5tc2JOU1hKTEU1TGpsN2ZrWXkzd2REMXB0RVFiV3NDVGo4OHJOajNJNm04c2VwQWt4cmUzTGxwMHRlMG9SaE5hd0NPeFM3ekhXU3IvbytVa0NRdTI2N2xIR2N4eXd0K1QvT3h3RU9KTmZJUFZYQzRhRGMremJWK3lLSU5ab1FSY2IzcHRTL2RCYnJNUExsbDZydHFYdXFJTVpvVVNzRGoyREY2OXo5eEZDNk0vbWNYT3JLeFZIWWVyVXlma0s4TGVYbExCR0YwU1hNK3JRZTBjdUF6N2hXZHFBVnNjbnlHQVh3bXd4ZEl1Qjc0eFExRlpzL1R5YTJGaTlOUUN0alUrQytCWFZKYXoycHFWWkVPL1ozYWhZdVZMTzB5TW5qNUNXeHFmZzdIY29Yakx5YUJuT3NqSkVTdEp4ZWlwQk54b2VIYWVXQyt5OWV4djhXNmtUZXhpOUpIY3N2RE1xcWxqOUZRQzFqbjdSbkFGOEFkUFRZY2x6SDVZYmV5SHA1eDhORjJFdG5BaVJFV0ZlMEdUTjFHNnE1QWR1eHJoNlRSM3JvQW5heXJ0Nm45RnR0ajNrbmNaZjRTT1pWRjZxc2xINXdxNDhyTmQ0aFhBSC8yRWJaWXNlVDlLQjVBN1ZxWElDK2RyYjVvSWJaZjdxbXpaZXVZUVNaYkp5WUJkbTF4NFpnR0wyTlAvQ3VDbmVRWXRzUkNMdmcxUG96M24zUDdYcGlscGxuNjRKK2t4T2U3VURoZFdlT2Yxd1djS3VIcGtqM2pwdnFTSUwvcnpOcU53enZIbk5oOEtLYUlMV3pNaVBaNUZ3Qlo5LzYxWU9HV09aUGkrVjdsdnlhVzJvd3ZZbWszQlpKL2ZmVWtZUnZOMmZHb1VuTDJ2MTZrQ25neGcxYXo0a1lvOWxpUUp3K1RzNE55bnR2TjJWVDFWd0RZTllMMCtvb0JKdE9SbVJYdDR4b1FPcHdEeHVjdUpHeVFLVlV1U201eXhFdEE1eTdvdGVRNzdMRVVTaFY3UCtEYU1Sb3RnTWJTQXoydWU4NU12WUZpS1pBWjVQTXAvSDN6NitWN1dSK2pCWDAyWFJVZ2k0K1IvSU91czg3MmNNMlJmczZIL1pRV1NtZmhuL2hQY1dTUFJKd3E0MGZDc2NGOEZEbGlCWkJaZVg3UmpSdGI4UEtZWHNGWXMrZjVyMzE1SEpHZjR4Z3h0cUtQWHA3UzBKd3BZS3RhY3Ewb0JrMUxVa2VPRWNXQzE1UER1Q29Zc1B6SjdrcE52Y3YrU09VV1Rwd25ZaWdoZEhkR0J5ZXdFeUw4Um5LWko1NVIvYVlXQWo0N293Q1FHQjViODE1RWorTzMwRGd6OTBvWWJ6eW1VSktZbTJBWUhuajVDRTFJcUIzWXNTSEtpMDBkb3NmUVVRa0lLKzVJSjB3TVRRdXpnNUI1WTdCakVJcVE4YlhvWUIxWUttSlJJSEhiTWV5aGVoSjdtN0JoQ1NoZWhiZUcwQ2Q2RVVNQ0VsQ2RDMXlqZ0RCaFYrYm1MeENJQ0NqaVROK2VZRVpyRVVFZVd6RHdzbklCUFcySkZTQ2lrYUE0c2Rpd1NzR1haSThrOU50VFJjR29CaTlvaFlBRytaTzJSR0RKMHpZSmFuMTdBMXR4M3hTZXNQaklMdHV6L0ZpcENxOWppd0pic1hVM3lhd0tXN1ArbUVIOTZCN1lrUXA5MzhCTWhVN2hBOFJ6WWhqMkMzakIza1FOWlpBYjlpaDBwVGdUVE83QU5ld1M5ZzhjeUpKRlRuQ1ZmTWdMRkQ5TTdzTmdqNENDZ2dNbE10QzF4NEdFWUFmc1dSYUFickVFU2hYclRhOXRUNTJFaWRHQlJoRlo0SE1naTBWUmhUM3JUTUFLZVU3dU83S3oraGpHYVJKS0ZOZW50dE1sVkp3cjRhTjZ1L1paMWpCVVdJNG5nd05aRTZQNFRZNllXc0MwSFByRVBKalAxdi9hc0F6N1ZVSjB6TWpmN1lGTGM4Q3cycFRZeG9RVXNLbGFkdlZ1OWdGV1dKWmtXQjNyVEhuODYvUnhzNTR6L3lWajJUcjNKc2lUVHhtZTE2UENDczlyWnN3VHNXL1pjMm8zcmRxOHNJU2tKd3RIYlZsMXdCZUVqOVBnamRLM3JhNVNqMFdTcVROcTI2WEpILzRnZ1lOK1lJY1N5NHp0VjF6bVlSYzZpY2QxYnRTMCtuM1VLcDNQT204bzJGNjVWUDhZR3k1U2NTcUNiZG9XRnN3ZVR6eEd3WFNQUkFDQnFXWDlENkw1blc3Q0pMbUJZMkFjRGJ1TzZ0OHB5SmJhNzcwU2gzY2dDSHMzYjlpbHBJdUpBNzdJWEp0YTdMODRld0RwWHdKT0JMQnRGekY2WTJPKytBblBXQU5ZMEVScXE4c2pLQjZhNjNteDZMaXVYMUpzTG16YTY3elRhbTJaYjJhNmx6NjAyRXIzSDhpMDN6YWJuUXFSajZlVjNaeGF3alJNNjNxRmRiM21NMGlWbUxQclEybXQvRllPQWZXT0dGcnN3QU4za0ZNdVNSdWZXd2wwYm8vT2tBZTZlMS85T0c2RUJXL3ZnU1pSR29BODRLbDB1R3EyRmRVQnNUbC83MC94SDB4NnRZbk9NaGdKdTlZSStZRm1YUkx6WFBVL3Q3WHVQL2RlWlRuTXlkUnk1dHZnOTFQTGpQQjNkSGp6NXl4MldlSEZwTmoxM0xQclEzdWg4UFArNWYzaHdKVTRIaHFyY3QvN3BCckpSdjdhd3lUS25lUE90WUprNjhVNHRZRkhzRmVJcHEzUW9Zb28zMXlYcVlHcXpsREIvY0NGaU5PTjBJWHRlQlBxZ0NPSU5FNTlET1hCaFl2UzdjYnExK0ppenRlem1hc3RiVVMyRzg0YU56NkVGWEpnWS9RdmVXUFFoUld3bjllYkNwa0FmRkNZVmhvelBvU00wQURSYWk4OEw4N2I3OWR1cE0zajZseTNLd281K2R6Sk50bDJvRWd3Wm4wTTdjT0ZpOUs5K21IVHFyVVc2Y2Q3NzNkYkMrc2pSeDBVVDc2UUdReHRJYUFHUDVyRmQ0UHBvajBTZmM1UTZoM0g1SzY5ZGJ5MCtWTWgya1NMenUxUWlUSmlTU0RlenRmaXdrRy9BOStJTUhObnFQekc3bEUrMmNYbnM2S1pxMFRmdWwvM0JvVmxKM0lHaldyMTFhUVp3TmRCN2pkYmljMjdSazQxd0c5Y1c3NDFFbnhkZnZBQXEwWkt0UlAzN2t2MG1MRjBGRGh6bmw5MUFORUJOQVZlQVJVQlRkLzgzamx3Wm85dnJHWjhTU3k0cVk2eWJSVTk0NzlkVzJNR3JOMVFqLzYyQjdFRGkzYVpFQUwraXNueWVRSnBOengwRGJZaW10dE9DQWk0Q3ZUY1NvSEZ0Y1RkUTJYOTJhUFlvdWRseFhhOVcvVGhZQjJRRlkvVktkd05tU0xTUkhkajF2RnIxbi9vOFZoY1cyUm84Tlowdy8wdWo2YTJtS2VRUFhGblFWVWZ1RC81cXVwUml1SWc4cW1BRmdkNHNrOXVlVkVPdlg4blNOR3QvWXhVd0FOU2JYaWRtRis0T0RnK1dvN3hNS2orakk5RDFESi9FRUlxdU9MSVB3SngySUhPcFhmWTM4REFPYmdMU0J1RHhyZ0Fpc3R0L2F0WlNkK0MzTHZ5emZoL3ZMNG8rb2FMUjlGYlYwYnQ1K013Z2dLK0FnU09QSURDamY1eS93MkRSSEhaY1FWdURZSkdDUGFPSFZia3l5NWlLekhvQmpaYTNxNGo1TklRWlJKenpWU2tHd0JCUUk0NXpvQUxmWm1HN3JsZWJuMGZ0dGNBVEI2Nm9McXJDZzhBdDZyZmFQTGx2TEFLZVRHdDdIdnV2YzNSNzlLT3pGYVc0TFYxYXRqZDZKV3MyaVBscXkxc1IwWHNVYWJidUN3Q1ZXUy9pNWNzWHcwOS9kL2xLN0JGSjVkOHFjL2pUSjVjdmYvUDkvNzdvaGIybXp6Kzd2SytDRlNEL1JTYUFYMVg1OThIQXZMQ2g4TDUvK2FKMzZkUExGeURsSFh5S3czMy9kbWp1eDFBNzhmUTdpYmp3MngrTDNVb2dXMkhmVm8zcm5xZXFEM1B0RklKaE5aQWxHNzh0MTY4dFBnRFBaTTdNZllHb003SGVvOWN6ZnBLenMxU3hHbVhaWC8rSk1Sam5mTmFZaG44eDVZWFJ2OGlhQUQ3bEdONTk0M3JtVG13UGN4N2JTUjRJcm9BYlJjU0RyODIyUW5aeStpajNCb2RtMjlaQzlJMFpxc29hSlJtdVhhb0VpTTFVbkRnZkpvSmtoZkpHeEdIM2VCNS9oRTRlbmFLcXNINUxuMEhQZEdINXRzUHBCaTY1SDJmaWN1Szh1TkU4dHBNV1NwUTludlBvRkhIR3FEeTBBWlRtZE80YmRxWmhxZ0wyalJrR2tEUmNwVjIvdm5BM3RGTklmcllFaWpORzBZWEwrNkp6NHY0REp4UDhrMytZZ1d6VXYvTGFvUkpDYmdaZHBIZ3JtdWpDNXozenZYNHYvclhsVGhLWFdrMHByc3BZNzRYcGgvTVNwVVZSdUcySkpnbG5TS0dlcG9sa3hqc1NFWERTbjVWKzFROWZERFpERjFvZ21RNGVWUW9hTnd1N1g5ck1iK3prUGhVNlNWMXpHZ05hVWFQMDRHdXpuVjNra3lKdkNNQSsrUDJubmNEQVZTb0NUald1anNNdmFSejBUQ2NMRVN0d1VOUml0Znd3K0lRVUpyY1MvZU9UN290U21rVFJqckp2VlVZaUxteVIrOFlNT1RQcjNaZTE3Q1M5THR4SitrZWtOWWxDQTcwYjVSRHZpWWlYMHlvOHh5bDZnVnQ5R0h5czBYbjhDcDNFNnltTnQzSktVYnBXL1JnYlVaTkNSV1Zaa1BRZ2pIU0x2bE9IQ2gwWUFDb3F5MmtzRFhYUytER3BqZnlxcmtkeFllQjQ1THgvYUZhcktsZGlGYkpnS0NLN1VGa2VISnJsb2hldVVNQ0pqanFmNFBUcGtjNkc4SEluamdVQ2IzYStWTUh0c052WUNzUVBnSDFSN0kyT3lyV1Z6dFdXdHlJSU45VzFZT3J0cHZtaXJxYjUwNm9xYXlOSEh5ZTdQbGR2QXJNZi96SjVnKzRDMkhWZHIxYWRod2VCQjBGTmdDOS9QVmlCYnliT1kxNy9DTDlNZ3YwZzBvM2dhN1drMGdYOGltSXQ1Yjh6WGVwTnJ3M1JoOGsySUxMTWJWNnpJZW5OSFhMZC80L2wxck8vcGJ0WHVKUDJqeHowVERmeFR6ZGo1ZUZrSlBXK04yM3haaUxnaVlnN0NhOE1hb2VkblVYSURPTGRTM0syVmU0RURLU3dNb2d1VEZMcWUwYy9JYk1GTXBrSjJEZG1XRWwyQWtXNzN2STJXR0lrU2ZHbTliMDNkd0lHSmlPOWp0eEtiaG1hM21XVUpzbXBSMjVsdlRERnlmb2U5SjhZSTBsTzhoanJnN0FiNFJGeXJ2dXFyT1ZoVnAyVGg1dlI3NW5kQkVlbWExRjJzeVRrZFBYS1ZoSzdhMWdyWUNEWmxVRUt1Q1BSeDFGV0xCSHl2bml6R25FK2lVcWU3czEzTDE5MEwzMTJXUkk2c21NZWlwVkxYM3hSKy96VHkxKy9mUGxpeUdxTW44OCsrMzB0a0dpTFNpaGVpeDM0WFNkT2RBMXhJQnRqMFlkMFl4Skt1NUQ3ZVJQdjhYWGxsRVpyWVZjaHR4UCs4VDRjMmFxTVVlUnRibEtsaUZNcEJYSy9mMmhXODNsdE9TWU5FYi9EbmppeW41U1kzd3lpRmYxRlVUUUI1MW04dVJjd0FOU2JYZ2VTN3F3cUFYd0ZERVFPVkdHa2dtRjFCUC9vQ01PVFB0cS9PZWg2WEVFdENPQTZEbXFxY0FYNjVic0hYb3NqYS8wbitSaTlwSUR0RnkrUThuTENxRDF4dmVraFRSRlBEZ1ozb2JvaUFEQUdSZ0pVTHdEMTF1S0ovOGNJQUlMak42SUdiLytjOS82QjJLTmUyZXJuc09kOUg4ZUdlNW5WRHBLa3ZPSWRXQ0JlYXdUOFZzUVpiOGhPU3FIZU83YUkxeW9CQTI4M1pGL21FUjRrZ1laM0tDcHJ0cDNYN05oMm53YzkwNjBHc3NUOWgwbDgyb1V2SXN0NW1SNVphQUVEeDU5aUtzZE9iRmgrWkVaTVJXWFoxdTErSFZ2dmVxOW4vTUhUZ3lVT2JwR29LR1JuOUVxV2JmNDI3OWorRU40T2JyRXZKdUdDODUxbmgyYkQ5aDFFblNJOGlzSFhacHQ5TVptNjMzVmt5YmJCcWtJTCtFMmtmdjJSTEtWMG1GcTB5S1p3S2FFczFTdDdyMS9KVXBHT3R5blVGdHkrTVVNQUc0Mm1aeUM2T1psUlJWSmtsTWQ3TGhoQ1pXdnd0Qml1VzBnSGZwZCt6K3ltYzFnWnNjQjJ1OVdnT0pHNTBBNzhmcVFHc05wb2VsMjZjU21iM1dQWExhaHdDKzNBZEdPNmJwRmR0eFFPVERlbTY1WUJwMHpQdDk4enUvM0RneXVjL0ZFOEZMSXora211bEVtOHBSUHdHd1k5MDRuOUlHK1NXVnlHeW5JUkptVlF3Q0ZqZGYvUXJNcElsamluMnNhMERCOHF5NE5Ec3p6b2xmY29XYWZzaGREdkd6TjRlckFrbXZCaGF5UzJQbGRVMXZxSEIxZktMRndLK0pUK21FTE9yM0Noc2pYNlNhN1l1T3d2S2FxOEJSOEtHY0J1byttdHF1QTJvRzNlbFd5ajh2RUFGWGJMMk9OU3dETUt1ZDcwMmlKWVZlak0yOXRLVUh4bkg4M0RWSCtPUmJwZEtMYjZqTW5udmVESU5EU2JuanNXZEFDOUVmVTdjbFhsU2hrMmtLKzNGaDhDRVk3SE9ZN0pYU2gyMk45U3dJa1JLVjVidE5QaHpBSnVlbTJJUGd4UmhnYUsvZEVSdGhtVEtlQlVYZm0xWU1PQjNqekxsUld5OCt6UWJKVHAzdFQvMWR1QW8zZlBjbHRWdVMrS1Bib3RCWndMMTFIQmlnQ0x2eFFvdmlsemdiNTV3UW13Q0VFTmlxRUlmQTF3ZjNRRVE3Y2xoQkJDQ0NHRUVFSUlJWVFRUWdnaGhCQkNmczMvQThXZHFvQlU4MUFDQUFBQUFFbEZUa1N1UW1DQyIgaGVpZ2h0PSI1Ni4wOTE5NTEyMTk1MTIxOSIgd2lkdGg9IjU2LjA5MTk1MTIxOTUxMjE5IiB5PSI3MS45NDQwMjQzOTAyNDM5IiB4PSI3MS45NDQwMjQzOTAyNDM5Ii8+JiN4YTs8ZyBmaWxsPSIjMjIyMjIyIiBzaGFwZS1yZW5kZXJpbmc9ImNyaXNwRWRnZXMiPiYjeGE7PHJlY3Qgcng9IjAiIGhlaWdodD0iNC44Nzc1NjA5NzU2MDk3NTU1IiB3aWR0aD0iNC44Nzc1NjA5NzU2MDk3NTU1IiB5PSIwLjAxIiB4PSIzOS4wMzA0ODc4MDQ4NzgwNCIvPiYjeGE7PHJlY3Qgcng9IjAiIGhlaWdodD0iNC44Nzc1NjA5NzU2MDk3NTU1IiB3aWR0aD0iNC44Nzc1NjA5NzU2MDk3NTU1IiB5PSIwLjAxIiB4PSI0OC43ODU2MDk3NTYwOTc1NSIvPiYjeGE7PHJlY3Qgcng9IjAiIGhlaWdodD0iNC44Nzc1NjA5NzU2MDk3NTU1IiB3aWR0aD0iNC44Nzc1NjA5NzU2MDk3NTU1IiB5PSIwLjAxIiB4PSI1OC41NDA3MzE3MDczMTcwNjUiLz4mI3hhOzxyZWN0IHJ4PSIwIiBoZWlnaHQ9IjQuODc3NTYwOTc1NjA5NzU1NSIgd2lkdGg9IjQuODc3NTYwOTc1NjA5NzU1NSIgeT0iMC4wMSIgeD0iNjMuNDE4MjkyNjgyOTI2ODIiLz4mI3hhOzxyZWN0IHJ4PSIwIiBoZWlnaHQ9IjQuODc3NTYwOTc1NjA5NzU1NSIgd2lkdGg9IjQuODc3NTYwOTc1NjA5NzU1NSIgeT0iMC4wMSIgeD0iNjguMjk1ODUzNjU4NTM2NTkiLz4mI3hhOzxyZWN0IHJ4PSIwIiBoZWlnaHQ9IjQuODc3NTYwOTc1NjA5NzU1NSIgd2lkdGg9IjQuODc3NTYwOTc1NjA5NzU1NSIgeT0iMC4wMSIgeD0iODIuOTI4NTM2NTg1MzY1ODUiLz4mI3hhOzxyZWN0IHJ4PSIwIiBoZWlnaHQ9IjQuODc3NTYwOTc1NjA5NzU1NSIgd2lkdGg9IjQuODc3NTYwOTc1NjA5NzU1NSIgeT0iMC4wMSIgeD0iOTcuNTYxMjE5NTEyMTk1MTEiLz4mI3hhOzxyZWN0IHJ4PSIwIiBoZWlnaHQ9IjQuODc3NTYwOTc1NjA5NzU1NSIgd2lkdGg9IjQuODc3NTYwOTc1NjA5NzU1NSIgeT0iMC4wMSIgeD0iMTA3LjMxNjM0MTQ2MzQxNDYzIi8+JiN4YTs8cmVjdCByeD0iMCIgaGVpZ2h0PSI0Ljg3NzU2MDk3NTYwOTc1NTUiIHdpZHRoPSI0Ljg3NzU2MDk3NTYwOTc1NTUiIHk9IjAuMDEiIHg9IjExNy4wNzE0NjM0MTQ2MzQxNCIvPiYjeGE7PHJlY3Qgcng9IjAiIGhlaWdodD0iNC44Nzc1NjA5NzU2MDk3NTU1IiB3aWR0aD0iNC44Nzc1NjA5NzU2MDk3NTU1IiB5PSIwLjAxIiB4PSIxMjYuODI2NTg1MzY1ODUzNjUiLz4mI3hhOzxyZWN0IHJ4PSIwIiBoZWlnaHQ9IjQuODc3NTYwOTc1NjA5NzU1NSIgd2lkdGg9IjQuODc3NTYwOTc1NjA5NzU1NSIgeT0iMC4wMSIgeD0iMTQxLjQ1OTI2ODI5MjY4MjkiLz4mI3hhOzxyZWN0IHJ4PSIwIiBoZWlnaHQ9IjQuODc3NTYwOTc1NjA5NzU1NSIgd2lkdGg9IjQuODc3NTYwOTc1NjA5NzU1NSIgeT0iMC4wMSIgeD0iMTQ2LjMzNjgyOTI2ODI5MjY2Ii8+JiN4YTs8cmVjdCByeD0iMCIgaGVpZ2h0PSI0Ljg3NzU2MDk3NTYwOTc1NTUiIHdpZHRoPSI0Ljg3NzU2MDk3NTYwOTc1NTUiIHk9IjAuMDEiIHg9IjE1MS4yMTQzOTAyNDM5MDI0MSIvPiYjeGE7PHJlY3Qgcng9IjAiIGhlaWdodD0iNC44Nzc1NjA5NzU2MDk3NTU1IiB3aWR0aD0iNC44Nzc1NjA5NzU2MDk3NTU1IiB5PSIwLjAxIiB4PSIxNTYuMDkxOTUxMjE5NTEyMTciLz4mI3hhOzxyZWN0IHJ4PSIwIiBoZWlnaHQ9IjQuODc3NTYwOTc1NjA5NzU1NSIgd2lkdGg9IjQuODc3NTYwOTc1NjA5NzU1NSIgeT0iNC44ODc1NjA5NzU2MDk3NTUiIHg9IjM5LjAzMDQ4NzgwNDg3ODA0Ii8+JiN4YTs8cmVjdCByeD0iMCIgaGVpZ2h0PSI0Ljg3NzU2MDk3NTYwOTc1NTUiIHdpZHRoPSI0Ljg3NzU2MDk3NTYwOTc1NTUiIHk9IjQuODg3NTYwOTc1NjA5NzU1IiB4PSI0OC43ODU2MDk3NTYwOTc1NSIvPiYjeGE7PHJlY3Qgcng9IjAiIGhlaWdodD0iNC44Nzc1NjA5NzU2MDk3NTU1IiB3aWR0aD0iNC44Nzc1NjA5NzU2MDk3NTU1IiB5PSI0Ljg4NzU2MDk3NTYwOTc1NSIgeD0iNTMuNjYzMTcwNzMxNzA3MzEiLz4mI3hhOzxyZWN0IHJ4PSIwIiBoZWlnaHQ9IjQuODc3NTYwOTc1NjA5NzU1NSIgd2lkdGg9IjQuODc3NTYwOTc1NjA5NzU1NSIgeT0iNC44ODc1NjA5NzU2MDk3NTUiIHg9IjU4LjU0MDczMTcwNzMxNzA2NSIvPiYjeGE7PHJlY3Qgcng9IjAiIGhlaWdodD0iNC44Nzc1NjA5NzU2MDk3NTU1IiB3aWR0aD0iNC44Nzc1NjA5NzU2MDk3NTU1IiB5PSI0Ljg4NzU2MDk3NTYwOTc1NSIgeD0iNjMuNDE4MjkyNjgyOTI2ODIiLz4mI3hhOzxyZWN0IHJ4PSIwIiBoZWlnaHQ9IjQuODc3NTYwOTc1NjA5NzU1NSIgd2lkdGg9IjQuODc3NTYwOTc1NjA5NzU1NSIgeT0iNC44ODc1NjA5NzU2MDk3NTUiIHg9IjY4LjI5NTg1MzY1ODUzNjU5Ii8+JiN4YTs8cmVjdCByeD0iMCIgaGVpZ2h0PSI0Ljg3NzU2MDk3NTYwOTc1NTUiIHdpZHRoPSI0Ljg3NzU2MDk3NTYwOTc1NTUiIHk9IjQuODg3NTYwOTc1NjA5NzU1IiB4PSI3My4xNzM0MTQ2MzQxNDYzNCIvPiYjeGE7PHJlY3Qgcng9IjAiIGhlaWdodD0iNC44Nzc1NjA5NzU2MDk3NTU1IiB3aWR0aD0iNC44Nzc1NjA5NzU2MDk3NTU1IiB5PSI0Ljg4NzU2MDk3NTYwOTc1NSIgeD0iNzguMDUwOTc1NjA5NzU2MSIvPiYjeGE7PHJlY3Qgcng9IjAiIGhlaWdodD0iNC44Nzc1NjA5NzU2MDk3NTU1IiB3aWR0aD0iNC44Nzc1NjA5NzU2MDk3NTU1IiB5PSI0Ljg4NzU2MDk3NTYwOTc1NSIgeD0iODIuOTI4NTM2NTg1MzY1ODUiLz4mI3hhOzxyZWN0IHJ4PSIwIiBoZWlnaHQ9IjQuODc3NTYwOTc1NjA5NzU1NSIgd2lkdGg9IjQuODc3NTYwOTc1NjA5NzU1NSIgeT0iNC44ODc1NjA5NzU2MDk3NTUiIHg9Ijg3LjgwNjA5NzU2MDk3NTYiLz4mI3hhOzxyZWN0IHJ4PSIwIiBoZWlnaHQ9IjQuODc3NTYwOTc1NjA5NzU1NSIgd2lkdGg9IjQuODc3NTYwOTc1NjA5NzU1NSIgeT0iNC44ODc1NjA5NzU2MDk3NTUiIHg9IjkyLjY4MzY1ODUzNjU4NTM2Ii8+JiN4YTs8cmVjdCByeD0iMCIgaGVpZ2h0PSI0Ljg3NzU2MDk3NTYwOTc1NTUiIHdpZHRoPSI0Ljg3NzU2MDk3NTYwOTc1NTUiIHk9IjQuODg3NTYwOTc1NjA5NzU1IiB4PSIxMDcuMzE2MzQxNDYzNDE0NjMiLz4mI3hhOzxyZWN0IHJ4PSIwIiBoZWlnaHQ9IjQuODc3NTYwOTc1NjA5NzU1NSIgd2lkdGg9IjQuODc3NTYwOTc1NjA5NzU1NSIgeT0iNC44ODc1NjA5NzU2MDk3NTUiIHg9IjExMi4xOTM5MDI0MzkwMjQzOCIvPiYjeGE7PHJlY3Qgcng9IjAiIGhlaWdodD0iNC44Nzc1NjA5NzU2MDk3NTU1IiB3aWR0aD0iNC44Nzc1NjA5NzU2MDk3NTU1IiB5PSI0Ljg4NzU2MDk3NTYwOTc1NSIgeD0iMTMxLjcwNDE0NjM0MTQ2MzQiLz4mI3hhOzxyZWN0IHJ4PSIwIiBoZWlnaHQ9IjQuODc3NTYwOTc1NjA5NzU1NSIgd2lkdGg9IjQuODc3NTYwOTc1NjA5NzU1NSIgeT0iNC44ODc1NjA5NzU2MDk3NTUiIHg9IjE0MS40NTkyNjgyOTI2ODI5Ii8+JiN4YTs8cmVjdCByeD0iMCIgaGVpZ2h0PSI0Ljg3NzU2MDk3NTYwOTc1NTUiIHdpZHRoPSI0Ljg3NzU2MDk3NTYwOTc1NTUiIHk9IjQuODg3NTYwOTc1NjA5NzU1IiB4PSIxNTYuMDkxOTUxMjE5NTEyMTciLz4mI3hhOzxyZWN0IHJ4PSIwIiBoZWlnaHQ9IjQuODc3NTYwOTc1NjA5NzU1NSIgd2lkdGg9IjQuODc3NTYwOTc1NjA5NzU1NSIgeT0iOS43NjUxMjE5NTEyMTk1MSIgeD0iMzkuMDMwNDg3ODA0ODc4MDQiLz4mI3hhOzxyZWN0IHJ4PSIwIiBoZWlnaHQ9IjQuODc3NTYwOTc1NjA5NzU1NSIgd2lkdGg9IjQuODc3NTYwOTc1NjA5NzU1NSIgeT0iOS43NjUxMjE5NTEyMTk1MSIgeD0iNDMuOTA4MDQ4NzgwNDg3Nzk2Ii8+JiN4YTs8cmVjdCByeD0iMCIgaGVpZ2h0PSI0Ljg3NzU2MDk3NTYwOTc1NTUiIHdpZHRoPSI0Ljg3NzU2MDk3NTYwOTc1NTUiIHk9IjkuNzY1MTIxOTUxMjE5NTEiIHg9IjQ4Ljc4NTYwOTc1NjA5NzU1Ii8+JiN4YTs8cmVjdCByeD0iMCIgaGVpZ2h0PSI0Ljg3NzU2MDk3NTYwOTc1NTUiIHdpZHRoPSI0Ljg3NzU2MDk3NTYwOTc1NTUiIHk9IjkuNzY1MTIxOTUxMjE5NTEiIHg9IjU4LjU0MDczMTcwNzMxNzA2NSIvPiYjeGE7PHJlY3Qgcng9IjAiIGhlaWdodD0iNC44Nzc1NjA5NzU2MDk3NTU1IiB3aWR0aD0iNC44Nzc1NjA5NzU2MDk3NTU1IiB5PSI5Ljc2NTEyMTk1MTIxOTUxIiB4PSI2OC4yOTU4NTM2NTg1MzY1OSIvPiYjeGE7PHJlY3Qgcng9IjAiIGhlaWdodD0iNC44Nzc1NjA5NzU2MDk3NTU1IiB3aWR0aD0iNC44Nzc1NjA5NzU2MDk3NTU1IiB5PSI5Ljc2NTEyMTk1MTIxOTUxIiB4PSI5Mi42ODM2NTg1MzY1ODUzNiIvPiYjeGE7PHJlY3Qgcng9IjAiIGhlaWdodD0iNC44Nzc1NjA5NzU2MDk3NTU1IiB3aWR0aD0iNC44Nzc1NjA5NzU2MDk3NTU1IiB5PSI5Ljc2NTEyMTk1MTIxOTUxIiB4PSIxMDIuNDM4NzgwNDg3ODA0ODgiLz4mI3hhOzxyZWN0IHJ4PSIwIiBoZWlnaHQ9IjQuODc3NTYwOTc1NjA5NzU1NSIgd2lkdGg9IjQuODc3NTYwOTc1NjA5NzU1NSIgeT0iOS43NjUxMjE5NTEyMTk1MSIgeD0iMTA3LjMxNjM0MTQ2MzQxNDYzIi8+JiN4YTs8cmVjdCByeD0iMCIgaGVpZ2h0PSI0Ljg3NzU2MDk3NTYwOTc1NTUiIHdpZHRoPSI0Ljg3NzU2MDk3NTYwOTc1NTUiIHk9IjkuNzY1MTIxOTUxMjE5NTEiIHg9IjExNy4wNzE0NjM0MTQ2MzQxNCIvPiYjeGE7PHJlY3Qgcng9IjAiIGhlaWdodD0iNC44Nzc1NjA5NzU2MDk3NTU1IiB3aWR0aD0iNC44Nzc1NjA5NzU2MDk3NTU1IiB5PSI5Ljc2NTEyMTk1MTIxOTUxIiB4PSIxMjYuODI2NTg1MzY1ODUzNjUiLz4mI3hhOzxyZWN0IHJ4PSIwIiBoZWlnaHQ9IjQuODc3NTYwOTc1NjA5NzU1NSIgd2lkdGg9IjQuODc3NTYwOTc1NjA5NzU1NSIgeT0iOS43NjUxMjE5NTEyMTk1MSIgeD0iMTMxLjcwNDE0NjM0MTQ2MzQiLz4mI3hhOzxyZWN0IHJ4PSIwIiBoZWlnaHQ9IjQuODc3NTYwOTc1NjA5NzU1NSIgd2lkdGg9IjQuODc3NTYwOTc1NjA5NzU1NSIgeT0iOS43NjUxMjE5NTEyMTk1MSIgeD0iMTQxLjQ1OTI2ODI5MjY4MjkiLz4mI3hhOzxyZWN0IHJ4PSIwIiBoZWlnaHQ9IjQuODc3NTYwOTc1NjA5NzU1NSIgd2lkdGg9IjQuODc3NTYwOTc1NjA5NzU1NSIgeT0iOS43NjUxMjE5NTEyMTk1MSIgeD0iMTQ2LjMzNjgyOTI2ODI5MjY2Ii8+JiN4YTs8cmVjdCByeD0iMCIgaGVpZ2h0PSI0Ljg3NzU2MDk3NTYwOTc1NTUiIHdpZHRoPSI0Ljg3NzU2MDk3NTYwOTc1NTUiIHk9IjkuNzY1MTIxOTUxMjE5NTEiIHg9IjE1MS4yMTQzOTAyNDM5MDI0MSIvPiYjeGE7PHJlY3Qgcng9IjAiIGhlaWdodD0iNC44Nzc1NjA5NzU2MDk3NTU1IiB3aWR0aD0iNC44Nzc1NjA5NzU2MDk3NTU1IiB5PSIxNC42NDI2ODI5MjY4MjkyNjYiIHg9IjQzLjkwODA0ODc4MDQ4Nzc5NiIvPiYjeGE7PHJlY3Qgcng9IjAiIGhlaWdodD0iNC44Nzc1NjA5NzU2MDk3NTU1IiB3aWR0aD0iNC44Nzc1NjA5NzU2MDk3NTU1IiB5PSIxNC42NDI2ODI5MjY4MjkyNjYiIHg9IjQ4Ljc4NTYwOTc1NjA5NzU1Ii8+JiN4YTs8cmVjdCByeD0iMCIgaGVpZ2h0PSI0Ljg3NzU2MDk3NTYwOTc1NTUiIHdpZHRoPSI0Ljg3NzU2MDk3NTYwOTc1NTUiIHk9IjE0LjY0MjY4MjkyNjgyOTI2NiIgeD0iNTMuNjYzMTcwNzMxNzA3MzEiLz4mI3hhOzxyZWN0IHJ4PSIwIiBoZWlnaHQ9IjQuODc3NTYwOTc1NjA5NzU1NSIgd2lkdGg9IjQuODc3NTYwOTc1NjA5NzU1NSIgeT0iMTQuNjQyNjgyOTI2ODI5MjY2IiB4PSI1OC41NDA3MzE3MDczMTcwNjUiLz4mI3hhOzxyZWN0IHJ4PSIwIiBoZWlnaHQ9IjQuODc3NTYwOTc1NjA5NzU1NSIgd2lkdGg9IjQuODc3NTYwOTc1NjA5NzU1NSIgeT0iMTQuNjQyNjgyOTI2ODI5MjY2IiB4PSI2My40MTgyOTI2ODI5MjY4MiIvPiYjeGE7PHJlY3Qgcng9IjAiIGhlaWdodD0iNC44Nzc1NjA5NzU2MDk3NTU1IiB3aWR0aD0iNC44Nzc1NjA5NzU2MDk3NTU1IiB5PSIxNC42NDI2ODI5MjY4MjkyNjYiIHg9IjczLjE3MzQxNDYzNDE0NjM0Ii8+JiN4YTs8cmVjdCByeD0iMCIgaGVpZ2h0PSI0Ljg3NzU2MDk3NTYwOTc1NTUiIHdpZHRoPSI0Ljg3NzU2MDk3NTYwOTc1NTUiIHk9IjE0LjY0MjY4MjkyNjgyOTI2NiIgeD0iNzguMDUwOTc1NjA5NzU2MSIvPiYjeGE7PHJlY3Qgcng9IjAiIGhlaWdodD0iNC44Nzc1NjA5NzU2MDk3NTU1IiB3aWR0aD0iNC44Nzc1NjA5NzU2MDk3NTU1IiB5PSIxNC42NDI2ODI5MjY4MjkyNjYiIHg9IjgyLjkyODUzNjU4NTM2NTg1Ii8+JiN4YTs8cmVjdCByeD0iMCIgaGVpZ2h0PSI0Ljg3NzU2MDk3NTYwOTc1NTUiIHdpZHRoPSI0Ljg3NzU2MDk3NTYwOTc1NTUiIHk9IjE0LjY0MjY4MjkyNjgyOTI2NiIgeD0iODcuODA2MDk3NTYwOTc1NiIvPiYjeGE7PHJlY3Qgcng9IjAiIGhlaWdodD0iNC44Nzc1NjA5NzU2MDk3NTU1IiB3aWR0aD0iNC44Nzc1NjA5NzU2MDk3NTU1IiB5PSIxNC42NDI2ODI5MjY4MjkyNjYiIHg9IjkyLjY4MzY1ODUzNjU4NTM2Ii8+JiN4YTs8cmVjdCByeD0iMCIgaGVpZ2h0PSI0Ljg3NzU2MDk3NTYwOTc1NTUiIHdpZHRoPSI0Ljg3NzU2MDk3NTYwOTc1NTUiIHk9IjE0LjY0MjY4MjkyNjgyOTI2NiIgeD0iMTAyLjQzODc4MDQ4NzgwNDg4Ii8+JiN4YTs8cmVjdCByeD0iMCIgaGVpZ2h0PSI0Ljg3NzU2MDk3NTYwOTc1NTUiIHdpZHRoPSI0Ljg3NzU2MDk3NTYwOTc1NTUiIHk9IjE0LjY0MjY4MjkyNjgyOTI2NiIgeD0iMTEyLjE5MzkwMjQzOTAyNDM4Ii8+JiN4YTs8cmVjdCByeD0iMCIgaGVpZ2h0PSI0Ljg3NzU2MDk3NTYwOTc1NTUiIHdpZHRoPSI0Ljg3NzU2MDk3NTYwOTc1NTUiIHk9IjE0LjY0MjY4MjkyNjgyOTI2NiIgeD0iMTMxLjcwNDE0NjM0MTQ2MzQiLz4mI3hhOzxyZWN0IHJ4PSIwIiBoZWlnaHQ9IjQuODc3NTYwOTc1NjA5NzU1NSIgd2lkdGg9IjQuODc3NTYwOTc1NjA5NzU1NSIgeT0iMTQuNjQyNjgyOTI2ODI5MjY2IiB4PSIxMzYuNTgxNzA3MzE3MDczMTUiLz4mI3hhOzxyZWN0IHJ4PSIwIiBoZWlnaHQ9IjQuODc3NTYwOTc1NjA5NzU1NSIgd2lkdGg9IjQuODc3NTYwOTc1NjA5NzU1NSIgeT0iMTQuNjQyNjgyOTI2ODI5MjY2IiB4PSIxNTYuMDkxOTUxMjE5NTEyMTciLz4mI3hhOzxyZWN0IHJ4PSIwIiBoZWlnaHQ9IjQuODc3NTYwOTc1NjA5NzU1NSIgd2lkdGg9IjQuODc3NTYwOTc1NjA5NzU1NSIgeT0iMTkuNTIwMjQzOTAyNDM5MDI0IiB4PSI0My45MDgwNDg3ODA0ODc3OTYiLz4mI3hhOzxyZWN0IHJ4PSIwIiBoZWlnaHQ9IjQuODc3NTYwOTc1NjA5NzU1NSIgd2lkdGg9IjQuODc3NTYwOTc1NjA5NzU1NSIgeT0iMTkuNTIwMjQzOTAyNDM5MDI0IiB4PSI1OC41NDA3MzE3MDczMTcwNjUiLz4mI3hhOzxyZWN0IHJ4PSIwIiBoZWlnaHQ9IjQuODc3NTYwOTc1NjA5NzU1NSIgd2lkdGg9IjQuODc3NTYwOTc1NjA5NzU1NSIgeT0iMTkuNTIwMjQzOTAyNDM5MDI0IiB4PSI2OC4yOTU4NTM2NTg1MzY1OSIvPiYjeGE7PHJlY3Qgcng9IjAiIGhlaWdodD0iNC44Nzc1NjA5NzU2MDk3NTU1IiB3aWR0aD0iNC44Nzc1NjA5NzU2MDk3NTU1IiB5PSIxOS41MjAyNDM5MDI0MzkwMjQiIHg9IjgyLjkyODUzNjU4NTM2NTg1Ii8+JiN4YTs8cmVjdCByeD0iMCIgaGVpZ2h0PSI0Ljg3NzU2MDk3NTYwOTc1NTUiIHdpZHRoPSI0Ljg3NzU2MDk3NTYwOTc1NTUiIHk9IjE5LjUyMDI0MzkwMjQzOTAyNCIgeD0iODcuODA2MDk3NTYwOTc1NiIvPiYjeGE7PHJlY3Qgcng9IjAiIGhlaWdodD0iNC44Nzc1NjA5NzU2MDk3NTU1IiB3aWR0aD0iNC44Nzc1NjA5NzU2MDk3NTU1IiB5PSIxOS41MjAyNDM5MDI0MzkwMjQiIHg9IjEyNi44MjY1ODUzNjU4NTM2NSIvPiYjeGE7PHJlY3Qgcng9IjAiIGhlaWdodD0iNC44Nzc1NjA5NzU2MDk3NTU1IiB3aWR0aD0iNC44Nzc1NjA5NzU2MDk3NTU1IiB5PSIxOS41MjAyNDM5MDI0MzkwMjQiIHg9IjEzNi41ODE3MDczMTcwNzMxNSIvPiYjeGE7PHJlY3Qgcng9IjAiIGhlaWdodD0iNC44Nzc1NjA5NzU2MDk3NTU1IiB3aWR0aD0iNC44Nzc1NjA5NzU2MDk3NTU1IiB5PSIxOS41MjAyNDM5MDI0MzkwMjQiIHg9IjE0Ni4zMzY4MjkyNjgyOTI2NiIvPiYjeGE7PHJlY3Qgcng9IjAiIGhlaWdodD0iNC44Nzc1NjA5NzU2MDk3NTU1IiB3aWR0aD0iNC44Nzc1NjA5NzU2MDk3NTU1IiB5PSIxOS41MjAyNDM5MDI0MzkwMjQiIHg9IjE1MS4yMTQzOTAyNDM5MDI0MSIvPiYjeGE7PHJlY3Qgcng9IjAiIGhlaWdodD0iNC44Nzc1NjA5NzU2MDk3NTU1IiB3aWR0aD0iNC44Nzc1NjA5NzU2MDk3NTU1IiB5PSIxOS41MjAyNDM5MDI0MzkwMjQiIHg9IjE1Ni4wOTE5NTEyMTk1MTIxNyIvPiYjeGE7PHJlY3Qgcng9IjAiIGhlaWdodD0iNC44Nzc1NjA5NzU2MDk3NTU1IiB3aWR0aD0iNC44Nzc1NjA5NzU2MDk3NTU1IiB5PSIyNC4zOTc4MDQ4NzgwNDg3NzgiIHg9IjM5LjAzMDQ4NzgwNDg3ODA0Ii8+JiN4YTs8cmVjdCByeD0iMCIgaGVpZ2h0PSI0Ljg3NzU2MDk3NTYwOTc1NTUiIHdpZHRoPSI0Ljg3NzU2MDk3NTYwOTc1NTUiIHk9IjI0LjM5NzgwNDg3ODA0ODc3OCIgeD0iNDMuOTA4MDQ4NzgwNDg3Nzk2Ii8+JiN4YTs8cmVjdCByeD0iMCIgaGVpZ2h0PSI0Ljg3NzU2MDk3NTYwOTc1NTUiIHdpZHRoPSI0Ljg3NzU2MDk3NTYwOTc1NTUiIHk9IjI0LjM5NzgwNDg3ODA0ODc3OCIgeD0iNDguNzg1NjA5NzU2MDk3NTUiLz4mI3hhOzxyZWN0IHJ4PSIwIiBoZWlnaHQ9IjQuODc3NTYwOTc1NjA5NzU1NSIgd2lkdGg9IjQuODc3NTYwOTc1NjA5NzU1NSIgeT0iMjQuMzk3ODA0ODc4MDQ4Nzc4IiB4PSI1OC41NDA3MzE3MDczMTcwNjUiLz4mI3hhOzxyZWN0IHJ4PSIwIiBoZWlnaHQ9IjQuODc3NTYwOTc1NjA5NzU1NSIgd2lkdGg9IjQuODc3NTYwOTc1NjA5NzU1NSIgeT0iMjQuMzk3ODA0ODc4MDQ4Nzc4IiB4PSI2My40MTgyOTI2ODI5MjY4MiIvPiYjeGE7PHJlY3Qgcng9IjAiIGhlaWdodD0iNC44Nzc1NjA5NzU2MDk3NTU1IiB3aWR0aD0iNC44Nzc1NjA5NzU2MDk3NTU1IiB5PSIyNC4zOTc4MDQ4NzgwNDg3NzgiIHg9Ijc4LjA1MDk3NTYwOTc1NjEiLz4mI3hhOzxyZWN0IHJ4PSIwIiBoZWlnaHQ9IjQuODc3NTYwOTc1NjA5NzU1NSIgd2lkdGg9IjQuODc3NTYwOTc1NjA5NzU1NSIgeT0iMjQuMzk3ODA0ODc4MDQ4Nzc4IiB4PSI4Ny44MDYwOTc1NjA5NzU2Ii8+JiN4YTs8cmVjdCByeD0iMCIgaGVpZ2h0PSI0Ljg3NzU2MDk3NTYwOTc1NTUiIHdpZHRoPSI0Ljg3NzU2MDk3NTYwOTc1NTUiIHk9IjI0LjM5NzgwNDg3ODA0ODc3OCIgeD0iOTcuNTYxMjE5NTEyMTk1MTEiLz4mI3hhOzxyZWN0IHJ4PSIwIiBoZWlnaHQ9IjQuODc3NTYwOTc1NjA5NzU1NSIgd2lkdGg9IjQuODc3NTYwOTc1NjA5NzU1NSIgeT0iMjQuMzk3ODA0ODc4MDQ4Nzc4IiB4PSIxMDIuNDM4NzgwNDg3ODA0ODgiLz4mI3hhOzxyZWN0IHJ4PSIwIiBoZWlnaHQ9IjQuODc3NTYwOTc1NjA5NzU1NSIgd2lkdGg9IjQuODc3NTYwOTc1NjA5NzU1NSIgeT0iMjQuMzk3ODA0ODc4MDQ4Nzc4IiB4PSIxMTcuMDcxNDYzNDE0NjM0MTQiLz4mI3hhOzxyZWN0IHJ4PSIwIiBoZWlnaHQ9IjQuODc3NTYwOTc1NjA5NzU1NSIgd2lkdGg9IjQuODc3NTYwOTc1NjA5NzU1NSIgeT0iMjQuMzk3ODA0ODc4MDQ4Nzc4IiB4PSIxMjEuOTQ5MDI0MzkwMjQzODkiLz4mI3hhOzxyZWN0IHJ4PSIwIiBoZWlnaHQ9IjQuODc3NTYwOTc1NjA5NzU1NSIgd2lkdGg9IjQuODc3NTYwOTc1NjA5NzU1NSIgeT0iMjQuMzk3ODA0ODc4MDQ4Nzc4IiB4PSIxMzEuNzA0MTQ2MzQxNDYzNCIvPiYjeGE7PHJlY3Qgcng9IjAiIGhlaWdodD0iNC44Nzc1NjA5NzU2MDk3NTU1IiB3aWR0aD0iNC44Nzc1NjA5NzU2MDk3NTU1IiB5PSIyNC4zOTc4MDQ4NzgwNDg3NzgiIHg9IjEzNi41ODE3MDczMTcwNzMxNSIvPiYjeGE7PHJlY3Qgcng9IjAiIGhlaWdodD0iNC44Nzc1NjA5NzU2MDk3NTU1IiB3aWR0aD0iNC44Nzc1NjA5NzU2MDk3NTU1IiB5PSIyNC4zOTc4MDQ4NzgwNDg3NzgiIHg9IjE0MS40NTkyNjgyOTI2ODI5Ii8+JiN4YTs8cmVjdCByeD0iMCIgaGVpZ2h0PSI0Ljg3NzU2MDk3NTYwOTc1NTUiIHdpZHRoPSI0Ljg3NzU2MDk3NTYwOTc1NTUiIHk9IjI0LjM5NzgwNDg3ODA0ODc3OCIgeD0iMTU2LjA5MTk1MTIxOTUxMjE3Ii8+JiN4YTs8cmVjdCByeD0iMCIgaGVpZ2h0PSI0Ljg3NzU2MDk3NTYwOTc1NTUiIHdpZHRoPSI0Ljg3NzU2MDk3NTYwOTc1NTUiIHk9IjI5LjI3NTM2NTg1MzY1ODUzNSIgeD0iMzkuMDMwNDg3ODA0ODc4MDQiLz4mI3hhOzxyZWN0IHJ4PSIwIiBoZWlnaHQ9IjQuODc3NTYwOTc1NjA5NzU1NSIgd2lkdGg9IjQuODc3NTYwOTc1NjA5NzU1NSIgeT0iMjkuMjc1MzY1ODUzNjU4NTM1IiB4PSI0OC43ODU2MDk3NTYwOTc1NSIvPiYjeGE7PHJlY3Qgcng9IjAiIGhlaWdodD0iNC44Nzc1NjA5NzU2MDk3NTU1IiB3aWR0aD0iNC44Nzc1NjA5NzU2MDk3NTU1IiB5PSIyOS4yNzUzNjU4NTM2NTg1MzUiIHg9IjU4LjU0MDczMTcwNzMxNzA2NSIvPiYjeGE7PHJlY3Qgcng9IjAiIGhlaWdodD0iNC44Nzc1NjA5NzU2MDk3NTU1IiB3aWR0aD0iNC44Nzc1NjA5NzU2MDk3NTU1IiB5PSIyOS4yNzUzNjU4NTM2NTg1MzUiIHg9IjY4LjI5NTg1MzY1ODUzNjU5Ii8+JiN4YTs8cmVjdCByeD0iMCIgaGVpZ2h0PSI0Ljg3NzU2MDk3NTYwOTc1NTUiIHdpZHRoPSI0Ljg3NzU2MDk3NTYwOTc1NTUiIHk9IjI5LjI3NTM2NTg1MzY1ODUzNSIgeD0iNzguMDUwOTc1NjA5NzU2MSIvPiYjeGE7PHJlY3Qgcng9IjAiIGhlaWdodD0iNC44Nzc1NjA5NzU2MDk3NTU1IiB3aWR0aD0iNC44Nzc1NjA5NzU2MDk3NTU1IiB5PSIyOS4yNzUzNjU4NTM2NTg1MzUiIHg9Ijg3LjgwNjA5NzU2MDk3NTYiLz4mI3hhOzxyZWN0IHJ4PSIwIiBoZWlnaHQ9IjQuODc3NTYwOTc1NjA5NzU1NSIgd2lkdGg9IjQuODc3NTYwOTc1NjA5NzU1NSIgeT0iMjkuMjc1MzY1ODUzNjU4NTM1IiB4PSI5Ny41NjEyMTk1MTIxOTUxMSIvPiYjeGE7PHJlY3Qgcng9IjAiIGhlaWdodD0iNC44Nzc1NjA5NzU2MDk3NTU1IiB3aWR0aD0iNC44Nzc1NjA5NzU2MDk3NTU1IiB5PSIyOS4yNzUzNjU4NTM2NTg1MzUiIHg9IjEwNy4zMTYzNDE0NjM0MTQ2MyIvPiYjeGE7PHJlY3Qgcng9IjAiIGhlaWdodD0iNC44Nzc1NjA5NzU2MDk3NTU1IiB3aWR0aD0iNC44Nzc1NjA5NzU2MDk3NTU1IiB5PSIyOS4yNzUzNjU4NTM2NTg1MzUiIHg9IjExNy4wNzE0NjM0MTQ2MzQxNCIvPiYjeGE7PHJlY3Qgcng9IjAiIGhlaWdodD0iNC44Nzc1NjA5NzU2MDk3NTU1IiB3aWR0aD0iNC44Nzc1NjA5NzU2MDk3NTU1IiB5PSIyOS4yNzUzNjU4NTM2NTg1MzUiIHg9IjEyNi44MjY1ODUzNjU4NTM2NSIvPiYjeGE7PHJlY3Qgcng9IjAiIGhlaWdodD0iNC44Nzc1NjA5NzU2MDk3NTU1IiB3aWR0aD0iNC44Nzc1NjA5NzU2MDk3NTU1IiB5PSIyOS4yNzUzNjU4NTM2NTg1MzUiIHg9IjEzNi41ODE3MDczMTcwNzMxNSIvPiYjeGE7PHJlY3Qgcng9IjAiIGhlaWdodD0iNC44Nzc1NjA5NzU2MDk3NTU1IiB3aWR0aD0iNC44Nzc1NjA5NzU2MDk3NTU1IiB5PSIyOS4yNzUzNjU4NTM2NTg1MzUiIHg9IjE0Ni4zMzY4MjkyNjgyOTI2NiIvPiYjeGE7PHJlY3Qgcng9IjAiIGhlaWdodD0iNC44Nzc1NjA5NzU2MDk3NTU1IiB3aWR0aD0iNC44Nzc1NjA5NzU2MDk3NTU1IiB5PSIyOS4yNzUzNjU4NTM2NTg1MzUiIHg9IjE1Ni4wOTE5NTEyMTk1MTIxNyIvPiYjeGE7PHJlY3Qgcng9IjAiIGhlaWdodD0iNC44Nzc1NjA5NzU2MDk3NTU1IiB3aWR0aD0iNC44Nzc1NjA5NzU2MDk3NTU1IiB5PSIzNC4xNTI5MjY4MjkyNjgyOSIgeD0iMzkuMDMwNDg3ODA0ODc4MDQiLz4mI3hhOzxyZWN0IHJ4PSIwIiBoZWlnaHQ9IjQuODc3NTYwOTc1NjA5NzU1NSIgd2lkdGg9IjQuODc3NTYwOTc1NjA5NzU1NSIgeT0iMzQuMTUyOTI2ODI5MjY4MjkiIHg9IjQzLjkwODA0ODc4MDQ4Nzc5NiIvPiYjeGE7PHJlY3Qgcng9IjAiIGhlaWdodD0iNC44Nzc1NjA5NzU2MDk3NTU1IiB3aWR0aD0iNC44Nzc1NjA5NzU2MDk3NTU1IiB5PSIzNC4xNTI5MjY4MjkyNjgyOSIgeD0iNDguNzg1NjA5NzU2MDk3NTUiLz4mI3hhOzxyZWN0IHJ4PSIwIiBoZWlnaHQ9IjQuODc3NTYwOTc1NjA5NzU1NSIgd2lkdGg9IjQuODc3NTYwOTc1NjA5NzU1NSIgeT0iMzQuMTUyOTI2ODI5MjY4MjkiIHg9IjU4LjU0MDczMTcwNzMxNzA2NSIvPiYjeGE7PHJlY3Qgcng9IjAiIGhlaWdodD0iNC44Nzc1NjA5NzU2MDk3NTU1IiB3aWR0aD0iNC44Nzc1NjA5NzU2MDk3NTU1IiB5PSIzNC4xNTI5MjY4MjkyNjgyOSIgeD0iNjMuNDE4MjkyNjgyOTI2ODIiLz4mI3hhOzxyZWN0IHJ4PSIwIiBoZWlnaHQ9IjQuODc3NTYwOTc1NjA5NzU1NSIgd2lkdGg9IjQuODc3NTYwOTc1NjA5NzU1NSIgeT0iMzQuMTUyOTI2ODI5MjY4MjkiIHg9IjY4LjI5NTg1MzY1ODUzNjU5Ii8+JiN4YTs8cmVjdCByeD0iMCIgaGVpZ2h0PSI0Ljg3NzU2MDk3NTYwOTc1NTUiIHdpZHRoPSI0Ljg3NzU2MDk3NTYwOTc1NTUiIHk9IjM0LjE1MjkyNjgyOTI2ODI5IiB4PSI3My4xNzM0MTQ2MzQxNDYzNCIvPiYjeGE7PHJlY3Qgcng9IjAiIGhlaWdodD0iNC44Nzc1NjA5NzU2MDk3NTU1IiB3aWR0aD0iNC44Nzc1NjA5NzU2MDk3NTU1IiB5PSIzNC4xNTI5MjY4MjkyNjgyOSIgeD0iNzguMDUwOTc1NjA5NzU2MSIvPiYjeGE7PHJlY3Qgcng9IjAiIGhlaWdodD0iNC44Nzc1NjA5NzU2MDk3NTU1IiB3aWR0aD0iNC44Nzc1NjA5NzU2MDk3NTU1IiB5PSIzNC4xNTI5MjY4MjkyNjgyOSIgeD0iODcuODA2MDk3NTYwOTc1NiIvPiYjeGE7PHJlY3Qgcng9IjAiIGhlaWdodD0iNC44Nzc1NjA5NzU2MDk3NTU1IiB3aWR0aD0iNC44Nzc1NjA5NzU2MDk3NTU1IiB5PSIzNC4xNTI5MjY4MjkyNjgyOSIgeD0iOTIuNjgzNjU4NTM2NTg1MzYiLz4mI3hhOzxyZWN0IHJ4PSIwIiBoZWlnaHQ9IjQuODc3NTYwOTc1NjA5NzU1NSIgd2lkdGg9IjQuODc3NTYwOTc1NjA5NzU1NSIgeT0iMzQuMTUyOTI2ODI5MjY4MjkiIHg9IjExMi4xOTM5MDI0MzkwMjQzOCIvPiYjeGE7PHJlY3Qgcng9IjAiIGhlaWdodD0iNC44Nzc1NjA5NzU2MDk3NTU1IiB3aWR0aD0iNC44Nzc1NjA5NzU2MDk3NTU1IiB5PSIzNC4xNTI5MjY4MjkyNjgyOSIgeD0iMTMxLjcwNDE0NjM0MTQ2MzQiLz4mI3hhOzxyZWN0IHJ4PSIwIiBoZWlnaHQ9IjQuODc3NTYwOTc1NjA5NzU1NSIgd2lkdGg9IjQuODc3NTYwOTc1NjA5NzU1NSIgeT0iMzQuMTUyOTI2ODI5MjY4MjkiIHg9IjEzNi41ODE3MDczMTcwNzMxNSIvPiYjeGE7PHJlY3Qgcng9IjAiIGhlaWdodD0iNC44Nzc1NjA5NzU2MDk3NTU1IiB3aWR0aD0iNC44Nzc1NjA5NzU2MDk3NTU1IiB5PSIzNC4xNTI5MjY4MjkyNjgyOSIgeD0iMTUxLjIxNDM5MDI0MzkwMjQxIi8+JiN4YTs8cmVjdCByeD0iMCIgaGVpZ2h0PSI0Ljg3NzU2MDk3NTYwOTc1NTUiIHdpZHRoPSI0Ljg3NzU2MDk3NTYwOTc1NTUiIHk9IjM5LjAzMDQ4NzgwNDg3ODA0IiB4PSI5Ljc2NTEyMTk1MTIxOTUxIi8+JiN4YTs8cmVjdCByeD0iMCIgaGVpZ2h0PSI0Ljg3NzU2MDk3NTYwOTc1NTUiIHdpZHRoPSI0Ljg3NzU2MDk3NTYwOTc1NTUiIHk9IjM5LjAzMDQ4NzgwNDg3ODA0IiB4PSIxNC42NDI2ODI5MjY4MjkyNjYiLz4mI3hhOzxyZWN0IHJ4PSIwIiBoZWlnaHQ9IjQuODc3NTYwOTc1NjA5NzU1NSIgd2lkdGg9IjQuODc3NTYwOTc1NjA5NzU1NSIgeT0iMzkuMDMwNDg3ODA0ODc4MDQiIHg9IjE5LjUyMDI0MzkwMjQzOTAyNCIvPiYjeGE7PHJlY3Qgcng9IjAiIGhlaWdodD0iNC44Nzc1NjA5NzU2MDk3NTU1IiB3aWR0aD0iNC44Nzc1NjA5NzU2MDk3NTU1IiB5PSIzOS4wMzA0ODc4MDQ4NzgwNCIgeD0iMjkuMjc1MzY1ODUzNjU4NTM1Ii8+JiN4YTs8cmVjdCByeD0iMCIgaGVpZ2h0PSI0Ljg3NzU2MDk3NTYwOTc1NTUiIHdpZHRoPSI0Ljg3NzU2MDk3NTYwOTc1NTUiIHk9IjM5LjAzMDQ4NzgwNDg3ODA0IiB4PSIzOS4wMzA0ODc4MDQ4NzgwNCIvPiYjeGE7PHJlY3Qgcng9IjAiIGhlaWdodD0iNC44Nzc1NjA5NzU2MDk3NTU1IiB3aWR0aD0iNC44Nzc1NjA5NzU2MDk3NTU1IiB5PSIzOS4wMzA0ODc4MDQ4NzgwNCIgeD0iNDMuOTA4MDQ4NzgwNDg3Nzk2Ii8+JiN4YTs8cmVjdCByeD0iMCIgaGVpZ2h0PSI0Ljg3NzU2MDk3NTYwOTc1NTUiIHdpZHRoPSI0Ljg3NzU2MDk3NTYwOTc1NTUiIHk9IjM5LjAzMDQ4NzgwNDg3ODA0IiB4PSI1My42NjMxNzA3MzE3MDczMSIvPiYjeGE7PHJlY3Qgcng9IjAiIGhlaWdodD0iNC44Nzc1NjA5NzU2MDk3NTU1IiB3aWR0aD0iNC44Nzc1NjA5NzU2MDk3NTU1IiB5PSIzOS4wMzA0ODc4MDQ4NzgwNCIgeD0iNjMuNDE4MjkyNjgyOTI2ODIiLz4mI3hhOzxyZWN0IHJ4PSIwIiBoZWlnaHQ9IjQuODc3NTYwOTc1NjA5NzU1NSIgd2lkdGg9IjQuODc3NTYwOTc1NjA5NzU1NSIgeT0iMzkuMDMwNDg3ODA0ODc4MDQiIHg9IjgyLjkyODUzNjU4NTM2NTg1Ii8+JiN4YTs8cmVjdCByeD0iMCIgaGVpZ2h0PSI0Ljg3NzU2MDk3NTYwOTc1NTUiIHdpZHRoPSI0Ljg3NzU2MDk3NTYwOTc1NTUiIHk9IjM5LjAzMDQ4NzgwNDg3ODA0IiB4PSIxMDIuNDM4NzgwNDg3ODA0ODgiLz4mI3hhOzxyZWN0IHJ4PSIwIiBoZWlnaHQ9IjQuODc3NTYwOTc1NjA5NzU1NSIgd2lkdGg9IjQuODc3NTYwOTc1NjA5NzU1NSIgeT0iMzkuMDMwNDg3ODA0ODc4MDQiIHg9IjEwNy4zMTYzNDE0NjM0MTQ2MyIvPiYjeGE7PHJlY3Qgcng9IjAiIGhlaWdodD0iNC44Nzc1NjA5NzU2MDk3NTU1IiB3aWR0aD0iNC44Nzc1NjA5NzU2MDk3NTU1IiB5PSIzOS4wMzA0ODc4MDQ4NzgwNCIgeD0iMTEyLjE5MzkwMjQzOTAyNDM4Ii8+JiN4YTs8cmVjdCByeD0iMCIgaGVpZ2h0PSI0Ljg3NzU2MDk3NTYwOTc1NTUiIHdpZHRoPSI0Ljg3NzU2MDk3NTYwOTc1NTUiIHk9IjM5LjAzMDQ4NzgwNDg3ODA0IiB4PSIxMTcuMDcxNDYzNDE0NjM0MTQiLz4mI3hhOzxyZWN0IHJ4PSIwIiBoZWlnaHQ9IjQuODc3NTYwOTc1NjA5NzU1NSIgd2lkdGg9IjQuODc3NTYwOTc1NjA5NzU1NSIgeT0iMzkuMDMwNDg3ODA0ODc4MDQiIHg9IjEzMS43MDQxNDYzNDE0NjM0Ii8+JiN4YTs8cmVjdCByeD0iMCIgaGVpZ2h0PSI0Ljg3NzU2MDk3NTYwOTc1NTUiIHdpZHRoPSI0Ljg3NzU2MDk3NTYwOTc1NTUiIHk9IjM5LjAzMDQ4NzgwNDg3ODA0IiB4PSIxNDEuNDU5MjY4MjkyNjgyOSIvPiYjeGE7PHJlY3Qgcng9IjAiIGhlaWdodD0iNC44Nzc1NjA5NzU2MDk3NTU1IiB3aWR0aD0iNC44Nzc1NjA5NzU2MDk3NTU1IiB5PSIzOS4wMzA0ODc4MDQ4NzgwNCIgeD0iMTYwLjk2OTUxMjE5NTEyMTkyIi8+JiN4YTs8cmVjdCByeD0iMCIgaGVpZ2h0PSI0Ljg3NzU2MDk3NTYwOTc1NTUiIHdpZHRoPSI0Ljg3NzU2MDk3NTYwOTc1NTUiIHk9IjM5LjAzMDQ4NzgwNDg3ODA0IiB4PSIxNjUuODQ3MDczMTcwNzMxNjgiLz4mI3hhOzxyZWN0IHJ4PSIwIiBoZWlnaHQ9IjQuODc3NTYwOTc1NjA5NzU1NSIgd2lkdGg9IjQuODc3NTYwOTc1NjA5NzU1NSIgeT0iMzkuMDMwNDg3ODA0ODc4MDQiIHg9IjE3MC43MjQ2MzQxNDYzNDE0MyIvPiYjeGE7PHJlY3Qgcng9IjAiIGhlaWdodD0iNC44Nzc1NjA5NzU2MDk3NTU1IiB3aWR0aD0iNC44Nzc1NjA5NzU2MDk3NTU1IiB5PSIzOS4wMzA0ODc4MDQ4NzgwNCIgeD0iMTg1LjM1NzMxNzA3MzE3MDciLz4mI3hhOzxyZWN0IHJ4PSIwIiBoZWlnaHQ9IjQuODc3NTYwOTc1NjA5NzU1NSIgd2lkdGg9IjQuODc3NTYwOTc1NjA5NzU1NSIgeT0iMzkuMDMwNDg3ODA0ODc4MDQiIHg9IjE5MC4yMzQ4NzgwNDg3ODA0NCIvPiYjeGE7PHJlY3Qgcng9IjAiIGhlaWdodD0iNC44Nzc1NjA5NzU2MDk3NTU1IiB3aWR0aD0iNC44Nzc1NjA5NzU2MDk3NTU1IiB5PSIzOS4wMzA0ODc4MDQ4NzgwNCIgeD0iMTk1LjExMjQzOTAyNDM5MDIiLz4mI3hhOzxyZWN0IHJ4PSIwIiBoZWlnaHQ9IjQuODc3NTYwOTc1NjA5NzU1NSIgd2lkdGg9IjQuODc3NTYwOTc1NjA5NzU1NSIgeT0iNDMuOTA4MDQ4NzgwNDg3Nzk2IiB4PSIxOS41MjAyNDM5MDI0MzkwMjQiLz4mI3hhOzxyZWN0IHJ4PSIwIiBoZWlnaHQ9IjQuODc3NTYwOTc1NjA5NzU1NSIgd2lkdGg9IjQuODc3NTYwOTc1NjA5NzU1NSIgeT0iNDMuOTA4MDQ4NzgwNDg3Nzk2IiB4PSIzNC4xNTI5MjY4MjkyNjgyOSIvPiYjeGE7PHJlY3Qgcng9IjAiIGhlaWdodD0iNC44Nzc1NjA5NzU2MDk3NTU1IiB3aWR0aD0iNC44Nzc1NjA5NzU2MDk3NTU1IiB5PSI0My45MDgwNDg3ODA0ODc3OTYiIHg9IjM5LjAzMDQ4NzgwNDg3ODA0Ii8+JiN4YTs8cmVjdCByeD0iMCIgaGVpZ2h0PSI0Ljg3NzU2MDk3NTYwOTc1NTUiIHdpZHRoPSI0Ljg3NzU2MDk3NTYwOTc1NTUiIHk9IjQzLjkwODA0ODc4MDQ4Nzc5NiIgeD0iNTMuNjYzMTcwNzMxNzA3MzEiLz4mI3hhOzxyZWN0IHJ4PSIwIiBoZWlnaHQ9IjQuODc3NTYwOTc1NjA5NzU1NSIgd2lkdGg9IjQuODc3NTYwOTc1NjA5NzU1NSIgeT0iNDMuOTA4MDQ4NzgwNDg3Nzk2IiB4PSI4Ny44MDYwOTc1NjA5NzU2Ii8+JiN4YTs8cmVjdCByeD0iMCIgaGVpZ2h0PSI0Ljg3NzU2MDk3NTYwOTc1NTUiIHdpZHRoPSI0Ljg3NzU2MDk3NTYwOTc1NTUiIHk9IjQzLjkwODA0ODc4MDQ4Nzc5NiIgeD0iOTcuNTYxMjE5NTEyMTk1MTEiLz4mI3hhOzxyZWN0IHJ4PSIwIiBoZWlnaHQ9IjQuODc3NTYwOTc1NjA5NzU1NSIgd2lkdGg9IjQuODc3NTYwOTc1NjA5NzU1NSIgeT0iNDMuOTA4MDQ4NzgwNDg3Nzk2IiB4PSIxMDcuMzE2MzQxNDYzNDE0NjMiLz4mI3hhOzxyZWN0IHJ4PSIwIiBoZWlnaHQ9IjQuODc3NTYwOTc1NjA5NzU1NSIgd2lkdGg9IjQuODc3NTYwOTc1NjA5NzU1NSIgeT0iNDMuOTA4MDQ4NzgwNDg3Nzk2IiB4PSIxMjEuOTQ5MDI0MzkwMjQzODkiLz4mI3hhOzxyZWN0IHJ4PSIwIiBoZWlnaHQ9IjQuODc3NTYwOTc1NjA5NzU1NSIgd2lkdGg9IjQuODc3NTYwOTc1NjA5NzU1NSIgeT0iNDMuOTA4MDQ4NzgwNDg3Nzk2IiB4PSIxMzYuNTgxNzA3MzE3MDczMTUiLz4mI3hhOzxyZWN0IHJ4PSIwIiBoZWlnaHQ9IjQuODc3NTYwOTc1NjA5NzU1NSIgd2lkdGg9IjQuODc3NTYwOTc1NjA5NzU1NSIgeT0iNDMuOTA4MDQ4NzgwNDg3Nzk2IiB4PSIxNDYuMzM2ODI5MjY4MjkyNjYiLz4mI3hhOzxyZWN0IHJ4PSIwIiBoZWlnaHQ9IjQuODc3NTYwOTc1NjA5NzU1NSIgd2lkdGg9IjQuODc3NTYwOTc1NjA5NzU1NSIgeT0iNDMuOTA4MDQ4NzgwNDg3Nzk2IiB4PSIxNTEuMjE0MzkwMjQzOTAyNDEiLz4mI3hhOzxyZWN0IHJ4PSIwIiBoZWlnaHQ9IjQuODc3NTYwOTc1NjA5NzU1NSIgd2lkdGg9IjQuODc3NTYwOTc1NjA5NzU1NSIgeT0iNDMuOTA4MDQ4NzgwNDg3Nzk2IiB4PSIxNTYuMDkxOTUxMjE5NTEyMTciLz4mI3hhOzxyZWN0IHJ4PSIwIiBoZWlnaHQ9IjQuODc3NTYwOTc1NjA5NzU1NSIgd2lkdGg9IjQuODc3NTYwOTc1NjA5NzU1NSIgeT0iNDMuOTA4MDQ4NzgwNDg3Nzk2IiB4PSIxNjAuOTY5NTEyMTk1MTIxOTIiLz4mI3hhOzxyZWN0IHJ4PSIwIiBoZWlnaHQ9IjQuODc3NTYwOTc1NjA5NzU1NSIgd2lkdGg9IjQuODc3NTYwOTc1NjA5NzU1NSIgeT0iNDMuOTA4MDQ4NzgwNDg3Nzk2IiB4PSIxNjUuODQ3MDczMTcwNzMxNjgiLz4mI3hhOzxyZWN0IHJ4PSIwIiBoZWlnaHQ9IjQuODc3NTYwOTc1NjA5NzU1NSIgd2lkdGg9IjQuODc3NTYwOTc1NjA5NzU1NSIgeT0iNDMuOTA4MDQ4NzgwNDg3Nzk2IiB4PSIxNzAuNzI0NjM0MTQ2MzQxNDMiLz4mI3hhOzxyZWN0IHJ4PSIwIiBoZWlnaHQ9IjQuODc3NTYwOTc1NjA5NzU1NSIgd2lkdGg9IjQuODc3NTYwOTc1NjA5NzU1NSIgeT0iNDMuOTA4MDQ4NzgwNDg3Nzk2IiB4PSIxNzUuNjAyMTk1MTIxOTUxMTgiLz4mI3hhOzxyZWN0IHJ4PSIwIiBoZWlnaHQ9IjQuODc3NTYwOTc1NjA5NzU1NSIgd2lkdGg9IjQuODc3NTYwOTc1NjA5NzU1NSIgeT0iNDMuOTA4MDQ4NzgwNDg3Nzk2IiB4PSIxODUuMzU3MzE3MDczMTcwNyIvPiYjeGE7PHJlY3Qgcng9IjAiIGhlaWdodD0iNC44Nzc1NjA5NzU2MDk3NTU1IiB3aWR0aD0iNC44Nzc1NjA5NzU2MDk3NTU1IiB5PSI0My45MDgwNDg3ODA0ODc3OTYiIHg9IjE5MC4yMzQ4NzgwNDg3ODA0NCIvPiYjeGE7PHJlY3Qgcng9IjAiIGhlaWdodD0iNC44Nzc1NjA5NzU2MDk3NTU1IiB3aWR0aD0iNC44Nzc1NjA5NzU2MDk3NTU1IiB5PSI0My45MDgwNDg3ODA0ODc3OTYiIHg9IjE5NS4xMTI0MzkwMjQzOTAyIi8+JiN4YTs8cmVjdCByeD0iMCIgaGVpZ2h0PSI0Ljg3NzU2MDk3NTYwOTc1NTUiIHdpZHRoPSI0Ljg3NzU2MDk3NTYwOTc1NTUiIHk9IjQ4Ljc4NTYwOTc1NjA5NzU1IiB4PSIwLjAxIi8+JiN4YTs8cmVjdCByeD0iMCIgaGVpZ2h0PSI0Ljg3NzU2MDk3NTYwOTc1NTUiIHdpZHRoPSI0Ljg3NzU2MDk3NTYwOTc1NTUiIHk9IjQ4Ljc4NTYwOTc1NjA5NzU1IiB4PSI0Ljg4NzU2MDk3NTYwOTc1NSIvPiYjeGE7PHJlY3Qgcng9IjAiIGhlaWdodD0iNC44Nzc1NjA5NzU2MDk3NTU1IiB3aWR0aD0iNC44Nzc1NjA5NzU2MDk3NTU1IiB5PSI0OC43ODU2MDk3NTYwOTc1NSIgeD0iMTkuNTIwMjQzOTAyNDM5MDI0Ii8+JiN4YTs8cmVjdCByeD0iMCIgaGVpZ2h0PSI0Ljg3NzU2MDk3NTYwOTc1NTUiIHdpZHRoPSI0Ljg3NzU2MDk3NTYwOTc1NTUiIHk9IjQ4Ljc4NTYwOTc1NjA5NzU1IiB4PSIyNC4zOTc4MDQ4NzgwNDg3NzgiLz4mI3hhOzxyZWN0IHJ4PSIwIiBoZWlnaHQ9IjQuODc3NTYwOTc1NjA5NzU1NSIgd2lkdGg9IjQuODc3NTYwOTc1NjA5NzU1NSIgeT0iNDguNzg1NjA5NzU2MDk3NTUiIHg9IjI5LjI3NTM2NTg1MzY1ODUzNSIvPiYjeGE7PHJlY3Qgcng9IjAiIGhlaWdodD0iNC44Nzc1NjA5NzU2MDk3NTU1IiB3aWR0aD0iNC44Nzc1NjA5NzU2MDk3NTU1IiB5PSI0OC43ODU2MDk3NTYwOTc1NSIgeD0iMzQuMTUyOTI2ODI5MjY4MjkiLz4mI3hhOzxyZWN0IHJ4PSIwIiBoZWlnaHQ9IjQuODc3NTYwOTc1NjA5NzU1NSIgd2lkdGg9IjQuODc3NTYwOTc1NjA5NzU1NSIgeT0iNDguNzg1NjA5NzU2MDk3NTUiIHg9IjQzLjkwODA0ODc4MDQ4Nzc5NiIvPiYjeGE7PHJlY3Qgcng9IjAiIGhlaWdodD0iNC44Nzc1NjA5NzU2MDk3NTU1IiB3aWR0aD0iNC44Nzc1NjA5NzU2MDk3NTU1IiB5PSI0OC43ODU2MDk3NTYwOTc1NSIgeD0iNjMuNDE4MjkyNjgyOTI2ODIiLz4mI3hhOzxyZWN0IHJ4PSIwIiBoZWlnaHQ9IjQuODc3NTYwOTc1NjA5NzU1NSIgd2lkdGg9IjQuODc3NTYwOTc1NjA5NzU1NSIgeT0iNDguNzg1NjA5NzU2MDk3NTUiIHg9IjgyLjkyODUzNjU4NTM2NTg1Ii8+JiN4YTs8cmVjdCByeD0iMCIgaGVpZ2h0PSI0Ljg3NzU2MDk3NTYwOTc1NTUiIHdpZHRoPSI0Ljg3NzU2MDk3NTYwOTc1NTUiIHk9IjQ4Ljc4NTYwOTc1NjA5NzU1IiB4PSI5Ny41NjEyMTk1MTIxOTUxMSIvPiYjeGE7PHJlY3Qgcng9IjAiIGhlaWdodD0iNC44Nzc1NjA5NzU2MDk3NTU1IiB3aWR0aD0iNC44Nzc1NjA5NzU2MDk3NTU1IiB5PSI0OC43ODU2MDk3NTYwOTc1NSIgeD0iMTAyLjQzODc4MDQ4NzgwNDg4Ii8+JiN4YTs8cmVjdCByeD0iMCIgaGVpZ2h0PSI0Ljg3NzU2MDk3NTYwOTc1NTUiIHdpZHRoPSI0Ljg3NzU2MDk3NTYwOTc1NTUiIHk9IjQ4Ljc4NTYwOTc1NjA5NzU1IiB4PSIxMTIuMTkzOTAyNDM5MDI0MzgiLz4mI3hhOzxyZWN0IHJ4PSIwIiBoZWlnaHQ9IjQuODc3NTYwOTc1NjA5NzU1NSIgd2lkdGg9IjQuODc3NTYwOTc1NjA5NzU1NSIgeT0iNDguNzg1NjA5NzU2MDk3NTUiIHg9IjExNy4wNzE0NjM0MTQ2MzQxNCIvPiYjeGE7PHJlY3Qgcng9IjAiIGhlaWdodD0iNC44Nzc1NjA5NzU2MDk3NTU1IiB3aWR0aD0iNC44Nzc1NjA5NzU2MDk3NTU1IiB5PSI0OC43ODU2MDk3NTYwOTc1NSIgeD0iMTIxLjk0OTAyNDM5MDI0Mzg5Ii8+JiN4YTs8cmVjdCByeD0iMCIgaGVpZ2h0PSI0Ljg3NzU2MDk3NTYwOTc1NTUiIHdpZHRoPSI0Ljg3NzU2MDk3NTYwOTc1NTUiIHk9IjQ4Ljc4NTYwOTc1NjA5NzU1IiB4PSIxMjYuODI2NTg1MzY1ODUzNjUiLz4mI3hhOzxyZWN0IHJ4PSIwIiBoZWlnaHQ9IjQuODc3NTYwOTc1NjA5NzU1NSIgd2lkdGg9IjQuODc3NTYwOTc1NjA5NzU1NSIgeT0iNDguNzg1NjA5NzU2MDk3NTUiIHg9IjEzMS43MDQxNDYzNDE0NjM0Ii8+JiN4YTs8cmVjdCByeD0iMCIgaGVpZ2h0PSI0Ljg3NzU2MDk3NTYwOTc1NTUiIHdpZHRoPSI0Ljg3NzU2MDk3NTYwOTc1NTUiIHk9IjQ4Ljc4NTYwOTc1NjA5NzU1IiB4PSIxMzYuNTgxNzA3MzE3MDczMTUiLz4mI3hhOzxyZWN0IHJ4PSIwIiBoZWlnaHQ9IjQuODc3NTYwOTc1NjA5NzU1NSIgd2lkdGg9IjQuODc3NTYwOTc1NjA5NzU1NSIgeT0iNDguNzg1NjA5NzU2MDk3NTUiIHg9IjE0MS40NTkyNjgyOTI2ODI5Ii8+JiN4YTs8cmVjdCByeD0iMCIgaGVpZ2h0PSI0Ljg3NzU2MDk3NTYwOTc1NTUiIHdpZHRoPSI0Ljg3NzU2MDk3NTYwOTc1NTUiIHk9IjQ4Ljc4NTYwOTc1NjA5NzU1IiB4PSIxNDYuMzM2ODI5MjY4MjkyNjYiLz4mI3hhOzxyZWN0IHJ4PSIwIiBoZWlnaHQ9IjQuODc3NTYwOTc1NjA5NzU1NSIgd2lkdGg9IjQuODc3NTYwOTc1NjA5NzU1NSIgeT0iNDguNzg1NjA5NzU2MDk3NTUiIHg9IjE1Ni4wOTE5NTEyMTk1MTIxNyIvPiYjeGE7PHJlY3Qgcng9IjAiIGhlaWdodD0iNC44Nzc1NjA5NzU2MDk3NTU1IiB3aWR0aD0iNC44Nzc1NjA5NzU2MDk3NTU1IiB5PSI0OC43ODU2MDk3NTYwOTc1NSIgeD0iMTY1Ljg0NzA3MzE3MDczMTY4Ii8+JiN4YTs8cmVjdCByeD0iMCIgaGVpZ2h0PSI0Ljg3NzU2MDk3NTYwOTc1NTUiIHdpZHRoPSI0Ljg3NzU2MDk3NTYwOTc1NTUiIHk9IjQ4Ljc4NTYwOTc1NjA5NzU1IiB4PSIxOTAuMjM0ODc4MDQ4NzgwNDQiLz4mI3hhOzxyZWN0IHJ4PSIwIiBoZWlnaHQ9IjQuODc3NTYwOTc1NjA5NzU1NSIgd2lkdGg9IjQuODc3NTYwOTc1NjA5NzU1NSIgeT0iNTMuNjYzMTcwNzMxNzA3MzEiIHg9IjQuODg3NTYwOTc1NjA5NzU1Ii8+JiN4YTs8cmVjdCByeD0iMCIgaGVpZ2h0PSI0Ljg3NzU2MDk3NTYwOTc1NTUiIHdpZHRoPSI0Ljg3NzU2MDk3NTYwOTc1NTUiIHk9IjUzLjY2MzE3MDczMTcwNzMxIiB4PSI5Ljc2NTEyMTk1MTIxOTUxIi8+JiN4YTs8cmVjdCByeD0iMCIgaGVpZ2h0PSI0Ljg3NzU2MDk3NTYwOTc1NTUiIHdpZHRoPSI0Ljg3NzU2MDk3NTYwOTc1NTUiIHk9IjUzLjY2MzE3MDczMTcwNzMxIiB4PSIxNC42NDI2ODI5MjY4MjkyNjYiLz4mI3hhOzxyZWN0IHJ4PSIwIiBoZWlnaHQ9IjQuODc3NTYwOTc1NjA5NzU1NSIgd2lkdGg9IjQuODc3NTYwOTc1NjA5NzU1NSIgeT0iNTMuNjYzMTcwNzMxNzA3MzEiIHg9IjE5LjUyMDI0MzkwMjQzOTAyNCIvPiYjeGE7PHJlY3Qgcng9IjAiIGhlaWdodD0iNC44Nzc1NjA5NzU2MDk3NTU1IiB3aWR0aD0iNC44Nzc1NjA5NzU2MDk3NTU1IiB5PSI1My42NjMxNzA3MzE3MDczMSIgeD0iMzQuMTUyOTI2ODI5MjY4MjkiLz4mI3hhOzxyZWN0IHJ4PSIwIiBoZWlnaHQ9IjQuODc3NTYwOTc1NjA5NzU1NSIgd2lkdGg9IjQuODc3NTYwOTc1NjA5NzU1NSIgeT0iNTMuNjYzMTcwNzMxNzA3MzEiIHg9IjM5LjAzMDQ4NzgwNDg3ODA0Ii8+JiN4YTs8cmVjdCByeD0iMCIgaGVpZ2h0PSI0Ljg3NzU2MDk3NTYwOTc1NTUiIHdpZHRoPSI0Ljg3NzU2MDk3NTYwOTc1NTUiIHk9IjUzLjY2MzE3MDczMTcwNzMxIiB4PSI0OC43ODU2MDk3NTYwOTc1NSIvPiYjeGE7PHJlY3Qgcng9IjAiIGhlaWdodD0iNC44Nzc1NjA5NzU2MDk3NTU1IiB3aWR0aD0iNC44Nzc1NjA5NzU2MDk3NTU1IiB5PSI1My42NjMxNzA3MzE3MDczMSIgeD0iNjMuNDE4MjkyNjgyOTI2ODIiLz4mI3hhOzxyZWN0IHJ4PSIwIiBoZWlnaHQ9IjQuODc3NTYwOTc1NjA5NzU1NSIgd2lkdGg9IjQuODc3NTYwOTc1NjA5NzU1NSIgeT0iNTMuNjYzMTcwNzMxNzA3MzEiIHg9IjczLjE3MzQxNDYzNDE0NjM0Ii8+JiN4YTs8cmVjdCByeD0iMCIgaGVpZ2h0PSI0Ljg3NzU2MDk3NTYwOTc1NTUiIHdpZHRoPSI0Ljg3NzU2MDk3NTYwOTc1NTUiIHk9IjUzLjY2MzE3MDczMTcwNzMxIiB4PSI4Ny44MDYwOTc1NjA5NzU2Ii8+JiN4YTs8cmVjdCByeD0iMCIgaGVpZ2h0PSI0Ljg3NzU2MDk3NTYwOTc1NTUiIHdpZHRoPSI0Ljg3NzU2MDk3NTYwOTc1NTUiIHk9IjUzLjY2MzE3MDczMTcwNzMxIiB4PSI5Ny41NjEyMTk1MTIxOTUxMSIvPiYjeGE7PHJlY3Qgcng9IjAiIGhlaWdodD0iNC44Nzc1NjA5NzU2MDk3NTU1IiB3aWR0aD0iNC44Nzc1NjA5NzU2MDk3NTU1IiB5PSI1My42NjMxNzA3MzE3MDczMSIgeD0iMTE3LjA3MTQ2MzQxNDYzNDE0Ii8+JiN4YTs8cmVjdCByeD0iMCIgaGVpZ2h0PSI0Ljg3NzU2MDk3NTYwOTc1NTUiIHdpZHRoPSI0Ljg3NzU2MDk3NTYwOTc1NTUiIHk9IjUzLjY2MzE3MDczMTcwNzMxIiB4PSIxMjEuOTQ5MDI0MzkwMjQzODkiLz4mI3hhOzxyZWN0IHJ4PSIwIiBoZWlnaHQ9IjQuODc3NTYwOTc1NjA5NzU1NSIgd2lkdGg9IjQuODc3NTYwOTc1NjA5NzU1NSIgeT0iNTMuNjYzMTcwNzMxNzA3MzEiIHg9IjEzMS43MDQxNDYzNDE0NjM0Ii8+JiN4YTs8cmVjdCByeD0iMCIgaGVpZ2h0PSI0Ljg3NzU2MDk3NTYwOTc1NTUiIHdpZHRoPSI0Ljg3NzU2MDk3NTYwOTc1NTUiIHk9IjUzLjY2MzE3MDczMTcwNzMxIiB4PSIxMzYuNTgxNzA3MzE3MDczMTUiLz4mI3hhOzxyZWN0IHJ4PSIwIiBoZWlnaHQ9IjQuODc3NTYwOTc1NjA5NzU1NSIgd2lkdGg9IjQuODc3NTYwOTc1NjA5NzU1NSIgeT0iNTMuNjYzMTcwNzMxNzA3MzEiIHg9IjE1MS4yMTQzOTAyNDM5MDI0MSIvPiYjeGE7PHJlY3Qgcng9IjAiIGhlaWdodD0iNC44Nzc1NjA5NzU2MDk3NTU1IiB3aWR0aD0iNC44Nzc1NjA5NzU2MDk3NTU1IiB5PSI1My42NjMxNzA3MzE3MDczMSIgeD0iMTU2LjA5MTk1MTIxOTUxMjE3Ii8+JiN4YTs8cmVjdCByeD0iMCIgaGVpZ2h0PSI0Ljg3NzU2MDk3NTYwOTc1NTUiIHdpZHRoPSI0Ljg3NzU2MDk3NTYwOTc1NTUiIHk9IjUzLjY2MzE3MDczMTcwNzMxIiB4PSIxNzAuNzI0NjM0MTQ2MzQxNDMiLz4mI3hhOzxyZWN0IHJ4PSIwIiBoZWlnaHQ9IjQuODc3NTYwOTc1NjA5NzU1NSIgd2lkdGg9IjQuODc3NTYwOTc1NjA5NzU1NSIgeT0iNTMuNjYzMTcwNzMxNzA3MzEiIHg9IjE3NS42MDIxOTUxMjE5NTExOCIvPiYjeGE7PHJlY3Qgcng9IjAiIGhlaWdodD0iNC44Nzc1NjA5NzU2MDk3NTU1IiB3aWR0aD0iNC44Nzc1NjA5NzU2MDk3NTU1IiB5PSI1My42NjMxNzA3MzE3MDczMSIgeD0iMTgwLjQ3OTc1NjA5NzU2MDk0Ii8+JiN4YTs8cmVjdCByeD0iMCIgaGVpZ2h0PSI0Ljg3NzU2MDk3NTYwOTc1NTUiIHdpZHRoPSI0Ljg3NzU2MDk3NTYwOTc1NTUiIHk9IjU4LjU0MDczMTcwNzMxNzA2NSIgeD0iNC44ODc1NjA5NzU2MDk3NTUiLz4mI3hhOzxyZWN0IHJ4PSIwIiBoZWlnaHQ9IjQuODc3NTYwOTc1NjA5NzU1NSIgd2lkdGg9IjQuODc3NTYwOTc1NjA5NzU1NSIgeT0iNTguNTQwNzMxNzA3MzE3MDY1IiB4PSI5Ljc2NTEyMTk1MTIxOTUxIi8+JiN4YTs8cmVjdCByeD0iMCIgaGVpZ2h0PSI0Ljg3NzU2MDk3NTYwOTc1NTUiIHdpZHRoPSI0Ljg3NzU2MDk3NTYwOTc1NTUiIHk9IjU4LjU0MDczMTcwNzMxNzA2NSIgeD0iMTkuNTIwMjQzOTAyNDM5MDI0Ii8+JiN4YTs8cmVjdCByeD0iMCIgaGVpZ2h0PSI0Ljg3NzU2MDk3NTYwOTc1NTUiIHdpZHRoPSI0Ljg3NzU2MDk3NTYwOTc1NTUiIHk9IjU4LjU0MDczMTcwNzMxNzA2NSIgeD0iMjkuMjc1MzY1ODUzNjU4NTM1Ii8+JiN4YTs8cmVjdCByeD0iMCIgaGVpZ2h0PSI0Ljg3NzU2MDk3NTYwOTc1NTUiIHdpZHRoPSI0Ljg3NzU2MDk3NTYwOTc1NTUiIHk9IjU4LjU0MDczMTcwNzMxNzA2NSIgeD0iMzQuMTUyOTI2ODI5MjY4MjkiLz4mI3hhOzxyZWN0IHJ4PSIwIiBoZWlnaHQ9IjQuODc3NTYwOTc1NjA5NzU1NSIgd2lkdGg9IjQuODc3NTYwOTc1NjA5NzU1NSIgeT0iNTguNTQwNzMxNzA3MzE3MDY1IiB4PSI0My45MDgwNDg3ODA0ODc3OTYiLz4mI3hhOzxyZWN0IHJ4PSIwIiBoZWlnaHQ9IjQuODc3NTYwOTc1NjA5NzU1NSIgd2lkdGg9IjQuODc3NTYwOTc1NjA5NzU1NSIgeT0iNTguNTQwNzMxNzA3MzE3MDY1IiB4PSI1My42NjMxNzA3MzE3MDczMSIvPiYjeGE7PHJlY3Qgcng9IjAiIGhlaWdodD0iNC44Nzc1NjA5NzU2MDk3NTU1IiB3aWR0aD0iNC44Nzc1NjA5NzU2MDk3NTU1IiB5PSI1OC41NDA3MzE3MDczMTcwNjUiIHg9IjY4LjI5NTg1MzY1ODUzNjU5Ii8+JiN4YTs8cmVjdCByeD0iMCIgaGVpZ2h0PSI0Ljg3NzU2MDk3NTYwOTc1NTUiIHdpZHRoPSI0Ljg3NzU2MDk3NTYwOTc1NTUiIHk9IjU4LjU0MDczMTcwNzMxNzA2NSIgeD0iNzMuMTczNDE0NjM0MTQ2MzQiLz4mI3hhOzxyZWN0IHJ4PSIwIiBoZWlnaHQ9IjQuODc3NTYwOTc1NjA5NzU1NSIgd2lkdGg9IjQuODc3NTYwOTc1NjA5NzU1NSIgeT0iNTguNTQwNzMxNzA3MzE3MDY1IiB4PSI4Mi45Mjg1MzY1ODUzNjU4NSIvPiYjeGE7PHJlY3Qgcng9IjAiIGhlaWdodD0iNC44Nzc1NjA5NzU2MDk3NTU1IiB3aWR0aD0iNC44Nzc1NjA5NzU2MDk3NTU1IiB5PSI1OC41NDA3MzE3MDczMTcwNjUiIHg9Ijg3LjgwNjA5NzU2MDk3NTYiLz4mI3hhOzxyZWN0IHJ4PSIwIiBoZWlnaHQ9IjQuODc3NTYwOTc1NjA5NzU1NSIgd2lkdGg9IjQuODc3NTYwOTc1NjA5NzU1NSIgeT0iNTguNTQwNzMxNzA3MzE3MDY1IiB4PSI5Mi42ODM2NTg1MzY1ODUzNiIvPiYjeGE7PHJlY3Qgcng9IjAiIGhlaWdodD0iNC44Nzc1NjA5NzU2MDk3NTU1IiB3aWR0aD0iNC44Nzc1NjA5NzU2MDk3NTU1IiB5PSI1OC41NDA3MzE3MDczMTcwNjUiIHg9Ijk3LjU2MTIxOTUxMjE5NTExIi8+JiN4YTs8cmVjdCByeD0iMCIgaGVpZ2h0PSI0Ljg3NzU2MDk3NTYwOTc1NTUiIHdpZHRoPSI0Ljg3NzU2MDk3NTYwOTc1NTUiIHk9IjU4LjU0MDczMTcwNzMxNzA2NSIgeD0iMTAyLjQzODc4MDQ4NzgwNDg4Ii8+JiN4YTs8cmVjdCByeD0iMCIgaGVpZ2h0PSI0Ljg3NzU2MDk3NTYwOTc1NTUiIHdpZHRoPSI0Ljg3NzU2MDk3NTYwOTc1NTUiIHk9IjU4LjU0MDczMTcwNzMxNzA2NSIgeD0iMTE3LjA3MTQ2MzQxNDYzNDE0Ii8+JiN4YTs8cmVjdCByeD0iMCIgaGVpZ2h0PSI0Ljg3NzU2MDk3NTYwOTc1NTUiIHdpZHRoPSI0Ljg3NzU2MDk3NTYwOTc1NTUiIHk9IjU4LjU0MDczMTcwNzMxNzA2NSIgeD0iMTMxLjcwNDE0NjM0MTQ2MzQiLz4mI3hhOzxyZWN0IHJ4PSIwIiBoZWlnaHQ9IjQuODc3NTYwOTc1NjA5NzU1NSIgd2lkdGg9IjQuODc3NTYwOTc1NjA5NzU1NSIgeT0iNTguNTQwNzMxNzA3MzE3MDY1IiB4PSIxNDEuNDU5MjY4MjkyNjgyOSIvPiYjeGE7PHJlY3Qgcng9IjAiIGhlaWdodD0iNC44Nzc1NjA5NzU2MDk3NTU1IiB3aWR0aD0iNC44Nzc1NjA5NzU2MDk3NTU1IiB5PSI1OC41NDA3MzE3MDczMTcwNjUiIHg9IjE0Ni4zMzY4MjkyNjgyOTI2NiIvPiYjeGE7PHJlY3Qgcng9IjAiIGhlaWdodD0iNC44Nzc1NjA5NzU2MDk3NTU1IiB3aWR0aD0iNC44Nzc1NjA5NzU2MDk3NTU1IiB5PSI1OC41NDA3MzE3MDczMTcwNjUiIHg9IjE1MS4yMTQzOTAyNDM5MDI0MSIvPiYjeGE7PHJlY3Qgcng9IjAiIGhlaWdodD0iNC44Nzc1NjA5NzU2MDk3NTU1IiB3aWR0aD0iNC44Nzc1NjA5NzU2MDk3NTU1IiB5PSI1OC41NDA3MzE3MDczMTcwNjUiIHg9IjE1Ni4wOTE5NTEyMTk1MTIxNyIvPiYjeGE7PHJlY3Qgcng9IjAiIGhlaWdodD0iNC44Nzc1NjA5NzU2MDk3NTU1IiB3aWR0aD0iNC44Nzc1NjA5NzU2MDk3NTU1IiB5PSI1OC41NDA3MzE3MDczMTcwNjUiIHg9IjE3MC43MjQ2MzQxNDYzNDE0MyIvPiYjeGE7PHJlY3Qgcng9IjAiIGhlaWdodD0iNC44Nzc1NjA5NzU2MDk3NTU1IiB3aWR0aD0iNC44Nzc1NjA5NzU2MDk3NTU1IiB5PSI1OC41NDA3MzE3MDczMTcwNjUiIHg9IjE4MC40Nzk3NTYwOTc1NjA5NCIvPiYjeGE7PHJlY3Qgcng9IjAiIGhlaWdodD0iNC44Nzc1NjA5NzU2MDk3NTU1IiB3aWR0aD0iNC44Nzc1NjA5NzU2MDk3NTU1IiB5PSI1OC41NDA3MzE3MDczMTcwNjUiIHg9IjE4NS4zNTczMTcwNzMxNzA3Ii8+JiN4YTs8cmVjdCByeD0iMCIgaGVpZ2h0PSI0Ljg3NzU2MDk3NTYwOTc1NTUiIHdpZHRoPSI0Ljg3NzU2MDk3NTYwOTc1NTUiIHk9IjYzLjQxODI5MjY4MjkyNjgyIiB4PSIwLjAxIi8+JiN4YTs8cmVjdCByeD0iMCIgaGVpZ2h0PSI0Ljg3NzU2MDk3NTYwOTc1NTUiIHdpZHRoPSI0Ljg3NzU2MDk3NTYwOTc1NTUiIHk9IjYzLjQxODI5MjY4MjkyNjgyIiB4PSI0Ljg4NzU2MDk3NTYwOTc1NSIvPiYjeGE7PHJlY3Qgcng9IjAiIGhlaWdodD0iNC44Nzc1NjA5NzU2MDk3NTU1IiB3aWR0aD0iNC44Nzc1NjA5NzU2MDk3NTU1IiB5PSI2My40MTgyOTI2ODI5MjY4MiIgeD0iOS43NjUxMjE5NTEyMTk1MSIvPiYjeGE7PHJlY3Qgcng9IjAiIGhlaWdodD0iNC44Nzc1NjA5NzU2MDk3NTU1IiB3aWR0aD0iNC44Nzc1NjA5NzU2MDk3NTU1IiB5PSI2My40MTgyOTI2ODI5MjY4MiIgeD0iMTQuNjQyNjgyOTI2ODI5MjY2Ii8+JiN4YTs8cmVjdCByeD0iMCIgaGVpZ2h0PSI0Ljg3NzU2MDk3NTYwOTc1NTUiIHdpZHRoPSI0Ljg3NzU2MDk3NTYwOTc1NTUiIHk9IjYzLjQxODI5MjY4MjkyNjgyIiB4PSIyNC4zOTc4MDQ4NzgwNDg3NzgiLz4mI3hhOzxyZWN0IHJ4PSIwIiBoZWlnaHQ9IjQuODc3NTYwOTc1NjA5NzU1NSIgd2lkdGg9IjQuODc3NTYwOTc1NjA5NzU1NSIgeT0iNjMuNDE4MjkyNjgyOTI2ODIiIHg9IjM0LjE1MjkyNjgyOTI2ODI5Ii8+JiN4YTs8cmVjdCByeD0iMCIgaGVpZ2h0PSI0Ljg3NzU2MDk3NTYwOTc1NTUiIHdpZHRoPSI0Ljg3NzU2MDk3NTYwOTc1NTUiIHk9IjYzLjQxODI5MjY4MjkyNjgyIiB4PSI0My45MDgwNDg3ODA0ODc3OTYiLz4mI3hhOzxyZWN0IHJ4PSIwIiBoZWlnaHQ9IjQuODc3NTYwOTc1NjA5NzU1NSIgd2lkdGg9IjQuODc3NTYwOTc1NjA5NzU1NSIgeT0iNjMuNDE4MjkyNjgyOTI2ODIiIHg9IjQ4Ljc4NTYwOTc1NjA5NzU1Ii8+JiN4YTs8cmVjdCByeD0iMCIgaGVpZ2h0PSI0Ljg3NzU2MDk3NTYwOTc1NTUiIHdpZHRoPSI0Ljg3NzU2MDk3NTYwOTc1NTUiIHk9IjYzLjQxODI5MjY4MjkyNjgyIiB4PSI1My42NjMxNzA3MzE3MDczMSIvPiYjeGE7PHJlY3Qgcng9IjAiIGhlaWdodD0iNC44Nzc1NjA5NzU2MDk3NTU1IiB3aWR0aD0iNC44Nzc1NjA5NzU2MDk3NTU1IiB5PSI2My40MTgyOTI2ODI5MjY4MiIgeD0iNTguNTQwNzMxNzA3MzE3MDY1Ii8+JiN4YTs8cmVjdCByeD0iMCIgaGVpZ2h0PSI0Ljg3NzU2MDk3NTYwOTc1NTUiIHdpZHRoPSI0Ljg3NzU2MDk3NTYwOTc1NTUiIHk9IjYzLjQxODI5MjY4MjkyNjgyIiB4PSI2OC4yOTU4NTM2NTg1MzY1OSIvPiYjeGE7PHJlY3Qgcng9IjAiIGhlaWdodD0iNC44Nzc1NjA5NzU2MDk3NTU1IiB3aWR0aD0iNC44Nzc1NjA5NzU2MDk3NTU1IiB5PSI2My40MTgyOTI2ODI5MjY4MiIgeD0iNzMuMTczNDE0NjM0MTQ2MzQiLz4mI3hhOzxyZWN0IHJ4PSIwIiBoZWlnaHQ9IjQuODc3NTYwOTc1NjA5NzU1NSIgd2lkdGg9IjQuODc3NTYwOTc1NjA5NzU1NSIgeT0iNjMuNDE4MjkyNjgyOTI2ODIiIHg9Ijg3LjgwNjA5NzU2MDk3NTYiLz4mI3hhOzxyZWN0IHJ4PSIwIiBoZWlnaHQ9IjQuODc3NTYwOTc1NjA5NzU1NSIgd2lkdGg9IjQuODc3NTYwOTc1NjA5NzU1NSIgeT0iNjMuNDE4MjkyNjgyOTI2ODIiIHg9IjkyLjY4MzY1ODUzNjU4NTM2Ii8+JiN4YTs8cmVjdCByeD0iMCIgaGVpZ2h0PSI0Ljg3NzU2MDk3NTYwOTc1NTUiIHdpZHRoPSI0Ljg3NzU2MDk3NTYwOTc1NTUiIHk9IjYzLjQxODI5MjY4MjkyNjgyIiB4PSI5Ny41NjEyMTk1MTIxOTUxMSIvPiYjeGE7PHJlY3Qgcng9IjAiIGhlaWdodD0iNC44Nzc1NjA5NzU2MDk3NTU1IiB3aWR0aD0iNC44Nzc1NjA5NzU2MDk3NTU1IiB5PSI2My40MTgyOTI2ODI5MjY4MiIgeD0iMTE3LjA3MTQ2MzQxNDYzNDE0Ii8+JiN4YTs8cmVjdCByeD0iMCIgaGVpZ2h0PSI0Ljg3NzU2MDk3NTYwOTc1NTUiIHdpZHRoPSI0Ljg3NzU2MDk3NTYwOTc1NTUiIHk9IjYzLjQxODI5MjY4MjkyNjgyIiB4PSIxMzEuNzA0MTQ2MzQxNDYzNCIvPiYjeGE7PHJlY3Qgcng9IjAiIGhlaWdodD0iNC44Nzc1NjA5NzU2MDk3NTU1IiB3aWR0aD0iNC44Nzc1NjA5NzU2MDk3NTU1IiB5PSI2My40MTgyOTI2ODI5MjY4MiIgeD0iMTM2LjU4MTcwNzMxNzA3MzE1Ii8+JiN4YTs8cmVjdCByeD0iMCIgaGVpZ2h0PSI0Ljg3NzU2MDk3NTYwOTc1NTUiIHdpZHRoPSI0Ljg3NzU2MDk3NTYwOTc1NTUiIHk9IjYzLjQxODI5MjY4MjkyNjgyIiB4PSIxNDYuMzM2ODI5MjY4MjkyNjYiLz4mI3hhOzxyZWN0IHJ4PSIwIiBoZWlnaHQ9IjQuODc3NTYwOTc1NjA5NzU1NSIgd2lkdGg9IjQuODc3NTYwOTc1NjA5NzU1NSIgeT0iNjMuNDE4MjkyNjgyOTI2ODIiIHg9IjE2MC45Njk1MTIxOTUxMjE5MiIvPiYjeGE7PHJlY3Qgcng9IjAiIGhlaWdodD0iNC44Nzc1NjA5NzU2MDk3NTU1IiB3aWR0aD0iNC44Nzc1NjA5NzU2MDk3NTU1IiB5PSI2My40MTgyOTI2ODI5MjY4MiIgeD0iMTY1Ljg0NzA3MzE3MDczMTY4Ii8+JiN4YTs8cmVjdCByeD0iMCIgaGVpZ2h0PSI0Ljg3NzU2MDk3NTYwOTc1NTUiIHdpZHRoPSI0Ljg3NzU2MDk3NTYwOTc1NTUiIHk9IjYzLjQxODI5MjY4MjkyNjgyIiB4PSIxNzAuNzI0NjM0MTQ2MzQxNDMiLz4mI3hhOzxyZWN0IHJ4PSIwIiBoZWlnaHQ9IjQuODc3NTYwOTc1NjA5NzU1NSIgd2lkdGg9IjQuODc3NTYwOTc1NjA5NzU1NSIgeT0iNjMuNDE4MjkyNjgyOTI2ODIiIHg9IjE3NS42MDIxOTUxMjE5NTExOCIvPiYjeGE7PHJlY3Qgcng9IjAiIGhlaWdodD0iNC44Nzc1NjA5NzU2MDk3NTU1IiB3aWR0aD0iNC44Nzc1NjA5NzU2MDk3NTU1IiB5PSI2My40MTgyOTI2ODI5MjY4MiIgeD0iMTkwLjIzNDg3ODA0ODc4MDQ0Ii8+JiN4YTs8cmVjdCByeD0iMCIgaGVpZ2h0PSI0Ljg3NzU2MDk3NTYwOTc1NTUiIHdpZHRoPSI0Ljg3NzU2MDk3NTYwOTc1NTUiIHk9IjYzLjQxODI5MjY4MjkyNjgyIiB4PSIxOTUuMTEyNDM5MDI0MzkwMiIvPiYjeGE7PHJlY3Qgcng9IjAiIGhlaWdodD0iNC44Nzc1NjA5NzU2MDk3NTU1IiB3aWR0aD0iNC44Nzc1NjA5NzU2MDk3NTU1IiB5PSI2OC4yOTU4NTM2NTg1MzY1OSIgeD0iOS43NjUxMjE5NTEyMTk1MSIvPiYjeGE7PHJlY3Qgcng9IjAiIGhlaWdodD0iNC44Nzc1NjA5NzU2MDk3NTU1IiB3aWR0aD0iNC44Nzc1NjA5NzU2MDk3NTU1IiB5PSI2OC4yOTU4NTM2NTg1MzY1OSIgeD0iMTkuNTIwMjQzOTAyNDM5MDI0Ii8+JiN4YTs8cmVjdCByeD0iMCIgaGVpZ2h0PSI0Ljg3NzU2MDk3NTYwOTc1NTUiIHdpZHRoPSI0Ljg3NzU2MDk3NTYwOTc1NTUiIHk9IjY4LjI5NTg1MzY1ODUzNjU5IiB4PSIyOS4yNzUzNjU4NTM2NTg1MzUiLz4mI3hhOzxyZWN0IHJ4PSIwIiBoZWlnaHQ9IjQuODc3NTYwOTc1NjA5NzU1NSIgd2lkdGg9IjQuODc3NTYwOTc1NjA5NzU1NSIgeT0iNjguMjk1ODUzNjU4NTM2NTkiIHg9IjM0LjE1MjkyNjgyOTI2ODI5Ii8+JiN4YTs8cmVjdCByeD0iMCIgaGVpZ2h0PSI0Ljg3NzU2MDk3NTYwOTc1NTUiIHdpZHRoPSI0Ljg3NzU2MDk3NTYwOTc1NTUiIHk9IjY4LjI5NTg1MzY1ODUzNjU5IiB4PSI1My42NjMxNzA3MzE3MDczMSIvPiYjeGE7PHJlY3Qgcng9IjAiIGhlaWdodD0iNC44Nzc1NjA5NzU2MDk3NTU1IiB3aWR0aD0iNC44Nzc1NjA5NzU2MDk3NTU1IiB5PSI2OC4yOTU4NTM2NTg1MzY1OSIgeD0iNTguNTQwNzMxNzA3MzE3MDY1Ii8+JiN4YTs8cmVjdCByeD0iMCIgaGVpZ2h0PSI0Ljg3NzU2MDk3NTYwOTc1NTUiIHdpZHRoPSI0Ljg3NzU2MDk3NTYwOTc1NTUiIHk9IjY4LjI5NTg1MzY1ODUzNjU5IiB4PSIxNDEuNDU5MjY4MjkyNjgyOSIvPiYjeGE7PHJlY3Qgcng9IjAiIGhlaWdodD0iNC44Nzc1NjA5NzU2MDk3NTU1IiB3aWR0aD0iNC44Nzc1NjA5NzU2MDk3NTU1IiB5PSI2OC4yOTU4NTM2NTg1MzY1OSIgeD0iMTQ2LjMzNjgyOTI2ODI5MjY2Ii8+JiN4YTs8cmVjdCByeD0iMCIgaGVpZ2h0PSI0Ljg3NzU2MDk3NTYwOTc1NTUiIHdpZHRoPSI0Ljg3NzU2MDk3NTYwOTc1NTUiIHk9IjY4LjI5NTg1MzY1ODUzNjU5IiB4PSIxNTYuMDkxOTUxMjE5NTEyMTciLz4mI3hhOzxyZWN0IHJ4PSIwIiBoZWlnaHQ9IjQuODc3NTYwOTc1NjA5NzU1NSIgd2lkdGg9IjQuODc3NTYwOTc1NjA5NzU1NSIgeT0iNjguMjk1ODUzNjU4NTM2NTkiIHg9IjE2MC45Njk1MTIxOTUxMjE5MiIvPiYjeGE7PHJlY3Qgcng9IjAiIGhlaWdodD0iNC44Nzc1NjA5NzU2MDk3NTU1IiB3aWR0aD0iNC44Nzc1NjA5NzU2MDk3NTU1IiB5PSI2OC4yOTU4NTM2NTg1MzY1OSIgeD0iMTcwLjcyNDYzNDE0NjM0MTQzIi8+JiN4YTs8cmVjdCByeD0iMCIgaGVpZ2h0PSI0Ljg3NzU2MDk3NTYwOTc1NTUiIHdpZHRoPSI0Ljg3NzU2MDk3NTYwOTc1NTUiIHk9IjY4LjI5NTg1MzY1ODUzNjU5IiB4PSIxODAuNDc5NzU2MDk3NTYwOTQiLz4mI3hhOzxyZWN0IHJ4PSIwIiBoZWlnaHQ9IjQuODc3NTYwOTc1NjA5NzU1NSIgd2lkdGg9IjQuODc3NTYwOTc1NjA5NzU1NSIgeT0iNjguMjk1ODUzNjU4NTM2NTkiIHg9IjE4NS4zNTczMTcwNzMxNzA3Ii8+JiN4YTs8cmVjdCByeD0iMCIgaGVpZ2h0PSI0Ljg3NzU2MDk3NTYwOTc1NTUiIHdpZHRoPSI0Ljg3NzU2MDk3NTYwOTc1NTUiIHk9IjczLjE3MzQxNDYzNDE0NjM0IiB4PSIwLjAxIi8+JiN4YTs8cmVjdCByeD0iMCIgaGVpZ2h0PSI0Ljg3NzU2MDk3NTYwOTc1NTUiIHdpZHRoPSI0Ljg3NzU2MDk3NTYwOTc1NTUiIHk9IjczLjE3MzQxNDYzNDE0NjM0IiB4PSI0Ljg4NzU2MDk3NTYwOTc1NSIvPiYjeGE7PHJlY3Qgcng9IjAiIGhlaWdodD0iNC44Nzc1NjA5NzU2MDk3NTU1IiB3aWR0aD0iNC44Nzc1NjA5NzU2MDk3NTU1IiB5PSI3My4xNzM0MTQ2MzQxNDYzNCIgeD0iMTQuNjQyNjgyOTI2ODI5MjY2Ii8+JiN4YTs8cmVjdCByeD0iMCIgaGVpZ2h0PSI0Ljg3NzU2MDk3NTYwOTc1NTUiIHdpZHRoPSI0Ljg3NzU2MDk3NTYwOTc1NTUiIHk9IjczLjE3MzQxNDYzNDE0NjM0IiB4PSI0My45MDgwNDg3ODA0ODc3OTYiLz4mI3hhOzxyZWN0IHJ4PSIwIiBoZWlnaHQ9IjQuODc3NTYwOTc1NjA5NzU1NSIgd2lkdGg9IjQuODc3NTYwOTc1NjA5NzU1NSIgeT0iNzMuMTczNDE0NjM0MTQ2MzQiIHg9IjEzNi41ODE3MDczMTcwNzMxNSIvPiYjeGE7PHJlY3Qgcng9IjAiIGhlaWdodD0iNC44Nzc1NjA5NzU2MDk3NTU1IiB3aWR0aD0iNC44Nzc1NjA5NzU2MDk3NTU1IiB5PSI3My4xNzM0MTQ2MzQxNDYzNCIgeD0iMTY1Ljg0NzA3MzE3MDczMTY4Ii8+JiN4YTs8cmVjdCByeD0iMCIgaGVpZ2h0PSI0Ljg3NzU2MDk3NTYwOTc1NTUiIHdpZHRoPSI0Ljg3NzU2MDk3NTYwOTc1NTUiIHk9IjczLjE3MzQxNDYzNDE0NjM0IiB4PSIxNzAuNzI0NjM0MTQ2MzQxNDMiLz4mI3hhOzxyZWN0IHJ4PSIwIiBoZWlnaHQ9IjQuODc3NTYwOTc1NjA5NzU1NSIgd2lkdGg9IjQuODc3NTYwOTc1NjA5NzU1NSIgeT0iNzMuMTczNDE0NjM0MTQ2MzQiIHg9IjE4MC40Nzk3NTYwOTc1NjA5NCIvPiYjeGE7PHJlY3Qgcng9IjAiIGhlaWdodD0iNC44Nzc1NjA5NzU2MDk3NTU1IiB3aWR0aD0iNC44Nzc1NjA5NzU2MDk3NTU1IiB5PSI3My4xNzM0MTQ2MzQxNDYzNCIgeD0iMTk1LjExMjQzOTAyNDM5MDIiLz4mI3hhOzxyZWN0IHJ4PSIwIiBoZWlnaHQ9IjQuODc3NTYwOTc1NjA5NzU1NSIgd2lkdGg9IjQuODc3NTYwOTc1NjA5NzU1NSIgeT0iNzguMDUwOTc1NjA5NzU2MSIgeD0iNC44ODc1NjA5NzU2MDk3NTUiLz4mI3hhOzxyZWN0IHJ4PSIwIiBoZWlnaHQ9IjQuODc3NTYwOTc1NjA5NzU1NSIgd2lkdGg9IjQuODc3NTYwOTc1NjA5NzU1NSIgeT0iNzguMDUwOTc1NjA5NzU2MSIgeD0iMTQuNjQyNjgyOTI2ODI5MjY2Ii8+JiN4YTs8cmVjdCByeD0iMCIgaGVpZ2h0PSI0Ljg3NzU2MDk3NTYwOTc1NTUiIHdpZHRoPSI0Ljg3NzU2MDk3NTYwOTc1NTUiIHk9Ijc4LjA1MDk3NTYwOTc1NjEiIHg9IjE5LjUyMDI0MzkwMjQzOTAyNCIvPiYjeGE7PHJlY3Qgcng9IjAiIGhlaWdodD0iNC44Nzc1NjA5NzU2MDk3NTU1IiB3aWR0aD0iNC44Nzc1NjA5NzU2MDk3NTU1IiB5PSI3OC4wNTA5NzU2MDk3NTYxIiB4PSIyOS4yNzUzNjU4NTM2NTg1MzUiLz4mI3hhOzxyZWN0IHJ4PSIwIiBoZWlnaHQ9IjQuODc3NTYwOTc1NjA5NzU1NSIgd2lkdGg9IjQuODc3NTYwOTc1NjA5NzU1NSIgeT0iNzguMDUwOTc1NjA5NzU2MSIgeD0iMzkuMDMwNDg3ODA0ODc4MDQiLz4mI3hhOzxyZWN0IHJ4PSIwIiBoZWlnaHQ9IjQuODc3NTYwOTc1NjA5NzU1NSIgd2lkdGg9IjQuODc3NTYwOTc1NjA5NzU1NSIgeT0iNzguMDUwOTc1NjA5NzU2MSIgeD0iNDguNzg1NjA5NzU2MDk3NTUiLz4mI3hhOzxyZWN0IHJ4PSIwIiBoZWlnaHQ9IjQuODc3NTYwOTc1NjA5NzU1NSIgd2lkdGg9IjQuODc3NTYwOTc1NjA5NzU1NSIgeT0iNzguMDUwOTc1NjA5NzU2MSIgeD0iMTM2LjU4MTcwNzMxNzA3MzE1Ii8+JiN4YTs8cmVjdCByeD0iMCIgaGVpZ2h0PSI0Ljg3NzU2MDk3NTYwOTc1NTUiIHdpZHRoPSI0Ljg3NzU2MDk3NTYwOTc1NTUiIHk9Ijc4LjA1MDk3NTYwOTc1NjEiIHg9IjE0MS40NTkyNjgyOTI2ODI5Ii8+JiN4YTs8cmVjdCByeD0iMCIgaGVpZ2h0PSI0Ljg3NzU2MDk3NTYwOTc1NTUiIHdpZHRoPSI0Ljg3NzU2MDk3NTYwOTc1NTUiIHk9Ijc4LjA1MDk3NTYwOTc1NjEiIHg9IjE2MC45Njk1MTIxOTUxMjE5MiIvPiYjeGE7PHJlY3Qgcng9IjAiIGhlaWdodD0iNC44Nzc1NjA5NzU2MDk3NTU1IiB3aWR0aD0iNC44Nzc1NjA5NzU2MDk3NTU1IiB5PSI3OC4wNTA5NzU2MDk3NTYxIiB4PSIxNzAuNzI0NjM0MTQ2MzQxNDMiLz4mI3hhOzxyZWN0IHJ4PSIwIiBoZWlnaHQ9IjQuODc3NTYwOTc1NjA5NzU1NSIgd2lkdGg9IjQuODc3NTYwOTc1NjA5NzU1NSIgeT0iNzguMDUwOTc1NjA5NzU2MSIgeD0iMTg1LjM1NzMxNzA3MzE3MDciLz4mI3hhOzxyZWN0IHJ4PSIwIiBoZWlnaHQ9IjQuODc3NTYwOTc1NjA5NzU1NSIgd2lkdGg9IjQuODc3NTYwOTc1NjA5NzU1NSIgeT0iNzguMDUwOTc1NjA5NzU2MSIgeD0iMTk1LjExMjQzOTAyNDM5MDIiLz4mI3hhOzxyZWN0IHJ4PSIwIiBoZWlnaHQ9IjQuODc3NTYwOTc1NjA5NzU1NSIgd2lkdGg9IjQuODc3NTYwOTc1NjA5NzU1NSIgeT0iODIuOTI4NTM2NTg1MzY1ODUiIHg9IjM0LjE1MjkyNjgyOTI2ODI5Ii8+JiN4YTs8cmVjdCByeD0iMCIgaGVpZ2h0PSI0Ljg3NzU2MDk3NTYwOTc1NTUiIHdpZHRoPSI0Ljg3NzU2MDk3NTYwOTc1NTUiIHk9IjgyLjkyODUzNjU4NTM2NTg1IiB4PSIzOS4wMzA0ODc4MDQ4NzgwNCIvPiYjeGE7PHJlY3Qgcng9IjAiIGhlaWdodD0iNC44Nzc1NjA5NzU2MDk3NTU1IiB3aWR0aD0iNC44Nzc1NjA5NzU2MDk3NTU1IiB5PSI4Mi45Mjg1MzY1ODUzNjU4NSIgeD0iNTguNTQwNzMxNzA3MzE3MDY1Ii8+JiN4YTs8cmVjdCByeD0iMCIgaGVpZ2h0PSI0Ljg3NzU2MDk3NTYwOTc1NTUiIHdpZHRoPSI0Ljg3NzU2MDk3NTYwOTc1NTUiIHk9IjgyLjkyODUzNjU4NTM2NTg1IiB4PSI2My40MTgyOTI2ODI5MjY4MiIvPiYjeGE7PHJlY3Qgcng9IjAiIGhlaWdodD0iNC44Nzc1NjA5NzU2MDk3NTU1IiB3aWR0aD0iNC44Nzc1NjA5NzU2MDk3NTU1IiB5PSI4Mi45Mjg1MzY1ODUzNjU4NSIgeD0iMTQ2LjMzNjgyOTI2ODI5MjY2Ii8+JiN4YTs8cmVjdCByeD0iMCIgaGVpZ2h0PSI0Ljg3NzU2MDk3NTYwOTc1NTUiIHdpZHRoPSI0Ljg3NzU2MDk3NTYwOTc1NTUiIHk9IjgyLjkyODUzNjU4NTM2NTg1IiB4PSIxNTEuMjE0MzkwMjQzOTAyNDEiLz4mI3hhOzxyZWN0IHJ4PSIwIiBoZWlnaHQ9IjQuODc3NTYwOTc1NjA5NzU1NSIgd2lkdGg9IjQuODc3NTYwOTc1NjA5NzU1NSIgeT0iODIuOTI4NTM2NTg1MzY1ODUiIHg9IjE1Ni4wOTE5NTEyMTk1MTIxNyIvPiYjeGE7PHJlY3Qgcng9IjAiIGhlaWdodD0iNC44Nzc1NjA5NzU2MDk3NTU1IiB3aWR0aD0iNC44Nzc1NjA5NzU2MDk3NTU1IiB5PSI4Mi45Mjg1MzY1ODUzNjU4NSIgeD0iMTY1Ljg0NzA3MzE3MDczMTY4Ii8+JiN4YTs8cmVjdCByeD0iMCIgaGVpZ2h0PSI0Ljg3NzU2MDk3NTYwOTc1NTUiIHdpZHRoPSI0Ljg3NzU2MDk3NTYwOTc1NTUiIHk9IjgyLjkyODUzNjU4NTM2NTg1IiB4PSIxNzAuNzI0NjM0MTQ2MzQxNDMiLz4mI3hhOzxyZWN0IHJ4PSIwIiBoZWlnaHQ9IjQuODc3NTYwOTc1NjA5NzU1NSIgd2lkdGg9IjQuODc3NTYwOTc1NjA5NzU1NSIgeT0iODIuOTI4NTM2NTg1MzY1ODUiIHg9IjE3NS42MDIxOTUxMjE5NTExOCIvPiYjeGE7PHJlY3Qgcng9IjAiIGhlaWdodD0iNC44Nzc1NjA5NzU2MDk3NTU1IiB3aWR0aD0iNC44Nzc1NjA5NzU2MDk3NTU1IiB5PSI4Mi45Mjg1MzY1ODUzNjU4NSIgeD0iMTkwLjIzNDg3ODA0ODc4MDQ0Ii8+JiN4YTs8cmVjdCByeD0iMCIgaGVpZ2h0PSI0Ljg3NzU2MDk3NTYwOTc1NTUiIHdpZHRoPSI0Ljg3NzU2MDk3NTYwOTc1NTUiIHk9IjgyLjkyODUzNjU4NTM2NTg1IiB4PSIxOTUuMTEyNDM5MDI0MzkwMiIvPiYjeGE7PHJlY3Qgcng9IjAiIGhlaWdodD0iNC44Nzc1NjA5NzU2MDk3NTU1IiB3aWR0aD0iNC44Nzc1NjA5NzU2MDk3NTU1IiB5PSI4Ny44MDYwOTc1NjA5NzU2IiB4PSIyOS4yNzUzNjU4NTM2NTg1MzUiLz4mI3hhOzxyZWN0IHJ4PSIwIiBoZWlnaHQ9IjQuODc3NTYwOTc1NjA5NzU1NSIgd2lkdGg9IjQuODc3NTYwOTc1NjA5NzU1NSIgeT0iODcuODA2MDk3NTYwOTc1NiIgeD0iMzQuMTUyOTI2ODI5MjY4MjkiLz4mI3hhOzxyZWN0IHJ4PSIwIiBoZWlnaHQ9IjQuODc3NTYwOTc1NjA5NzU1NSIgd2lkdGg9IjQuODc3NTYwOTc1NjA5NzU1NSIgeT0iODcuODA2MDk3NTYwOTc1NiIgeD0iMzkuMDMwNDg3ODA0ODc4MDQiLz4mI3hhOzxyZWN0IHJ4PSIwIiBoZWlnaHQ9IjQuODc3NTYwOTc1NjA5NzU1NSIgd2lkdGg9IjQuODc3NTYwOTc1NjA5NzU1NSIgeT0iODcuODA2MDk3NTYwOTc1NiIgeD0iNTguNTQwNzMxNzA3MzE3MDY1Ii8+JiN4YTs8cmVjdCByeD0iMCIgaGVpZ2h0PSI0Ljg3NzU2MDk3NTYwOTc1NTUiIHdpZHRoPSI0Ljg3NzU2MDk3NTYwOTc1NTUiIHk9Ijg3LjgwNjA5NzU2MDk3NTYiIHg9IjEzMS43MDQxNDYzNDE0NjM0Ii8+JiN4YTs8cmVjdCByeD0iMCIgaGVpZ2h0PSI0Ljg3NzU2MDk3NTYwOTc1NTUiIHdpZHRoPSI0Ljg3NzU2MDk3NTYwOTc1NTUiIHk9Ijg3LjgwNjA5NzU2MDk3NTYiIHg9IjE0Ni4zMzY4MjkyNjgyOTI2NiIvPiYjeGE7PHJlY3Qgcng9IjAiIGhlaWdodD0iNC44Nzc1NjA5NzU2MDk3NTU1IiB3aWR0aD0iNC44Nzc1NjA5NzU2MDk3NTU1IiB5PSI4Ny44MDYwOTc1NjA5NzU2IiB4PSIxNjAuOTY5NTEyMTk1MTIxOTIiLz4mI3hhOzxyZWN0IHJ4PSIwIiBoZWlnaHQ9IjQuODc3NTYwOTc1NjA5NzU1NSIgd2lkdGg9IjQuODc3NTYwOTc1NjA5NzU1NSIgeT0iODcuODA2MDk3NTYwOTc1NiIgeD0iMTc1LjYwMjE5NTEyMTk1MTE4Ii8+JiN4YTs8cmVjdCByeD0iMCIgaGVpZ2h0PSI0Ljg3NzU2MDk3NTYwOTc1NTUiIHdpZHRoPSI0Ljg3NzU2MDk3NTYwOTc1NTUiIHk9Ijg3LjgwNjA5NzU2MDk3NTYiIHg9IjE4MC40Nzk3NTYwOTc1NjA5NCIvPiYjeGE7PHJlY3Qgcng9IjAiIGhlaWdodD0iNC44Nzc1NjA5NzU2MDk3NTU1IiB3aWR0aD0iNC44Nzc1NjA5NzU2MDk3NTU1IiB5PSI4Ny44MDYwOTc1NjA5NzU2IiB4PSIxODUuMzU3MzE3MDczMTcwNyIvPiYjeGE7PHJlY3Qgcng9IjAiIGhlaWdodD0iNC44Nzc1NjA5NzU2MDk3NTU1IiB3aWR0aD0iNC44Nzc1NjA5NzU2MDk3NTU1IiB5PSI5Mi42ODM2NTg1MzY1ODUzNiIgeD0iMTQuNjQyNjgyOTI2ODI5MjY2Ii8+JiN4YTs8cmVjdCByeD0iMCIgaGVpZ2h0PSI0Ljg3NzU2MDk3NTYwOTc1NTUiIHdpZHRoPSI0Ljg3NzU2MDk3NTYwOTc1NTUiIHk9IjkyLjY4MzY1ODUzNjU4NTM2IiB4PSIyNC4zOTc4MDQ4NzgwNDg3NzgiLz4mI3hhOzxyZWN0IHJ4PSIwIiBoZWlnaHQ9IjQuODc3NTYwOTc1NjA5NzU1NSIgd2lkdGg9IjQuODc3NTYwOTc1NjA5NzU1NSIgeT0iOTIuNjgzNjU4NTM2NTg1MzYiIHg9IjQzLjkwODA0ODc4MDQ4Nzc5NiIvPiYjeGE7PHJlY3Qgcng9IjAiIGhlaWdodD0iNC44Nzc1NjA5NzU2MDk3NTU1IiB3aWR0aD0iNC44Nzc1NjA5NzU2MDk3NTU1IiB5PSI5Mi42ODM2NTg1MzY1ODUzNiIgeD0iNjMuNDE4MjkyNjgyOTI2ODIiLz4mI3hhOzxyZWN0IHJ4PSIwIiBoZWlnaHQ9IjQuODc3NTYwOTc1NjA5NzU1NSIgd2lkdGg9IjQuODc3NTYwOTc1NjA5NzU1NSIgeT0iOTIuNjgzNjU4NTM2NTg1MzYiIHg9IjE1MS4yMTQzOTAyNDM5MDI0MSIvPiYjeGE7PHJlY3Qgcng9IjAiIGhlaWdodD0iNC44Nzc1NjA5NzU2MDk3NTU1IiB3aWR0aD0iNC44Nzc1NjA5NzU2MDk3NTU1IiB5PSI5Mi42ODM2NTg1MzY1ODUzNiIgeD0iMTU2LjA5MTk1MTIxOTUxMjE3Ii8+JiN4YTs8cmVjdCByeD0iMCIgaGVpZ2h0PSI0Ljg3NzU2MDk3NTYwOTc1NTUiIHdpZHRoPSI0Ljg3NzU2MDk3NTYwOTc1NTUiIHk9IjkyLjY4MzY1ODUzNjU4NTM2IiB4PSIxNjUuODQ3MDczMTcwNzMxNjgiLz4mI3hhOzxyZWN0IHJ4PSIwIiBoZWlnaHQ9IjQuODc3NTYwOTc1NjA5NzU1NSIgd2lkdGg9IjQuODc3NTYwOTc1NjA5NzU1NSIgeT0iOTIuNjgzNjU4NTM2NTg1MzYiIHg9IjE3NS42MDIxOTUxMjE5NTExOCIvPiYjeGE7PHJlY3Qgcng9IjAiIGhlaWdodD0iNC44Nzc1NjA5NzU2MDk3NTU1IiB3aWR0aD0iNC44Nzc1NjA5NzU2MDk3NTU1IiB5PSI5Mi42ODM2NTg1MzY1ODUzNiIgeD0iMTgwLjQ3OTc1NjA5NzU2MDk0Ii8+JiN4YTs8cmVjdCByeD0iMCIgaGVpZ2h0PSI0Ljg3NzU2MDk3NTYwOTc1NTUiIHdpZHRoPSI0Ljg3NzU2MDk3NTYwOTc1NTUiIHk9IjkyLjY4MzY1ODUzNjU4NTM2IiB4PSIxOTAuMjM0ODc4MDQ4NzgwNDQiLz4mI3hhOzxyZWN0IHJ4PSIwIiBoZWlnaHQ9IjQuODc3NTYwOTc1NjA5NzU1NSIgd2lkdGg9IjQuODc3NTYwOTc1NjA5NzU1NSIgeT0iOTIuNjgzNjU4NTM2NTg1MzYiIHg9IjE5NS4xMTI0MzkwMjQzOTAyIi8+JiN4YTs8cmVjdCByeD0iMCIgaGVpZ2h0PSI0Ljg3NzU2MDk3NTYwOTc1NTUiIHdpZHRoPSI0Ljg3NzU2MDk3NTYwOTc1NTUiIHk9Ijk3LjU2MTIxOTUxMjE5NTExIiB4PSIwLjAxIi8+JiN4YTs8cmVjdCByeD0iMCIgaGVpZ2h0PSI0Ljg3NzU2MDk3NTYwOTc1NTUiIHdpZHRoPSI0Ljg3NzU2MDk3NTYwOTc1NTUiIHk9Ijk3LjU2MTIxOTUxMjE5NTExIiB4PSI5Ljc2NTEyMTk1MTIxOTUxIi8+JiN4YTs8cmVjdCByeD0iMCIgaGVpZ2h0PSI0Ljg3NzU2MDk3NTYwOTc1NTUiIHdpZHRoPSI0Ljg3NzU2MDk3NTYwOTc1NTUiIHk9Ijk3LjU2MTIxOTUxMjE5NTExIiB4PSIxNC42NDI2ODI5MjY4MjkyNjYiLz4mI3hhOzxyZWN0IHJ4PSIwIiBoZWlnaHQ9IjQuODc3NTYwOTc1NjA5NzU1NSIgd2lkdGg9IjQuODc3NTYwOTc1NjA5NzU1NSIgeT0iOTcuNTYxMjE5NTEyMTk1MTEiIHg9IjE5LjUyMDI0MzkwMjQzOTAyNCIvPiYjeGE7PHJlY3Qgcng9IjAiIGhlaWdodD0iNC44Nzc1NjA5NzU2MDk3NTU1IiB3aWR0aD0iNC44Nzc1NjA5NzU2MDk3NTU1IiB5PSI5Ny41NjEyMTk1MTIxOTUxMSIgeD0iMjkuMjc1MzY1ODUzNjU4NTM1Ii8+JiN4YTs8cmVjdCByeD0iMCIgaGVpZ2h0PSI0Ljg3NzU2MDk3NTYwOTc1NTUiIHdpZHRoPSI0Ljg3NzU2MDk3NTYwOTc1NTUiIHk9Ijk3LjU2MTIxOTUxMjE5NTExIiB4PSIzNC4xNTI5MjY4MjkyNjgyOSIvPiYjeGE7PHJlY3Qgcng9IjAiIGhlaWdodD0iNC44Nzc1NjA5NzU2MDk3NTU1IiB3aWR0aD0iNC44Nzc1NjA5NzU2MDk3NTU1IiB5PSI5Ny41NjEyMTk1MTIxOTUxMSIgeD0iNTMuNjYzMTcwNzMxNzA3MzEiLz4mI3hhOzxyZWN0IHJ4PSIwIiBoZWlnaHQ9IjQuODc3NTYwOTc1NjA5NzU1NSIgd2lkdGg9IjQuODc3NTYwOTc1NjA5NzU1NSIgeT0iOTcuNTYxMjE5NTEyMTk1MTEiIHg9IjYzLjQxODI5MjY4MjkyNjgyIi8+JiN4YTs8cmVjdCByeD0iMCIgaGVpZ2h0PSI0Ljg3NzU2MDk3NTYwOTc1NTUiIHdpZHRoPSI0Ljg3NzU2MDk3NTYwOTc1NTUiIHk9Ijk3LjU2MTIxOTUxMjE5NTExIiB4PSIxMzEuNzA0MTQ2MzQxNDYzNCIvPiYjeGE7PHJlY3Qgcng9IjAiIGhlaWdodD0iNC44Nzc1NjA5NzU2MDk3NTU1IiB3aWR0aD0iNC44Nzc1NjA5NzU2MDk3NTU1IiB5PSI5Ny41NjEyMTk1MTIxOTUxMSIgeD0iMTM2LjU4MTcwNzMxNzA3MzE1Ii8+JiN4YTs8cmVjdCByeD0iMCIgaGVpZ2h0PSI0Ljg3NzU2MDk3NTYwOTc1NTUiIHdpZHRoPSI0Ljg3NzU2MDk3NTYwOTc1NTUiIHk9Ijk3LjU2MTIxOTUxMjE5NTExIiB4PSIxNDYuMzM2ODI5MjY4MjkyNjYiLz4mI3hhOzxyZWN0IHJ4PSIwIiBoZWlnaHQ9IjQuODc3NTYwOTc1NjA5NzU1NSIgd2lkdGg9IjQuODc3NTYwOTc1NjA5NzU1NSIgeT0iOTcuNTYxMjE5NTEyMTk1MTEiIHg9IjE4NS4zNTczMTcwNzMxNzA3Ii8+JiN4YTs8cmVjdCByeD0iMCIgaGVpZ2h0PSI0Ljg3NzU2MDk3NTYwOTc1NTUiIHdpZHRoPSI0Ljg3NzU2MDk3NTYwOTc1NTUiIHk9Ijk3LjU2MTIxOTUxMjE5NTExIiB4PSIxOTUuMTEyNDM5MDI0MzkwMiIvPiYjeGE7PHJlY3Qgcng9IjAiIGhlaWdodD0iNC44Nzc1NjA5NzU2MDk3NTU1IiB3aWR0aD0iNC44Nzc1NjA5NzU2MDk3NTU1IiB5PSIxMDIuNDM4NzgwNDg3ODA0ODgiIHg9IjAuMDEiLz4mI3hhOzxyZWN0IHJ4PSIwIiBoZWlnaHQ9IjQuODc3NTYwOTc1NjA5NzU1NSIgd2lkdGg9IjQuODc3NTYwOTc1NjA5NzU1NSIgeT0iMTAyLjQzODc4MDQ4NzgwNDg4IiB4PSI0Ljg4NzU2MDk3NTYwOTc1NSIvPiYjeGE7PHJlY3Qgcng9IjAiIGhlaWdodD0iNC44Nzc1NjA5NzU2MDk3NTU1IiB3aWR0aD0iNC44Nzc1NjA5NzU2MDk3NTU1IiB5PSIxMDIuNDM4NzgwNDg3ODA0ODgiIHg9IjE0LjY0MjY4MjkyNjgyOTI2NiIvPiYjeGE7PHJlY3Qgcng9IjAiIGhlaWdodD0iNC44Nzc1NjA5NzU2MDk3NTU1IiB3aWR0aD0iNC44Nzc1NjA5NzU2MDk3NTU1IiB5PSIxMDIuNDM4NzgwNDg3ODA0ODgiIHg9IjE5LjUyMDI0MzkwMjQzOTAyNCIvPiYjeGE7PHJlY3Qgcng9IjAiIGhlaWdodD0iNC44Nzc1NjA5NzU2MDk3NTU1IiB3aWR0aD0iNC44Nzc1NjA5NzU2MDk3NTU1IiB5PSIxMDIuNDM4NzgwNDg3ODA0ODgiIHg9IjI0LjM5NzgwNDg3ODA0ODc3OCIvPiYjeGE7PHJlY3Qgcng9IjAiIGhlaWdodD0iNC44Nzc1NjA5NzU2MDk3NTU1IiB3aWR0aD0iNC44Nzc1NjA5NzU2MDk3NTU1IiB5PSIxMDIuNDM4NzgwNDg3ODA0ODgiIHg9IjM5LjAzMDQ4NzgwNDg3ODA0Ii8+JiN4YTs8cmVjdCByeD0iMCIgaGVpZ2h0PSI0Ljg3NzU2MDk3NTYwOTc1NTUiIHdpZHRoPSI0Ljg3NzU2MDk3NTYwOTc1NTUiIHk9IjEwMi40Mzg3ODA0ODc4MDQ4OCIgeD0iNDguNzg1NjA5NzU2MDk3NTUiLz4mI3hhOzxyZWN0IHJ4PSIwIiBoZWlnaHQ9IjQuODc3NTYwOTc1NjA5NzU1NSIgd2lkdGg9IjQuODc3NTYwOTc1NjA5NzU1NSIgeT0iMTAyLjQzODc4MDQ4NzgwNDg4IiB4PSI1My42NjMxNzA3MzE3MDczMSIvPiYjeGE7PHJlY3Qgcng9IjAiIGhlaWdodD0iNC44Nzc1NjA5NzU2MDk3NTU1IiB3aWR0aD0iNC44Nzc1NjA5NzU2MDk3NTU1IiB5PSIxMDIuNDM4NzgwNDg3ODA0ODgiIHg9IjU4LjU0MDczMTcwNzMxNzA2NSIvPiYjeGE7PHJlY3Qgcng9IjAiIGhlaWdodD0iNC44Nzc1NjA5NzU2MDk3NTU1IiB3aWR0aD0iNC44Nzc1NjA5NzU2MDk3NTU1IiB5PSIxMDIuNDM4NzgwNDg3ODA0ODgiIHg9IjYzLjQxODI5MjY4MjkyNjgyIi8+JiN4YTs8cmVjdCByeD0iMCIgaGVpZ2h0PSI0Ljg3NzU2MDk3NTYwOTc1NTUiIHdpZHRoPSI0Ljg3NzU2MDk3NTYwOTc1NTUiIHk9IjEwMi40Mzg3ODA0ODc4MDQ4OCIgeD0iMTM2LjU4MTcwNzMxNzA3MzE1Ii8+JiN4YTs8cmVjdCByeD0iMCIgaGVpZ2h0PSI0Ljg3NzU2MDk3NTYwOTc1NTUiIHdpZHRoPSI0Ljg3NzU2MDk3NTYwOTc1NTUiIHk9IjEwMi40Mzg3ODA0ODc4MDQ4OCIgeD0iMTQxLjQ1OTI2ODI5MjY4MjkiLz4mI3hhOzxyZWN0IHJ4PSIwIiBoZWlnaHQ9IjQuODc3NTYwOTc1NjA5NzU1NSIgd2lkdGg9IjQuODc3NTYwOTc1NjA5NzU1NSIgeT0iMTAyLjQzODc4MDQ4NzgwNDg4IiB4PSIxNTEuMjE0MzkwMjQzOTAyNDEiLz4mI3hhOzxyZWN0IHJ4PSIwIiBoZWlnaHQ9IjQuODc3NTYwOTc1NjA5NzU1NSIgd2lkdGg9IjQuODc3NTYwOTc1NjA5NzU1NSIgeT0iMTAyLjQzODc4MDQ4NzgwNDg4IiB4PSIxNTYuMDkxOTUxMjE5NTEyMTciLz4mI3hhOzxyZWN0IHJ4PSIwIiBoZWlnaHQ9IjQuODc3NTYwOTc1NjA5NzU1NSIgd2lkdGg9IjQuODc3NTYwOTc1NjA5NzU1NSIgeT0iMTAyLjQzODc4MDQ4NzgwNDg4IiB4PSIxNjUuODQ3MDczMTcwNzMxNjgiLz4mI3hhOzxyZWN0IHJ4PSIwIiBoZWlnaHQ9IjQuODc3NTYwOTc1NjA5NzU1NSIgd2lkdGg9IjQuODc3NTYwOTc1NjA5NzU1NSIgeT0iMTAyLjQzODc4MDQ4NzgwNDg4IiB4PSIxNzAuNzI0NjM0MTQ2MzQxNDMiLz4mI3hhOzxyZWN0IHJ4PSIwIiBoZWlnaHQ9IjQuODc3NTYwOTc1NjA5NzU1NSIgd2lkdGg9IjQuODc3NTYwOTc1NjA5NzU1NSIgeT0iMTAyLjQzODc4MDQ4NzgwNDg4IiB4PSIxNzUuNjAyMTk1MTIxOTUxMTgiLz4mI3hhOzxyZWN0IHJ4PSIwIiBoZWlnaHQ9IjQuODc3NTYwOTc1NjA5NzU1NSIgd2lkdGg9IjQuODc3NTYwOTc1NjA5NzU1NSIgeT0iMTAyLjQzODc4MDQ4NzgwNDg4IiB4PSIxODAuNDc5NzU2MDk3NTYwOTQiLz4mI3hhOzxyZWN0IHJ4PSIwIiBoZWlnaHQ9IjQuODc3NTYwOTc1NjA5NzU1NSIgd2lkdGg9IjQuODc3NTYwOTc1NjA5NzU1NSIgeT0iMTAyLjQzODc4MDQ4NzgwNDg4IiB4PSIxODUuMzU3MzE3MDczMTcwNyIvPiYjeGE7PHJlY3Qgcng9IjAiIGhlaWdodD0iNC44Nzc1NjA5NzU2MDk3NTU1IiB3aWR0aD0iNC44Nzc1NjA5NzU2MDk3NTU1IiB5PSIxMDIuNDM4NzgwNDg3ODA0ODgiIHg9IjE5MC4yMzQ4NzgwNDg3ODA0NCIvPiYjeGE7PHJlY3Qgcng9IjAiIGhlaWdodD0iNC44Nzc1NjA5NzU2MDk3NTU1IiB3aWR0aD0iNC44Nzc1NjA5NzU2MDk3NTU1IiB5PSIxMDIuNDM4NzgwNDg3ODA0ODgiIHg9IjE5NS4xMTI0MzkwMjQzOTAyIi8+JiN4YTs8cmVjdCByeD0iMCIgaGVpZ2h0PSI0Ljg3NzU2MDk3NTYwOTc1NTUiIHdpZHRoPSI0Ljg3NzU2MDk3NTYwOTc1NTUiIHk9IjEwNy4zMTYzNDE0NjM0MTQ2MyIgeD0iMC4wMSIvPiYjeGE7PHJlY3Qgcng9IjAiIGhlaWdodD0iNC44Nzc1NjA5NzU2MDk3NTU1IiB3aWR0aD0iNC44Nzc1NjA5NzU2MDk3NTU1IiB5PSIxMDcuMzE2MzQxNDYzNDE0NjMiIHg9IjE0LjY0MjY4MjkyNjgyOTI2NiIvPiYjeGE7PHJlY3Qgcng9IjAiIGhlaWdodD0iNC44Nzc1NjA5NzU2MDk3NTU1IiB3aWR0aD0iNC44Nzc1NjA5NzU2MDk3NTU1IiB5PSIxMDcuMzE2MzQxNDYzNDE0NjMiIHg9IjI5LjI3NTM2NTg1MzY1ODUzNSIvPiYjeGE7PHJlY3Qgcng9IjAiIGhlaWdodD0iNC44Nzc1NjA5NzU2MDk3NTU1IiB3aWR0aD0iNC44Nzc1NjA5NzU2MDk3NTU1IiB5PSIxMDcuMzE2MzQxNDYzNDE0NjMiIHg9IjM0LjE1MjkyNjgyOTI2ODI5Ii8+JiN4YTs8cmVjdCByeD0iMCIgaGVpZ2h0PSI0Ljg3NzU2MDk3NTYwOTc1NTUiIHdpZHRoPSI0Ljg3NzU2MDk3NTYwOTc1NTUiIHk9IjEwNy4zMTYzNDE0NjM0MTQ2MyIgeD0iNDMuOTA4MDQ4NzgwNDg3Nzk2Ii8+JiN4YTs8cmVjdCByeD0iMCIgaGVpZ2h0PSI0Ljg3NzU2MDk3NTYwOTc1NTUiIHdpZHRoPSI0Ljg3NzU2MDk3NTYwOTc1NTUiIHk9IjEwNy4zMTYzNDE0NjM0MTQ2MyIgeD0iNTMuNjYzMTcwNzMxNzA3MzEiLz4mI3hhOzxyZWN0IHJ4PSIwIiBoZWlnaHQ9IjQuODc3NTYwOTc1NjA5NzU1NSIgd2lkdGg9IjQuODc3NTYwOTc1NjA5NzU1NSIgeT0iMTA3LjMxNjM0MTQ2MzQxNDYzIiB4PSIxMzEuNzA0MTQ2MzQxNDYzNCIvPiYjeGE7PHJlY3Qgcng9IjAiIGhlaWdodD0iNC44Nzc1NjA5NzU2MDk3NTU1IiB3aWR0aD0iNC44Nzc1NjA5NzU2MDk3NTU1IiB5PSIxMDcuMzE2MzQxNDYzNDE0NjMiIHg9IjEzNi41ODE3MDczMTcwNzMxNSIvPiYjeGE7PHJlY3Qgcng9IjAiIGhlaWdodD0iNC44Nzc1NjA5NzU2MDk3NTU1IiB3aWR0aD0iNC44Nzc1NjA5NzU2MDk3NTU1IiB5PSIxMDcuMzE2MzQxNDYzNDE0NjMiIHg9IjE0Ni4zMzY4MjkyNjgyOTI2NiIvPiYjeGE7PHJlY3Qgcng9IjAiIGhlaWdodD0iNC44Nzc1NjA5NzU2MDk3NTU1IiB3aWR0aD0iNC44Nzc1NjA5NzU2MDk3NTU1IiB5PSIxMDcuMzE2MzQxNDYzNDE0NjMiIHg9IjE1Ni4wOTE5NTEyMTk1MTIxNyIvPiYjeGE7PHJlY3Qgcng9IjAiIGhlaWdodD0iNC44Nzc1NjA5NzU2MDk3NTU1IiB3aWR0aD0iNC44Nzc1NjA5NzU2MDk3NTU1IiB5PSIxMDcuMzE2MzQxNDYzNDE0NjMiIHg9IjE2MC45Njk1MTIxOTUxMjE5MiIvPiYjeGE7PHJlY3Qgcng9IjAiIGhlaWdodD0iNC44Nzc1NjA5NzU2MDk3NTU1IiB3aWR0aD0iNC44Nzc1NjA5NzU2MDk3NTU1IiB5PSIxMDcuMzE2MzQxNDYzNDE0NjMiIHg9IjE3MC43MjQ2MzQxNDYzNDE0MyIvPiYjeGE7PHJlY3Qgcng9IjAiIGhlaWdodD0iNC44Nzc1NjA5NzU2MDk3NTU1IiB3aWR0aD0iNC44Nzc1NjA5NzU2MDk3NTU1IiB5PSIxMDcuMzE2MzQxNDYzNDE0NjMiIHg9IjE3NS42MDIxOTUxMjE5NTExOCIvPiYjeGE7PHJlY3Qgcng9IjAiIGhlaWdodD0iNC44Nzc1NjA5NzU2MDk3NTU1IiB3aWR0aD0iNC44Nzc1NjA5NzU2MDk3NTU1IiB5PSIxMDcuMzE2MzQxNDYzNDE0NjMiIHg9IjE4MC40Nzk3NTYwOTc1NjA5NCIvPiYjeGE7PHJlY3Qgcng9IjAiIGhlaWdodD0iNC44Nzc1NjA5NzU2MDk3NTU1IiB3aWR0aD0iNC44Nzc1NjA5NzU2MDk3NTU1IiB5PSIxMTIuMTkzOTAyNDM5MDI0MzgiIHg9IjAuMDEiLz4mI3hhOzxyZWN0IHJ4PSIwIiBoZWlnaHQ9IjQuODc3NTYwOTc1NjA5NzU1NSIgd2lkdGg9IjQuODc3NTYwOTc1NjA5NzU1NSIgeT0iMTEyLjE5MzkwMjQzOTAyNDM4IiB4PSI0Ljg4NzU2MDk3NTYwOTc1NSIvPiYjeGE7PHJlY3Qgcng9IjAiIGhlaWdodD0iNC44Nzc1NjA5NzU2MDk3NTU1IiB3aWR0aD0iNC44Nzc1NjA5NzU2MDk3NTU1IiB5PSIxMTIuMTkzOTAyNDM5MDI0MzgiIHg9IjE0LjY0MjY4MjkyNjgyOTI2NiIvPiYjeGE7PHJlY3Qgcng9IjAiIGhlaWdodD0iNC44Nzc1NjA5NzU2MDk3NTU1IiB3aWR0aD0iNC44Nzc1NjA5NzU2MDk3NTU1IiB5PSIxMTIuMTkzOTAyNDM5MDI0MzgiIHg9IjE5LjUyMDI0MzkwMjQzOTAyNCIvPiYjeGE7PHJlY3Qgcng9IjAiIGhlaWdodD0iNC44Nzc1NjA5NzU2MDk3NTU1IiB3aWR0aD0iNC44Nzc1NjA5NzU2MDk3NTU1IiB5PSIxMTIuMTkzOTAyNDM5MDI0MzgiIHg9IjI0LjM5NzgwNDg3ODA0ODc3OCIvPiYjeGE7PHJlY3Qgcng9IjAiIGhlaWdodD0iNC44Nzc1NjA5NzU2MDk3NTU1IiB3aWR0aD0iNC44Nzc1NjA5NzU2MDk3NTU1IiB5PSIxMTIuMTkzOTAyNDM5MDI0MzgiIHg9IjM0LjE1MjkyNjgyOTI2ODI5Ii8+JiN4YTs8cmVjdCByeD0iMCIgaGVpZ2h0PSI0Ljg3NzU2MDk3NTYwOTc1NTUiIHdpZHRoPSI0Ljg3NzU2MDk3NTYwOTc1NTUiIHk9IjExMi4xOTM5MDI0MzkwMjQzOCIgeD0iMzkuMDMwNDg3ODA0ODc4MDQiLz4mI3hhOzxyZWN0IHJ4PSIwIiBoZWlnaHQ9IjQuODc3NTYwOTc1NjA5NzU1NSIgd2lkdGg9IjQuODc3NTYwOTc1NjA5NzU1NSIgeT0iMTEyLjE5MzkwMjQzOTAyNDM4IiB4PSIxMzEuNzA0MTQ2MzQxNDYzNCIvPiYjeGE7PHJlY3Qgcng9IjAiIGhlaWdodD0iNC44Nzc1NjA5NzU2MDk3NTU1IiB3aWR0aD0iNC44Nzc1NjA5NzU2MDk3NTU1IiB5PSIxMTIuMTkzOTAyNDM5MDI0MzgiIHg9IjEzNi41ODE3MDczMTcwNzMxNSIvPiYjeGE7PHJlY3Qgcng9IjAiIGhlaWdodD0iNC44Nzc1NjA5NzU2MDk3NTU1IiB3aWR0aD0iNC44Nzc1NjA5NzU2MDk3NTU1IiB5PSIxMTIuMTkzOTAyNDM5MDI0MzgiIHg9IjE1Ni4wOTE5NTEyMTk1MTIxNyIvPiYjeGE7PHJlY3Qgcng9IjAiIGhlaWdodD0iNC44Nzc1NjA5NzU2MDk3NTU1IiB3aWR0aD0iNC44Nzc1NjA5NzU2MDk3NTU1IiB5PSIxMTIuMTkzOTAyNDM5MDI0MzgiIHg9IjE3MC43MjQ2MzQxNDYzNDE0MyIvPiYjeGE7PHJlY3Qgcng9IjAiIGhlaWdodD0iNC44Nzc1NjA5NzU2MDk3NTU1IiB3aWR0aD0iNC44Nzc1NjA5NzU2MDk3NTU1IiB5PSIxMTIuMTkzOTAyNDM5MDI0MzgiIHg9IjE3NS42MDIxOTUxMjE5NTExOCIvPiYjeGE7PHJlY3Qgcng9IjAiIGhlaWdodD0iNC44Nzc1NjA5NzU2MDk3NTU1IiB3aWR0aD0iNC44Nzc1NjA5NzU2MDk3NTU1IiB5PSIxMTIuMTkzOTAyNDM5MDI0MzgiIHg9IjE4MC40Nzk3NTYwOTc1NjA5NCIvPiYjeGE7PHJlY3Qgcng9IjAiIGhlaWdodD0iNC44Nzc1NjA5NzU2MDk3NTU1IiB3aWR0aD0iNC44Nzc1NjA5NzU2MDk3NTU1IiB5PSIxMTIuMTkzOTAyNDM5MDI0MzgiIHg9IjE5MC4yMzQ4NzgwNDg3ODA0NCIvPiYjeGE7PHJlY3Qgcng9IjAiIGhlaWdodD0iNC44Nzc1NjA5NzU2MDk3NTU1IiB3aWR0aD0iNC44Nzc1NjA5NzU2MDk3NTU1IiB5PSIxMTIuMTkzOTAyNDM5MDI0MzgiIHg9IjE5NS4xMTI0MzkwMjQzOTAyIi8+JiN4YTs8cmVjdCByeD0iMCIgaGVpZ2h0PSI0Ljg3NzU2MDk3NTYwOTc1NTUiIHdpZHRoPSI0Ljg3NzU2MDk3NTYwOTc1NTUiIHk9IjExNy4wNzE0NjM0MTQ2MzQxNCIgeD0iMC4wMSIvPiYjeGE7PHJlY3Qgcng9IjAiIGhlaWdodD0iNC44Nzc1NjA5NzU2MDk3NTU1IiB3aWR0aD0iNC44Nzc1NjA5NzU2MDk3NTU1IiB5PSIxMTcuMDcxNDYzNDE0NjM0MTQiIHg9IjQuODg3NTYwOTc1NjA5NzU1Ii8+JiN4YTs8cmVjdCByeD0iMCIgaGVpZ2h0PSI0Ljg3NzU2MDk3NTYwOTc1NTUiIHdpZHRoPSI0Ljg3NzU2MDk3NTYwOTc1NTUiIHk9IjExNy4wNzE0NjM0MTQ2MzQxNCIgeD0iOS43NjUxMjE5NTEyMTk1MSIvPiYjeGE7PHJlY3Qgcng9IjAiIGhlaWdodD0iNC44Nzc1NjA5NzU2MDk3NTU1IiB3aWR0aD0iNC44Nzc1NjA5NzU2MDk3NTU1IiB5PSIxMTcuMDcxNDYzNDE0NjM0MTQiIHg9IjI5LjI3NTM2NTg1MzY1ODUzNSIvPiYjeGE7PHJlY3Qgcng9IjAiIGhlaWdodD0iNC44Nzc1NjA5NzU2MDk3NTU1IiB3aWR0aD0iNC44Nzc1NjA5NzU2MDk3NTU1IiB5PSIxMTcuMDcxNDYzNDE0NjM0MTQiIHg9IjM0LjE1MjkyNjgyOTI2ODI5Ii8+JiN4YTs8cmVjdCByeD0iMCIgaGVpZ2h0PSI0Ljg3NzU2MDk3NTYwOTc1NTUiIHdpZHRoPSI0Ljg3NzU2MDk3NTYwOTc1NTUiIHk9IjExNy4wNzE0NjM0MTQ2MzQxNCIgeD0iNDMuOTA4MDQ4NzgwNDg3Nzk2Ii8+JiN4YTs8cmVjdCByeD0iMCIgaGVpZ2h0PSI0Ljg3NzU2MDk3NTYwOTc1NTUiIHdpZHRoPSI0Ljg3NzU2MDk3NTYwOTc1NTUiIHk9IjExNy4wNzE0NjM0MTQ2MzQxNCIgeD0iNTguNTQwNzMxNzA3MzE3MDY1Ii8+JiN4YTs8cmVjdCByeD0iMCIgaGVpZ2h0PSI0Ljg3NzU2MDk3NTYwOTc1NTUiIHdpZHRoPSI0Ljg3NzU2MDk3NTYwOTc1NTUiIHk9IjExNy4wNzE0NjM0MTQ2MzQxNCIgeD0iNjMuNDE4MjkyNjgyOTI2ODIiLz4mI3hhOzxyZWN0IHJ4PSIwIiBoZWlnaHQ9IjQuODc3NTYwOTc1NjA5NzU1NSIgd2lkdGg9IjQuODc3NTYwOTc1NjA5NzU1NSIgeT0iMTE3LjA3MTQ2MzQxNDYzNDE0IiB4PSIxMzEuNzA0MTQ2MzQxNDYzNCIvPiYjeGE7PHJlY3Qgcng9IjAiIGhlaWdodD0iNC44Nzc1NjA5NzU2MDk3NTU1IiB3aWR0aD0iNC44Nzc1NjA5NzU2MDk3NTU1IiB5PSIxMTcuMDcxNDYzNDE0NjM0MTQiIHg9IjEzNi41ODE3MDczMTcwNzMxNSIvPiYjeGE7PHJlY3Qgcng9IjAiIGhlaWdodD0iNC44Nzc1NjA5NzU2MDk3NTU1IiB3aWR0aD0iNC44Nzc1NjA5NzU2MDk3NTU1IiB5PSIxMTcuMDcxNDYzNDE0NjM0MTQiIHg9IjE0MS40NTkyNjgyOTI2ODI5Ii8+JiN4YTs8cmVjdCByeD0iMCIgaGVpZ2h0PSI0Ljg3NzU2MDk3NTYwOTc1NTUiIHdpZHRoPSI0Ljg3NzU2MDk3NTYwOTc1NTUiIHk9IjExNy4wNzE0NjM0MTQ2MzQxNCIgeD0iMTYwLjk2OTUxMjE5NTEyMTkyIi8+JiN4YTs8cmVjdCByeD0iMCIgaGVpZ2h0PSI0Ljg3NzU2MDk3NTYwOTc1NTUiIHdpZHRoPSI0Ljg3NzU2MDk3NTYwOTc1NTUiIHk9IjExNy4wNzE0NjM0MTQ2MzQxNCIgeD0iMTcwLjcyNDYzNDE0NjM0MTQzIi8+JiN4YTs8cmVjdCByeD0iMCIgaGVpZ2h0PSI0Ljg3NzU2MDk3NTYwOTc1NTUiIHdpZHRoPSI0Ljg3NzU2MDk3NTYwOTc1NTUiIHk9IjExNy4wNzE0NjM0MTQ2MzQxNCIgeD0iMTg1LjM1NzMxNzA3MzE3MDciLz4mI3hhOzxyZWN0IHJ4PSIwIiBoZWlnaHQ9IjQuODc3NTYwOTc1NjA5NzU1NSIgd2lkdGg9IjQuODc3NTYwOTc1NjA5NzU1NSIgeT0iMTE3LjA3MTQ2MzQxNDYzNDE0IiB4PSIxOTAuMjM0ODc4MDQ4NzgwNDQiLz4mI3hhOzxyZWN0IHJ4PSIwIiBoZWlnaHQ9IjQuODc3NTYwOTc1NjA5NzU1NSIgd2lkdGg9IjQuODc3NTYwOTc1NjA5NzU1NSIgeT0iMTIxLjk0OTAyNDM5MDI0Mzg5IiB4PSI1OC41NDA3MzE3MDczMTcwNjUiLz4mI3hhOzxyZWN0IHJ4PSIwIiBoZWlnaHQ9IjQuODc3NTYwOTc1NjA5NzU1NSIgd2lkdGg9IjQuODc3NTYwOTc1NjA5NzU1NSIgeT0iMTIxLjk0OTAyNDM5MDI0Mzg5IiB4PSIxMzYuNTgxNzA3MzE3MDczMTUiLz4mI3hhOzxyZWN0IHJ4PSIwIiBoZWlnaHQ9IjQuODc3NTYwOTc1NjA5NzU1NSIgd2lkdGg9IjQuODc3NTYwOTc1NjA5NzU1NSIgeT0iMTIxLjk0OTAyNDM5MDI0Mzg5IiB4PSIxNDEuNDU5MjY4MjkyNjgyOSIvPiYjeGE7PHJlY3Qgcng9IjAiIGhlaWdodD0iNC44Nzc1NjA5NzU2MDk3NTU1IiB3aWR0aD0iNC44Nzc1NjA5NzU2MDk3NTU1IiB5PSIxMjEuOTQ5MDI0MzkwMjQzODkiIHg9IjE1MS4yMTQzOTAyNDM5MDI0MSIvPiYjeGE7PHJlY3Qgcng9IjAiIGhlaWdodD0iNC44Nzc1NjA5NzU2MDk3NTU1IiB3aWR0aD0iNC44Nzc1NjA5NzU2MDk3NTU1IiB5PSIxMjEuOTQ5MDI0MzkwMjQzODkiIHg9IjE2MC45Njk1MTIxOTUxMjE5MiIvPiYjeGE7PHJlY3Qgcng9IjAiIGhlaWdodD0iNC44Nzc1NjA5NzU2MDk3NTU1IiB3aWR0aD0iNC44Nzc1NjA5NzU2MDk3NTU1IiB5PSIxMjEuOTQ5MDI0MzkwMjQzODkiIHg9IjE2NS44NDcwNzMxNzA3MzE2OCIvPiYjeGE7PHJlY3Qgcng9IjAiIGhlaWdodD0iNC44Nzc1NjA5NzU2MDk3NTU1IiB3aWR0aD0iNC44Nzc1NjA5NzU2MDk3NTU1IiB5PSIxMjEuOTQ5MDI0MzkwMjQzODkiIHg9IjE3MC43MjQ2MzQxNDYzNDE0MyIvPiYjeGE7PHJlY3Qgcng9IjAiIGhlaWdodD0iNC44Nzc1NjA5NzU2MDk3NTU1IiB3aWR0aD0iNC44Nzc1NjA5NzU2MDk3NTU1IiB5PSIxMjEuOTQ5MDI0MzkwMjQzODkiIHg9IjE3NS42MDIxOTUxMjE5NTExOCIvPiYjeGE7PHJlY3Qgcng9IjAiIGhlaWdodD0iNC44Nzc1NjA5NzU2MDk3NTU1IiB3aWR0aD0iNC44Nzc1NjA5NzU2MDk3NTU1IiB5PSIxMjEuOTQ5MDI0MzkwMjQzODkiIHg9IjE4MC40Nzk3NTYwOTc1NjA5NCIvPiYjeGE7PHJlY3Qgcng9IjAiIGhlaWdodD0iNC44Nzc1NjA5NzU2MDk3NTU1IiB3aWR0aD0iNC44Nzc1NjA5NzU2MDk3NTU1IiB5PSIxMjEuOTQ5MDI0MzkwMjQzODkiIHg9IjE5NS4xMTI0MzkwMjQzOTAyIi8+JiN4YTs8cmVjdCByeD0iMCIgaGVpZ2h0PSI0Ljg3NzU2MDk3NTYwOTc1NTUiIHdpZHRoPSI0Ljg3NzU2MDk3NTYwOTc1NTUiIHk9IjEyNi44MjY1ODUzNjU4NTM2NSIgeD0iMC4wMSIvPiYjeGE7PHJlY3Qgcng9IjAiIGhlaWdodD0iNC44Nzc1NjA5NzU2MDk3NTU1IiB3aWR0aD0iNC44Nzc1NjA5NzU2MDk3NTU1IiB5PSIxMjYuODI2NTg1MzY1ODUzNjUiIHg9IjkuNzY1MTIxOTUxMjE5NTEiLz4mI3hhOzxyZWN0IHJ4PSIwIiBoZWlnaHQ9IjQuODc3NTYwOTc1NjA5NzU1NSIgd2lkdGg9IjQuODc3NTYwOTc1NjA5NzU1NSIgeT0iMTI2LjgyNjU4NTM2NTg1MzY1IiB4PSIxOS41MjAyNDM5MDI0MzkwMjQiLz4mI3hhOzxyZWN0IHJ4PSIwIiBoZWlnaHQ9IjQuODc3NTYwOTc1NjA5NzU1NSIgd2lkdGg9IjQuODc3NTYwOTc1NjA5NzU1NSIgeT0iMTI2LjgyNjU4NTM2NTg1MzY1IiB4PSIyNC4zOTc4MDQ4NzgwNDg3NzgiLz4mI3hhOzxyZWN0IHJ4PSIwIiBoZWlnaHQ9IjQuODc3NTYwOTc1NjA5NzU1NSIgd2lkdGg9IjQuODc3NTYwOTc1NjA5NzU1NSIgeT0iMTI2LjgyNjU4NTM2NTg1MzY1IiB4PSIyOS4yNzUzNjU4NTM2NTg1MzUiLz4mI3hhOzxyZWN0IHJ4PSIwIiBoZWlnaHQ9IjQuODc3NTYwOTc1NjA5NzU1NSIgd2lkdGg9IjQuODc3NTYwOTc1NjA5NzU1NSIgeT0iMTI2LjgyNjU4NTM2NTg1MzY1IiB4PSI0My45MDgwNDg3ODA0ODc3OTYiLz4mI3hhOzxyZWN0IHJ4PSIwIiBoZWlnaHQ9IjQuODc3NTYwOTc1NjA5NzU1NSIgd2lkdGg9IjQuODc3NTYwOTc1NjA5NzU1NSIgeT0iMTI2LjgyNjU4NTM2NTg1MzY1IiB4PSIxMzEuNzA0MTQ2MzQxNDYzNCIvPiYjeGE7PHJlY3Qgcng9IjAiIGhlaWdodD0iNC44Nzc1NjA5NzU2MDk3NTU1IiB3aWR0aD0iNC44Nzc1NjA5NzU2MDk3NTU1IiB5PSIxMjYuODI2NTg1MzY1ODUzNjUiIHg9IjE1Ni4wOTE5NTEyMTk1MTIxNyIvPiYjeGE7PHJlY3Qgcng9IjAiIGhlaWdodD0iNC44Nzc1NjA5NzU2MDk3NTU1IiB3aWR0aD0iNC44Nzc1NjA5NzU2MDk3NTU1IiB5PSIxMjYuODI2NTg1MzY1ODUzNjUiIHg9IjE2NS44NDcwNzMxNzA3MzE2OCIvPiYjeGE7PHJlY3Qgcng9IjAiIGhlaWdodD0iNC44Nzc1NjA5NzU2MDk3NTU1IiB3aWR0aD0iNC44Nzc1NjA5NzU2MDk3NTU1IiB5PSIxMjYuODI2NTg1MzY1ODUzNjUiIHg9IjE3MC43MjQ2MzQxNDYzNDE0MyIvPiYjeGE7PHJlY3Qgcng9IjAiIGhlaWdodD0iNC44Nzc1NjA5NzU2MDk3NTU1IiB3aWR0aD0iNC44Nzc1NjA5NzU2MDk3NTU1IiB5PSIxMjYuODI2NTg1MzY1ODUzNjUiIHg9IjE3NS42MDIxOTUxMjE5NTExOCIvPiYjeGE7PHJlY3Qgcng9IjAiIGhlaWdodD0iNC44Nzc1NjA5NzU2MDk3NTU1IiB3aWR0aD0iNC44Nzc1NjA5NzU2MDk3NTU1IiB5PSIxMjYuODI2NTg1MzY1ODUzNjUiIHg9IjE5MC4yMzQ4NzgwNDg3ODA0NCIvPiYjeGE7PHJlY3Qgcng9IjAiIGhlaWdodD0iNC44Nzc1NjA5NzU2MDk3NTU1IiB3aWR0aD0iNC44Nzc1NjA5NzU2MDk3NTU1IiB5PSIxMzEuNzA0MTQ2MzQxNDYzNCIgeD0iNC44ODc1NjA5NzU2MDk3NTUiLz4mI3hhOzxyZWN0IHJ4PSIwIiBoZWlnaHQ9IjQuODc3NTYwOTc1NjA5NzU1NSIgd2lkdGg9IjQuODc3NTYwOTc1NjA5NzU1NSIgeT0iMTMxLjcwNDE0NjM0MTQ2MzQiIHg9IjkuNzY1MTIxOTUxMjE5NTEiLz4mI3hhOzxyZWN0IHJ4PSIwIiBoZWlnaHQ9IjQuODc3NTYwOTc1NjA5NzU1NSIgd2lkdGg9IjQuODc3NTYwOTc1NjA5NzU1NSIgeT0iMTMxLjcwNDE0NjM0MTQ2MzQiIHg9IjE0LjY0MjY4MjkyNjgyOTI2NiIvPiYjeGE7PHJlY3Qgcng9IjAiIGhlaWdodD0iNC44Nzc1NjA5NzU2MDk3NTU1IiB3aWR0aD0iNC44Nzc1NjA5NzU2MDk3NTU1IiB5PSIxMzEuNzA0MTQ2MzQxNDYzNCIgeD0iMzQuMTUyOTI2ODI5MjY4MjkiLz4mI3hhOzxyZWN0IHJ4PSIwIiBoZWlnaHQ9IjQuODc3NTYwOTc1NjA5NzU1NSIgd2lkdGg9IjQuODc3NTYwOTc1NjA5NzU1NSIgeT0iMTMxLjcwNDE0NjM0MTQ2MzQiIHg9IjQ4Ljc4NTYwOTc1NjA5NzU1Ii8+JiN4YTs8cmVjdCByeD0iMCIgaGVpZ2h0PSI0Ljg3NzU2MDk3NTYwOTc1NTUiIHdpZHRoPSI0Ljg3NzU2MDk3NTYwOTc1NTUiIHk9IjEzMS43MDQxNDYzNDE0NjM0IiB4PSI2OC4yOTU4NTM2NTg1MzY1OSIvPiYjeGE7PHJlY3Qgcng9IjAiIGhlaWdodD0iNC44Nzc1NjA5NzU2MDk3NTU1IiB3aWR0aD0iNC44Nzc1NjA5NzU2MDk3NTU1IiB5PSIxMzEuNzA0MTQ2MzQxNDYzNCIgeD0iODcuODA2MDk3NTYwOTc1NiIvPiYjeGE7PHJlY3Qgcng9IjAiIGhlaWdodD0iNC44Nzc1NjA5NzU2MDk3NTU1IiB3aWR0aD0iNC44Nzc1NjA5NzU2MDk3NTU1IiB5PSIxMzEuNzA0MTQ2MzQxNDYzNCIgeD0iMTI2LjgyNjU4NTM2NTg1MzY1Ii8+JiN4YTs8cmVjdCByeD0iMCIgaGVpZ2h0PSI0Ljg3NzU2MDk3NTYwOTc1NTUiIHdpZHRoPSI0Ljg3NzU2MDk3NTYwOTc1NTUiIHk9IjEzMS43MDQxNDYzNDE0NjM0IiB4PSIxMzEuNzA0MTQ2MzQxNDYzNCIvPiYjeGE7PHJlY3Qgcng9IjAiIGhlaWdodD0iNC44Nzc1NjA5NzU2MDk3NTU1IiB3aWR0aD0iNC44Nzc1NjA5NzU2MDk3NTU1IiB5PSIxMzEuNzA0MTQ2MzQxNDYzNCIgeD0iMTUxLjIxNDM5MDI0MzkwMjQxIi8+JiN4YTs8cmVjdCByeD0iMCIgaGVpZ2h0PSI0Ljg3NzU2MDk3NTYwOTc1NTUiIHdpZHRoPSI0Ljg3NzU2MDk3NTYwOTc1NTUiIHk9IjEzMS43MDQxNDYzNDE0NjM0IiB4PSIxNTYuMDkxOTUxMjE5NTEyMTciLz4mI3hhOzxyZWN0IHJ4PSIwIiBoZWlnaHQ9IjQuODc3NTYwOTc1NjA5NzU1NSIgd2lkdGg9IjQuODc3NTYwOTc1NjA5NzU1NSIgeT0iMTMxLjcwNDE0NjM0MTQ2MzQiIHg9IjE2NS44NDcwNzMxNzA3MzE2OCIvPiYjeGE7PHJlY3Qgcng9IjAiIGhlaWdodD0iNC44Nzc1NjA5NzU2MDk3NTU1IiB3aWR0aD0iNC44Nzc1NjA5NzU2MDk3NTU1IiB5PSIxMzEuNzA0MTQ2MzQxNDYzNCIgeD0iMTc1LjYwMjE5NTEyMTk1MTE4Ii8+JiN4YTs8cmVjdCByeD0iMCIgaGVpZ2h0PSI0Ljg3NzU2MDk3NTYwOTc1NTUiIHdpZHRoPSI0Ljg3NzU2MDk3NTYwOTc1NTUiIHk9IjEzMS43MDQxNDYzNDE0NjM0IiB4PSIxODAuNDc5NzU2MDk3NTYwOTQiLz4mI3hhOzxyZWN0IHJ4PSIwIiBoZWlnaHQ9IjQuODc3NTYwOTc1NjA5NzU1NSIgd2lkdGg9IjQuODc3NTYwOTc1NjA5NzU1NSIgeT0iMTMxLjcwNDE0NjM0MTQ2MzQiIHg9IjE5MC4yMzQ4NzgwNDg3ODA0NCIvPiYjeGE7PHJlY3Qgcng9IjAiIGhlaWdodD0iNC44Nzc1NjA5NzU2MDk3NTU1IiB3aWR0aD0iNC44Nzc1NjA5NzU2MDk3NTU1IiB5PSIxMzEuNzA0MTQ2MzQxNDYzNCIgeD0iMTk1LjExMjQzOTAyNDM5MDIiLz4mI3hhOzxyZWN0IHJ4PSIwIiBoZWlnaHQ9IjQuODc3NTYwOTc1NjA5NzU1NSIgd2lkdGg9IjQuODc3NTYwOTc1NjA5NzU1NSIgeT0iMTM2LjU4MTcwNzMxNzA3MzE1IiB4PSI5Ljc2NTEyMTk1MTIxOTUxIi8+JiN4YTs8cmVjdCByeD0iMCIgaGVpZ2h0PSI0Ljg3NzU2MDk3NTYwOTc1NTUiIHdpZHRoPSI0Ljg3NzU2MDk3NTYwOTc1NTUiIHk9IjEzNi41ODE3MDczMTcwNzMxNSIgeD0iMTQuNjQyNjgyOTI2ODI5MjY2Ii8+JiN4YTs8cmVjdCByeD0iMCIgaGVpZ2h0PSI0Ljg3NzU2MDk3NTYwOTc1NTUiIHdpZHRoPSI0Ljg3NzU2MDk3NTYwOTc1NTUiIHk9IjEzNi41ODE3MDczMTcwNzMxNSIgeD0iMTkuNTIwMjQzOTAyNDM5MDI0Ii8+JiN4YTs8cmVjdCByeD0iMCIgaGVpZ2h0PSI0Ljg3NzU2MDk3NTYwOTc1NTUiIHdpZHRoPSI0Ljg3NzU2MDk3NTYwOTc1NTUiIHk9IjEzNi41ODE3MDczMTcwNzMxNSIgeD0iMjkuMjc1MzY1ODUzNjU4NTM1Ii8+JiN4YTs8cmVjdCByeD0iMCIgaGVpZ2h0PSI0Ljg3NzU2MDk3NTYwOTc1NTUiIHdpZHRoPSI0Ljg3NzU2MDk3NTYwOTc1NTUiIHk9IjEzNi41ODE3MDczMTcwNzMxNSIgeD0iMzQuMTUyOTI2ODI5MjY4MjkiLz4mI3hhOzxyZWN0IHJ4PSIwIiBoZWlnaHQ9IjQuODc3NTYwOTc1NjA5NzU1NSIgd2lkdGg9IjQuODc3NTYwOTc1NjA5NzU1NSIgeT0iMTM2LjU4MTcwNzMxNzA3MzE1IiB4PSIzOS4wMzA0ODc4MDQ4NzgwNCIvPiYjeGE7PHJlY3Qgcng9IjAiIGhlaWdodD0iNC44Nzc1NjA5NzU2MDk3NTU1IiB3aWR0aD0iNC44Nzc1NjA5NzU2MDk3NTU1IiB5PSIxMzYuNTgxNzA3MzE3MDczMTUiIHg9IjU4LjU0MDczMTcwNzMxNzA2NSIvPiYjeGE7PHJlY3Qgcng9IjAiIGhlaWdodD0iNC44Nzc1NjA5NzU2MDk3NTU1IiB3aWR0aD0iNC44Nzc1NjA5NzU2MDk3NTU1IiB5PSIxMzYuNTgxNzA3MzE3MDczMTUiIHg9IjY4LjI5NTg1MzY1ODUzNjU5Ii8+JiN4YTs8cmVjdCByeD0iMCIgaGVpZ2h0PSI0Ljg3NzU2MDk3NTYwOTc1NTUiIHdpZHRoPSI0Ljg3NzU2MDk3NTYwOTc1NTUiIHk9IjEzNi41ODE3MDczMTcwNzMxNSIgeD0iNzMuMTczNDE0NjM0MTQ2MzQiLz4mI3hhOzxyZWN0IHJ4PSIwIiBoZWlnaHQ9IjQuODc3NTYwOTc1NjA5NzU1NSIgd2lkdGg9IjQuODc3NTYwOTc1NjA5NzU1NSIgeT0iMTM2LjU4MTcwNzMxNzA3MzE1IiB4PSI4Ny44MDYwOTc1NjA5NzU2Ii8+JiN4YTs8cmVjdCByeD0iMCIgaGVpZ2h0PSI0Ljg3NzU2MDk3NTYwOTc1NTUiIHdpZHRoPSI0Ljg3NzU2MDk3NTYwOTc1NTUiIHk9IjEzNi41ODE3MDczMTcwNzMxNSIgeD0iOTcuNTYxMjE5NTEyMTk1MTEiLz4mI3hhOzxyZWN0IHJ4PSIwIiBoZWlnaHQ9IjQuODc3NTYwOTc1NjA5NzU1NSIgd2lkdGg9IjQuODc3NTYwOTc1NjA5NzU1NSIgeT0iMTM2LjU4MTcwNzMxNzA3MzE1IiB4PSIxMTIuMTkzOTAyNDM5MDI0MzgiLz4mI3hhOzxyZWN0IHJ4PSIwIiBoZWlnaHQ9IjQuODc3NTYwOTc1NjA5NzU1NSIgd2lkdGg9IjQuODc3NTYwOTc1NjA5NzU1NSIgeT0iMTM2LjU4MTcwNzMxNzA3MzE1IiB4PSIxMTcuMDcxNDYzNDE0NjM0MTQiLz4mI3hhOzxyZWN0IHJ4PSIwIiBoZWlnaHQ9IjQuODc3NTYwOTc1NjA5NzU1NSIgd2lkdGg9IjQuODc3NTYwOTc1NjA5NzU1NSIgeT0iMTM2LjU4MTcwNzMxNzA3MzE1IiB4PSIxMjYuODI2NTg1MzY1ODUzNjUiLz4mI3hhOzxyZWN0IHJ4PSIwIiBoZWlnaHQ9IjQuODc3NTYwOTc1NjA5NzU1NSIgd2lkdGg9IjQuODc3NTYwOTc1NjA5NzU1NSIgeT0iMTM2LjU4MTcwNzMxNzA3MzE1IiB4PSIxMzYuNTgxNzA3MzE3MDczMTUiLz4mI3hhOzxyZWN0IHJ4PSIwIiBoZWlnaHQ9IjQuODc3NTYwOTc1NjA5NzU1NSIgd2lkdGg9IjQuODc3NTYwOTc1NjA5NzU1NSIgeT0iMTM2LjU4MTcwNzMxNzA3MzE1IiB4PSIxNDEuNDU5MjY4MjkyNjgyOSIvPiYjeGE7PHJlY3Qgcng9IjAiIGhlaWdodD0iNC44Nzc1NjA5NzU2MDk3NTU1IiB3aWR0aD0iNC44Nzc1NjA5NzU2MDk3NTU1IiB5PSIxMzYuNTgxNzA3MzE3MDczMTUiIHg9IjE1MS4yMTQzOTAyNDM5MDI0MSIvPiYjeGE7PHJlY3Qgcng9IjAiIGhlaWdodD0iNC44Nzc1NjA5NzU2MDk3NTU1IiB3aWR0aD0iNC44Nzc1NjA5NzU2MDk3NTU1IiB5PSIxMzYuNTgxNzA3MzE3MDczMTUiIHg9IjE2MC45Njk1MTIxOTUxMjE5MiIvPiYjeGE7PHJlY3Qgcng9IjAiIGhlaWdodD0iNC44Nzc1NjA5NzU2MDk3NTU1IiB3aWR0aD0iNC44Nzc1NjA5NzU2MDk3NTU1IiB5PSIxMzYuNTgxNzA3MzE3MDczMTUiIHg9IjE4MC40Nzk3NTYwOTc1NjA5NCIvPiYjeGE7PHJlY3Qgcng9IjAiIGhlaWdodD0iNC44Nzc1NjA5NzU2MDk3NTU1IiB3aWR0aD0iNC44Nzc1NjA5NzU2MDk3NTU1IiB5PSIxMzYuNTgxNzA3MzE3MDczMTUiIHg9IjE4NS4zNTczMTcwNzMxNzA3Ii8+JiN4YTs8cmVjdCByeD0iMCIgaGVpZ2h0PSI0Ljg3NzU2MDk3NTYwOTc1NTUiIHdpZHRoPSI0Ljg3NzU2MDk3NTYwOTc1NTUiIHk9IjEzNi41ODE3MDczMTcwNzMxNSIgeD0iMTkwLjIzNDg3ODA0ODc4MDQ0Ii8+JiN4YTs8cmVjdCByeD0iMCIgaGVpZ2h0PSI0Ljg3NzU2MDk3NTYwOTc1NTUiIHdpZHRoPSI0Ljg3NzU2MDk3NTYwOTc1NTUiIHk9IjE0MS40NTkyNjgyOTI2ODI5IiB4PSIwLjAxIi8+JiN4YTs8cmVjdCByeD0iMCIgaGVpZ2h0PSI0Ljg3NzU2MDk3NTYwOTc1NTUiIHdpZHRoPSI0Ljg3NzU2MDk3NTYwOTc1NTUiIHk9IjE0MS40NTkyNjgyOTI2ODI5IiB4PSIxNC42NDI2ODI5MjY4MjkyNjYiLz4mI3hhOzxyZWN0IHJ4PSIwIiBoZWlnaHQ9IjQuODc3NTYwOTc1NjA5NzU1NSIgd2lkdGg9IjQuODc3NTYwOTc1NjA5NzU1NSIgeT0iMTQxLjQ1OTI2ODI5MjY4MjkiIHg9IjI0LjM5NzgwNDg3ODA0ODc3OCIvPiYjeGE7PHJlY3Qgcng9IjAiIGhlaWdodD0iNC44Nzc1NjA5NzU2MDk3NTU1IiB3aWR0aD0iNC44Nzc1NjA5NzU2MDk3NTU1IiB5PSIxNDEuNDU5MjY4MjkyNjgyOSIgeD0iNTMuNjYzMTcwNzMxNzA3MzEiLz4mI3hhOzxyZWN0IHJ4PSIwIiBoZWlnaHQ9IjQuODc3NTYwOTc1NjA5NzU1NSIgd2lkdGg9IjQuODc3NTYwOTc1NjA5NzU1NSIgeT0iMTQxLjQ1OTI2ODI5MjY4MjkiIHg9IjYzLjQxODI5MjY4MjkyNjgyIi8+JiN4YTs8cmVjdCByeD0iMCIgaGVpZ2h0PSI0Ljg3NzU2MDk3NTYwOTc1NTUiIHdpZHRoPSI0Ljg3NzU2MDk3NTYwOTc1NTUiIHk9IjE0MS40NTkyNjgyOTI2ODI5IiB4PSI4Ny44MDYwOTc1NjA5NzU2Ii8+JiN4YTs8cmVjdCByeD0iMCIgaGVpZ2h0PSI0Ljg3NzU2MDk3NTYwOTc1NTUiIHdpZHRoPSI0Ljg3NzU2MDk3NTYwOTc1NTUiIHk9IjE0MS40NTkyNjgyOTI2ODI5IiB4PSI5Mi42ODM2NTg1MzY1ODUzNiIvPiYjeGE7PHJlY3Qgcng9IjAiIGhlaWdodD0iNC44Nzc1NjA5NzU2MDk3NTU1IiB3aWR0aD0iNC44Nzc1NjA5NzU2MDk3NTU1IiB5PSIxNDEuNDU5MjY4MjkyNjgyOSIgeD0iOTcuNTYxMjE5NTEyMTk1MTEiLz4mI3hhOzxyZWN0IHJ4PSIwIiBoZWlnaHQ9IjQuODc3NTYwOTc1NjA5NzU1NSIgd2lkdGg9IjQuODc3NTYwOTc1NjA5NzU1NSIgeT0iMTQxLjQ1OTI2ODI5MjY4MjkiIHg9IjEwMi40Mzg3ODA0ODc4MDQ4OCIvPiYjeGE7PHJlY3Qgcng9IjAiIGhlaWdodD0iNC44Nzc1NjA5NzU2MDk3NTU1IiB3aWR0aD0iNC44Nzc1NjA5NzU2MDk3NTU1IiB5PSIxNDEuNDU5MjY4MjkyNjgyOSIgeD0iMTA3LjMxNjM0MTQ2MzQxNDYzIi8+JiN4YTs8cmVjdCByeD0iMCIgaGVpZ2h0PSI0Ljg3NzU2MDk3NTYwOTc1NTUiIHdpZHRoPSI0Ljg3NzU2MDk3NTYwOTc1NTUiIHk9IjE0MS40NTkyNjgyOTI2ODI5IiB4PSIxMTcuMDcxNDYzNDE0NjM0MTQiLz4mI3hhOzxyZWN0IHJ4PSIwIiBoZWlnaHQ9IjQuODc3NTYwOTc1NjA5NzU1NSIgd2lkdGg9IjQuODc3NTYwOTc1NjA5NzU1NSIgeT0iMTQxLjQ1OTI2ODI5MjY4MjkiIHg9IjEyMS45NDkwMjQzOTAyNDM4OSIvPiYjeGE7PHJlY3Qgcng9IjAiIGhlaWdodD0iNC44Nzc1NjA5NzU2MDk3NTU1IiB3aWR0aD0iNC44Nzc1NjA5NzU2MDk3NTU1IiB5PSIxNDEuNDU5MjY4MjkyNjgyOSIgeD0iMTI2LjgyNjU4NTM2NTg1MzY1Ii8+JiN4YTs8cmVjdCByeD0iMCIgaGVpZ2h0PSI0Ljg3NzU2MDk3NTYwOTc1NTUiIHdpZHRoPSI0Ljg3NzU2MDk3NTYwOTc1NTUiIHk9IjE0MS40NTkyNjgyOTI2ODI5IiB4PSIxMzEuNzA0MTQ2MzQxNDYzNCIvPiYjeGE7PHJlY3Qgcng9IjAiIGhlaWdodD0iNC44Nzc1NjA5NzU2MDk3NTU1IiB3aWR0aD0iNC44Nzc1NjA5NzU2MDk3NTU1IiB5PSIxNDEuNDU5MjY4MjkyNjgyOSIgeD0iMTQxLjQ1OTI2ODI5MjY4MjkiLz4mI3hhOzxyZWN0IHJ4PSIwIiBoZWlnaHQ9IjQuODc3NTYwOTc1NjA5NzU1NSIgd2lkdGg9IjQuODc3NTYwOTc1NjA5NzU1NSIgeT0iMTQxLjQ1OTI2ODI5MjY4MjkiIHg9IjE0Ni4zMzY4MjkyNjgyOTI2NiIvPiYjeGE7PHJlY3Qgcng9IjAiIGhlaWdodD0iNC44Nzc1NjA5NzU2MDk3NTU1IiB3aWR0aD0iNC44Nzc1NjA5NzU2MDk3NTU1IiB5PSIxNDEuNDU5MjY4MjkyNjgyOSIgeD0iMTU2LjA5MTk1MTIxOTUxMjE3Ii8+JiN4YTs8cmVjdCByeD0iMCIgaGVpZ2h0PSI0Ljg3NzU2MDk3NTYwOTc1NTUiIHdpZHRoPSI0Ljg3NzU2MDk3NTYwOTc1NTUiIHk9IjE0MS40NTkyNjgyOTI2ODI5IiB4PSIxNjAuOTY5NTEyMTk1MTIxOTIiLz4mI3hhOzxyZWN0IHJ4PSIwIiBoZWlnaHQ9IjQuODc3NTYwOTc1NjA5NzU1NSIgd2lkdGg9IjQuODc3NTYwOTc1NjA5NzU1NSIgeT0iMTQxLjQ1OTI2ODI5MjY4MjkiIHg9IjE3NS42MDIxOTUxMjE5NTExOCIvPiYjeGE7PHJlY3Qgcng9IjAiIGhlaWdodD0iNC44Nzc1NjA5NzU2MDk3NTU1IiB3aWR0aD0iNC44Nzc1NjA5NzU2MDk3NTU1IiB5PSIxNDEuNDU5MjY4MjkyNjgyOSIgeD0iMTgwLjQ3OTc1NjA5NzU2MDk0Ii8+JiN4YTs8cmVjdCByeD0iMCIgaGVpZ2h0PSI0Ljg3NzU2MDk3NTYwOTc1NTUiIHdpZHRoPSI0Ljg3NzU2MDk3NTYwOTc1NTUiIHk9IjE0MS40NTkyNjgyOTI2ODI5IiB4PSIxODUuMzU3MzE3MDczMTcwNyIvPiYjeGE7PHJlY3Qgcng9IjAiIGhlaWdodD0iNC44Nzc1NjA5NzU2MDk3NTU1IiB3aWR0aD0iNC44Nzc1NjA5NzU2MDk3NTU1IiB5PSIxNDEuNDU5MjY4MjkyNjgyOSIgeD0iMTkwLjIzNDg3ODA0ODc4MDQ0Ii8+JiN4YTs8cmVjdCByeD0iMCIgaGVpZ2h0PSI0Ljg3NzU2MDk3NTYwOTc1NTUiIHdpZHRoPSI0Ljg3NzU2MDk3NTYwOTc1NTUiIHk9IjE0MS40NTkyNjgyOTI2ODI5IiB4PSIxOTUuMTEyNDM5MDI0MzkwMiIvPiYjeGE7PHJlY3Qgcng9IjAiIGhlaWdodD0iNC44Nzc1NjA5NzU2MDk3NTU1IiB3aWR0aD0iNC44Nzc1NjA5NzU2MDk3NTU1IiB5PSIxNDYuMzM2ODI5MjY4MjkyNjYiIHg9IjAuMDEiLz4mI3hhOzxyZWN0IHJ4PSIwIiBoZWlnaHQ9IjQuODc3NTYwOTc1NjA5NzU1NSIgd2lkdGg9IjQuODc3NTYwOTc1NjA5NzU1NSIgeT0iMTQ2LjMzNjgyOTI2ODI5MjY2IiB4PSI5Ljc2NTEyMTk1MTIxOTUxIi8+JiN4YTs8cmVjdCByeD0iMCIgaGVpZ2h0PSI0Ljg3NzU2MDk3NTYwOTc1NTUiIHdpZHRoPSI0Ljg3NzU2MDk3NTYwOTc1NTUiIHk9IjE0Ni4zMzY4MjkyNjgyOTI2NiIgeD0iMjQuMzk3ODA0ODc4MDQ4Nzc4Ii8+JiN4YTs8cmVjdCByeD0iMCIgaGVpZ2h0PSI0Ljg3NzU2MDk3NTYwOTc1NTUiIHdpZHRoPSI0Ljg3NzU2MDk3NTYwOTc1NTUiIHk9IjE0Ni4zMzY4MjkyNjgyOTI2NiIgeD0iMjkuMjc1MzY1ODUzNjU4NTM1Ii8+JiN4YTs8cmVjdCByeD0iMCIgaGVpZ2h0PSI0Ljg3NzU2MDk3NTYwOTc1NTUiIHdpZHRoPSI0Ljg3NzU2MDk3NTYwOTc1NTUiIHk9IjE0Ni4zMzY4MjkyNjgyOTI2NiIgeD0iNDMuOTA4MDQ4NzgwNDg3Nzk2Ii8+JiN4YTs8cmVjdCByeD0iMCIgaGVpZ2h0PSI0Ljg3NzU2MDk3NTYwOTc1NTUiIHdpZHRoPSI0Ljg3NzU2MDk3NTYwOTc1NTUiIHk9IjE0Ni4zMzY4MjkyNjgyOTI2NiIgeD0iNDguNzg1NjA5NzU2MDk3NTUiLz4mI3hhOzxyZWN0IHJ4PSIwIiBoZWlnaHQ9IjQuODc3NTYwOTc1NjA5NzU1NSIgd2lkdGg9IjQuODc3NTYwOTc1NjA5NzU1NSIgeT0iMTQ2LjMzNjgyOTI2ODI5MjY2IiB4PSI1OC41NDA3MzE3MDczMTcwNjUiLz4mI3hhOzxyZWN0IHJ4PSIwIiBoZWlnaHQ9IjQuODc3NTYwOTc1NjA5NzU1NSIgd2lkdGg9IjQuODc3NTYwOTc1NjA5NzU1NSIgeT0iMTQ2LjMzNjgyOTI2ODI5MjY2IiB4PSI2My40MTgyOTI2ODI5MjY4MiIvPiYjeGE7PHJlY3Qgcng9IjAiIGhlaWdodD0iNC44Nzc1NjA5NzU2MDk3NTU1IiB3aWR0aD0iNC44Nzc1NjA5NzU2MDk3NTU1IiB5PSIxNDYuMzM2ODI5MjY4MjkyNjYiIHg9Ijc4LjA1MDk3NTYwOTc1NjEiLz4mI3hhOzxyZWN0IHJ4PSIwIiBoZWlnaHQ9IjQuODc3NTYwOTc1NjA5NzU1NSIgd2lkdGg9IjQuODc3NTYwOTc1NjA5NzU1NSIgeT0iMTQ2LjMzNjgyOTI2ODI5MjY2IiB4PSI4Mi45Mjg1MzY1ODUzNjU4NSIvPiYjeGE7PHJlY3Qgcng9IjAiIGhlaWdodD0iNC44Nzc1NjA5NzU2MDk3NTU1IiB3aWR0aD0iNC44Nzc1NjA5NzU2MDk3NTU1IiB5PSIxNDYuMzM2ODI5MjY4MjkyNjYiIHg9Ijk3LjU2MTIxOTUxMjE5NTExIi8+JiN4YTs8cmVjdCByeD0iMCIgaGVpZ2h0PSI0Ljg3NzU2MDk3NTYwOTc1NTUiIHdpZHRoPSI0Ljg3NzU2MDk3NTYwOTc1NTUiIHk9IjE0Ni4zMzY4MjkyNjgyOTI2NiIgeD0iMTE3LjA3MTQ2MzQxNDYzNDE0Ii8+JiN4YTs8cmVjdCByeD0iMCIgaGVpZ2h0PSI0Ljg3NzU2MDk3NTYwOTc1NTUiIHdpZHRoPSI0Ljg3NzU2MDk3NTYwOTc1NTUiIHk9IjE0Ni4zMzY4MjkyNjgyOTI2NiIgeD0iMTI2LjgyNjU4NTM2NTg1MzY1Ii8+JiN4YTs8cmVjdCByeD0iMCIgaGVpZ2h0PSI0Ljg3NzU2MDk3NTYwOTc1NTUiIHdpZHRoPSI0Ljg3NzU2MDk3NTYwOTc1NTUiIHk9IjE0Ni4zMzY4MjkyNjgyOTI2NiIgeD0iMTMxLjcwNDE0NjM0MTQ2MzQiLz4mI3hhOzxyZWN0IHJ4PSIwIiBoZWlnaHQ9IjQuODc3NTYwOTc1NjA5NzU1NSIgd2lkdGg9IjQuODc3NTYwOTc1NjA5NzU1NSIgeT0iMTQ2LjMzNjgyOTI2ODI5MjY2IiB4PSIxMzYuNTgxNzA3MzE3MDczMTUiLz4mI3hhOzxyZWN0IHJ4PSIwIiBoZWlnaHQ9IjQuODc3NTYwOTc1NjA5NzU1NSIgd2lkdGg9IjQuODc3NTYwOTc1NjA5NzU1NSIgeT0iMTQ2LjMzNjgyOTI2ODI5MjY2IiB4PSIxNTEuMjE0MzkwMjQzOTAyNDEiLz4mI3hhOzxyZWN0IHJ4PSIwIiBoZWlnaHQ9IjQuODc3NTYwOTc1NjA5NzU1NSIgd2lkdGg9IjQuODc3NTYwOTc1NjA5NzU1NSIgeT0iMTQ2LjMzNjgyOTI2ODI5MjY2IiB4PSIxNjAuOTY5NTEyMTk1MTIxOTIiLz4mI3hhOzxyZWN0IHJ4PSIwIiBoZWlnaHQ9IjQuODc3NTYwOTc1NjA5NzU1NSIgd2lkdGg9IjQuODc3NTYwOTc1NjA5NzU1NSIgeT0iMTQ2LjMzNjgyOTI2ODI5MjY2IiB4PSIxNjUuODQ3MDczMTcwNzMxNjgiLz4mI3hhOzxyZWN0IHJ4PSIwIiBoZWlnaHQ9IjQuODc3NTYwOTc1NjA5NzU1NSIgd2lkdGg9IjQuODc3NTYwOTc1NjA5NzU1NSIgeT0iMTQ2LjMzNjgyOTI2ODI5MjY2IiB4PSIxNzAuNzI0NjM0MTQ2MzQxNDMiLz4mI3hhOzxyZWN0IHJ4PSIwIiBoZWlnaHQ9IjQuODc3NTYwOTc1NjA5NzU1NSIgd2lkdGg9IjQuODc3NTYwOTc1NjA5NzU1NSIgeT0iMTQ2LjMzNjgyOTI2ODI5MjY2IiB4PSIxNzUuNjAyMTk1MTIxOTUxMTgiLz4mI3hhOzxyZWN0IHJ4PSIwIiBoZWlnaHQ9IjQuODc3NTYwOTc1NjA5NzU1NSIgd2lkdGg9IjQuODc3NTYwOTc1NjA5NzU1NSIgeT0iMTQ2LjMzNjgyOTI2ODI5MjY2IiB4PSIxODAuNDc5NzU2MDk3NTYwOTQiLz4mI3hhOzxyZWN0IHJ4PSIwIiBoZWlnaHQ9IjQuODc3NTYwOTc1NjA5NzU1NSIgd2lkdGg9IjQuODc3NTYwOTc1NjA5NzU1NSIgeT0iMTQ2LjMzNjgyOTI2ODI5MjY2IiB4PSIxODUuMzU3MzE3MDczMTcwNyIvPiYjeGE7PHJlY3Qgcng9IjAiIGhlaWdodD0iNC44Nzc1NjA5NzU2MDk3NTU1IiB3aWR0aD0iNC44Nzc1NjA5NzU2MDk3NTU1IiB5PSIxNDYuMzM2ODI5MjY4MjkyNjYiIHg9IjE5MC4yMzQ4NzgwNDg3ODA0NCIvPiYjeGE7PHJlY3Qgcng9IjAiIGhlaWdodD0iNC44Nzc1NjA5NzU2MDk3NTU1IiB3aWR0aD0iNC44Nzc1NjA5NzU2MDk3NTU1IiB5PSIxNTEuMjE0MzkwMjQzOTAyNDEiIHg9IjAuMDEiLz4mI3hhOzxyZWN0IHJ4PSIwIiBoZWlnaHQ9IjQuODc3NTYwOTc1NjA5NzU1NSIgd2lkdGg9IjQuODc3NTYwOTc1NjA5NzU1NSIgeT0iMTUxLjIxNDM5MDI0MzkwMjQxIiB4PSI5Ljc2NTEyMTk1MTIxOTUxIi8+JiN4YTs8cmVjdCByeD0iMCIgaGVpZ2h0PSI0Ljg3NzU2MDk3NTYwOTc1NTUiIHdpZHRoPSI0Ljg3NzU2MDk3NTYwOTc1NTUiIHk9IjE1MS4yMTQzOTAyNDM5MDI0MSIgeD0iMTQuNjQyNjgyOTI2ODI5MjY2Ii8+JiN4YTs8cmVjdCByeD0iMCIgaGVpZ2h0PSI0Ljg3NzU2MDk3NTYwOTc1NTUiIHdpZHRoPSI0Ljg3NzU2MDk3NTYwOTc1NTUiIHk9IjE1MS4yMTQzOTAyNDM5MDI0MSIgeD0iNDMuOTA4MDQ4NzgwNDg3Nzk2Ii8+JiN4YTs8cmVjdCByeD0iMCIgaGVpZ2h0PSI0Ljg3NzU2MDk3NTYwOTc1NTUiIHdpZHRoPSI0Ljg3NzU2MDk3NTYwOTc1NTUiIHk9IjE1MS4yMTQzOTAyNDM5MDI0MSIgeD0iNTMuNjYzMTcwNzMxNzA3MzEiLz4mI3hhOzxyZWN0IHJ4PSIwIiBoZWlnaHQ9IjQuODc3NTYwOTc1NjA5NzU1NSIgd2lkdGg9IjQuODc3NTYwOTc1NjA5NzU1NSIgeT0iMTUxLjIxNDM5MDI0MzkwMjQxIiB4PSI2My40MTgyOTI2ODI5MjY4MiIvPiYjeGE7PHJlY3Qgcng9IjAiIGhlaWdodD0iNC44Nzc1NjA5NzU2MDk3NTU1IiB3aWR0aD0iNC44Nzc1NjA5NzU2MDk3NTU1IiB5PSIxNTEuMjE0MzkwMjQzOTAyNDEiIHg9IjczLjE3MzQxNDYzNDE0NjM0Ii8+JiN4YTs8cmVjdCByeD0iMCIgaGVpZ2h0PSI0Ljg3NzU2MDk3NTYwOTc1NTUiIHdpZHRoPSI0Ljg3NzU2MDk3NTYwOTc1NTUiIHk9IjE1MS4yMTQzOTAyNDM5MDI0MSIgeD0iNzguMDUwOTc1NjA5NzU2MSIvPiYjeGE7PHJlY3Qgcng9IjAiIGhlaWdodD0iNC44Nzc1NjA5NzU2MDk3NTU1IiB3aWR0aD0iNC44Nzc1NjA5NzU2MDk3NTU1IiB5PSIxNTEuMjE0MzkwMjQzOTAyNDEiIHg9Ijg3LjgwNjA5NzU2MDk3NTYiLz4mI3hhOzxyZWN0IHJ4PSIwIiBoZWlnaHQ9IjQuODc3NTYwOTc1NjA5NzU1NSIgd2lkdGg9IjQuODc3NTYwOTc1NjA5NzU1NSIgeT0iMTUxLjIxNDM5MDI0MzkwMjQxIiB4PSI5Mi42ODM2NTg1MzY1ODUzNiIvPiYjeGE7PHJlY3Qgcng9IjAiIGhlaWdodD0iNC44Nzc1NjA5NzU2MDk3NTU1IiB3aWR0aD0iNC44Nzc1NjA5NzU2MDk3NTU1IiB5PSIxNTEuMjE0MzkwMjQzOTAyNDEiIHg9IjEwNy4zMTYzNDE0NjM0MTQ2MyIvPiYjeGE7PHJlY3Qgcng9IjAiIGhlaWdodD0iNC44Nzc1NjA5NzU2MDk3NTU1IiB3aWR0aD0iNC44Nzc1NjA5NzU2MDk3NTU1IiB5PSIxNTEuMjE0MzkwMjQzOTAyNDEiIHg9IjExNy4wNzE0NjM0MTQ2MzQxNCIvPiYjeGE7PHJlY3Qgcng9IjAiIGhlaWdodD0iNC44Nzc1NjA5NzU2MDk3NTU1IiB3aWR0aD0iNC44Nzc1NjA5NzU2MDk3NTU1IiB5PSIxNTEuMjE0MzkwMjQzOTAyNDEiIHg9IjEyMS45NDkwMjQzOTAyNDM4OSIvPiYjeGE7PHJlY3Qgcng9IjAiIGhlaWdodD0iNC44Nzc1NjA5NzU2MDk3NTU1IiB3aWR0aD0iNC44Nzc1NjA5NzU2MDk3NTU1IiB5PSIxNTEuMjE0MzkwMjQzOTAyNDEiIHg9IjEyNi44MjY1ODUzNjU4NTM2NSIvPiYjeGE7PHJlY3Qgcng9IjAiIGhlaWdodD0iNC44Nzc1NjA5NzU2MDk3NTU1IiB3aWR0aD0iNC44Nzc1NjA5NzU2MDk3NTU1IiB5PSIxNTEuMjE0MzkwMjQzOTAyNDEiIHg9IjEzMS43MDQxNDYzNDE0NjM0Ii8+JiN4YTs8cmVjdCByeD0iMCIgaGVpZ2h0PSI0Ljg3NzU2MDk3NTYwOTc1NTUiIHdpZHRoPSI0Ljg3NzU2MDk3NTYwOTc1NTUiIHk9IjE1MS4yMTQzOTAyNDM5MDI0MSIgeD0iMTUxLjIxNDM5MDI0MzkwMjQxIi8+JiN4YTs8cmVjdCByeD0iMCIgaGVpZ2h0PSI0Ljg3NzU2MDk3NTYwOTc1NTUiIHdpZHRoPSI0Ljg3NzU2MDk3NTYwOTc1NTUiIHk9IjE1MS4yMTQzOTAyNDM5MDI0MSIgeD0iMTU2LjA5MTk1MTIxOTUxMjE3Ii8+JiN4YTs8cmVjdCByeD0iMCIgaGVpZ2h0PSI0Ljg3NzU2MDk3NTYwOTc1NTUiIHdpZHRoPSI0Ljg3NzU2MDk3NTYwOTc1NTUiIHk9IjE1MS4yMTQzOTAyNDM5MDI0MSIgeD0iMTYwLjk2OTUxMjE5NTEyMTkyIi8+JiN4YTs8cmVjdCByeD0iMCIgaGVpZ2h0PSI0Ljg3NzU2MDk3NTYwOTc1NTUiIHdpZHRoPSI0Ljg3NzU2MDk3NTYwOTc1NTUiIHk9IjE1MS4yMTQzOTAyNDM5MDI0MSIgeD0iMTY1Ljg0NzA3MzE3MDczMTY4Ii8+JiN4YTs8cmVjdCByeD0iMCIgaGVpZ2h0PSI0Ljg3NzU2MDk3NTYwOTc1NTUiIHdpZHRoPSI0Ljg3NzU2MDk3NTYwOTc1NTUiIHk9IjE1MS4yMTQzOTAyNDM5MDI0MSIgeD0iMTcwLjcyNDYzNDE0NjM0MTQzIi8+JiN4YTs8cmVjdCByeD0iMCIgaGVpZ2h0PSI0Ljg3NzU2MDk3NTYwOTc1NTUiIHdpZHRoPSI0Ljg3NzU2MDk3NTYwOTc1NTUiIHk9IjE1MS4yMTQzOTAyNDM5MDI0MSIgeD0iMTgwLjQ3OTc1NjA5NzU2MDk0Ii8+JiN4YTs8cmVjdCByeD0iMCIgaGVpZ2h0PSI0Ljg3NzU2MDk3NTYwOTc1NTUiIHdpZHRoPSI0Ljg3NzU2MDk3NTYwOTc1NTUiIHk9IjE1MS4yMTQzOTAyNDM5MDI0MSIgeD0iMTkwLjIzNDg3ODA0ODc4MDQ0Ii8+JiN4YTs8cmVjdCByeD0iMCIgaGVpZ2h0PSI0Ljg3NzU2MDk3NTYwOTc1NTUiIHdpZHRoPSI0Ljg3NzU2MDk3NTYwOTc1NTUiIHk9IjE1Ni4wOTE5NTEyMTk1MTIxNyIgeD0iMC4wMSIvPiYjeGE7PHJlY3Qgcng9IjAiIGhlaWdodD0iNC44Nzc1NjA5NzU2MDk3NTU1IiB3aWR0aD0iNC44Nzc1NjA5NzU2MDk3NTU1IiB5PSIxNTYuMDkxOTUxMjE5NTEyMTciIHg9IjkuNzY1MTIxOTUxMjE5NTEiLz4mI3hhOzxyZWN0IHJ4PSIwIiBoZWlnaHQ9IjQuODc3NTYwOTc1NjA5NzU1NSIgd2lkdGg9IjQuODc3NTYwOTc1NjA5NzU1NSIgeT0iMTU2LjA5MTk1MTIxOTUxMjE3IiB4PSIxNC42NDI2ODI5MjY4MjkyNjYiLz4mI3hhOzxyZWN0IHJ4PSIwIiBoZWlnaHQ9IjQuODc3NTYwOTc1NjA5NzU1NSIgd2lkdGg9IjQuODc3NTYwOTc1NjA5NzU1NSIgeT0iMTU2LjA5MTk1MTIxOTUxMjE3IiB4PSIyOS4yNzUzNjU4NTM2NTg1MzUiLz4mI3hhOzxyZWN0IHJ4PSIwIiBoZWlnaHQ9IjQuODc3NTYwOTc1NjA5NzU1NSIgd2lkdGg9IjQuODc3NTYwOTc1NjA5NzU1NSIgeT0iMTU2LjA5MTk1MTIxOTUxMjE3IiB4PSI0My45MDgwNDg3ODA0ODc3OTYiLz4mI3hhOzxyZWN0IHJ4PSIwIiBoZWlnaHQ9IjQuODc3NTYwOTc1NjA5NzU1NSIgd2lkdGg9IjQuODc3NTYwOTc1NjA5NzU1NSIgeT0iMTU2LjA5MTk1MTIxOTUxMjE3IiB4PSI0OC43ODU2MDk3NTYwOTc1NSIvPiYjeGE7PHJlY3Qgcng9IjAiIGhlaWdodD0iNC44Nzc1NjA5NzU2MDk3NTU1IiB3aWR0aD0iNC44Nzc1NjA5NzU2MDk3NTU1IiB5PSIxNTYuMDkxOTUxMjE5NTEyMTciIHg9IjU4LjU0MDczMTcwNzMxNzA2NSIvPiYjeGE7PHJlY3Qgcng9IjAiIGhlaWdodD0iNC44Nzc1NjA5NzU2MDk3NTU1IiB3aWR0aD0iNC44Nzc1NjA5NzU2MDk3NTU1IiB5PSIxNTYuMDkxOTUxMjE5NTEyMTciIHg9IjYzLjQxODI5MjY4MjkyNjgyIi8+JiN4YTs8cmVjdCByeD0iMCIgaGVpZ2h0PSI0Ljg3NzU2MDk3NTYwOTc1NTUiIHdpZHRoPSI0Ljg3NzU2MDk3NTYwOTc1NTUiIHk9IjE1Ni4wOTE5NTEyMTk1MTIxNyIgeD0iODIuOTI4NTM2NTg1MzY1ODUiLz4mI3hhOzxyZWN0IHJ4PSIwIiBoZWlnaHQ9IjQuODc3NTYwOTc1NjA5NzU1NSIgd2lkdGg9IjQuODc3NTYwOTc1NjA5NzU1NSIgeT0iMTU2LjA5MTk1MTIxOTUxMjE3IiB4PSI4Ny44MDYwOTc1NjA5NzU2Ii8+JiN4YTs8cmVjdCByeD0iMCIgaGVpZ2h0PSI0Ljg3NzU2MDk3NTYwOTc1NTUiIHdpZHRoPSI0Ljg3NzU2MDk3NTYwOTc1NTUiIHk9IjE1Ni4wOTE5NTEyMTk1MTIxNyIgeD0iOTcuNTYxMjE5NTEyMTk1MTEiLz4mI3hhOzxyZWN0IHJ4PSIwIiBoZWlnaHQ9IjQuODc3NTYwOTc1NjA5NzU1NSIgd2lkdGg9IjQuODc3NTYwOTc1NjA5NzU1NSIgeT0iMTU2LjA5MTk1MTIxOTUxMjE3IiB4PSIxMDIuNDM4NzgwNDg3ODA0ODgiLz4mI3hhOzxyZWN0IHJ4PSIwIiBoZWlnaHQ9IjQuODc3NTYwOTc1NjA5NzU1NSIgd2lkdGg9IjQuODc3NTYwOTc1NjA5NzU1NSIgeT0iMTU2LjA5MTk1MTIxOTUxMjE3IiB4PSIxMjEuOTQ5MDI0MzkwMjQzODkiLz4mI3hhOzxyZWN0IHJ4PSIwIiBoZWlnaHQ9IjQuODc3NTYwOTc1NjA5NzU1NSIgd2lkdGg9IjQuODc3NTYwOTc1NjA5NzU1NSIgeT0iMTU2LjA5MTk1MTIxOTUxMjE3IiB4PSIxMzEuNzA0MTQ2MzQxNDYzNCIvPiYjeGE7PHJlY3Qgcng9IjAiIGhlaWdodD0iNC44Nzc1NjA5NzU2MDk3NTU1IiB3aWR0aD0iNC44Nzc1NjA5NzU2MDk3NTU1IiB5PSIxNTYuMDkxOTUxMjE5NTEyMTciIHg9IjEzNi41ODE3MDczMTcwNzMxNSIvPiYjeGE7PHJlY3Qgcng9IjAiIGhlaWdodD0iNC44Nzc1NjA5NzU2MDk3NTU1IiB3aWR0aD0iNC44Nzc1NjA5NzU2MDk3NTU1IiB5PSIxNTYuMDkxOTUxMjE5NTEyMTciIHg9IjE0MS40NTkyNjgyOTI2ODI5Ii8+JiN4YTs8cmVjdCByeD0iMCIgaGVpZ2h0PSI0Ljg3NzU2MDk3NTYwOTc1NTUiIHdpZHRoPSI0Ljg3NzU2MDk3NTYwOTc1NTUiIHk9IjE1Ni4wOTE5NTEyMTk1MTIxNyIgeD0iMTQ2LjMzNjgyOTI2ODI5MjY2Ii8+JiN4YTs8cmVjdCByeD0iMCIgaGVpZ2h0PSI0Ljg3NzU2MDk3NTYwOTc1NTUiIHdpZHRoPSI0Ljg3NzU2MDk3NTYwOTc1NTUiIHk9IjE1Ni4wOTE5NTEyMTk1MTIxNyIgeD0iMTUxLjIxNDM5MDI0MzkwMjQxIi8+JiN4YTs8cmVjdCByeD0iMCIgaGVpZ2h0PSI0Ljg3NzU2MDk3NTYwOTc1NTUiIHdpZHRoPSI0Ljg3NzU2MDk3NTYwOTc1NTUiIHk9IjE1Ni4wOTE5NTEyMTk1MTIxNyIgeD0iMTU2LjA5MTk1MTIxOTUxMjE3Ii8+JiN4YTs8cmVjdCByeD0iMCIgaGVpZ2h0PSI0Ljg3NzU2MDk3NTYwOTc1NTUiIHdpZHRoPSI0Ljg3NzU2MDk3NTYwOTc1NTUiIHk9IjE1Ni4wOTE5NTEyMTk1MTIxNyIgeD0iMTYwLjk2OTUxMjE5NTEyMTkyIi8+JiN4YTs8cmVjdCByeD0iMCIgaGVpZ2h0PSI0Ljg3NzU2MDk3NTYwOTc1NTUiIHdpZHRoPSI0Ljg3NzU2MDk3NTYwOTc1NTUiIHk9IjE1Ni4wOTE5NTEyMTk1MTIxNyIgeD0iMTY1Ljg0NzA3MzE3MDczMTY4Ii8+JiN4YTs8cmVjdCByeD0iMCIgaGVpZ2h0PSI0Ljg3NzU2MDk3NTYwOTc1NTUiIHdpZHRoPSI0Ljg3NzU2MDk3NTYwOTc1NTUiIHk9IjE1Ni4wOTE5NTEyMTk1MTIxNyIgeD0iMTcwLjcyNDYzNDE0NjM0MTQzIi8+JiN4YTs8cmVjdCByeD0iMCIgaGVpZ2h0PSI0Ljg3NzU2MDk3NTYwOTc1NTUiIHdpZHRoPSI0Ljg3NzU2MDk3NTYwOTc1NTUiIHk9IjE1Ni4wOTE5NTEyMTk1MTIxNyIgeD0iMTc1LjYwMjE5NTEyMTk1MTE4Ii8+JiN4YTs8cmVjdCByeD0iMCIgaGVpZ2h0PSI0Ljg3NzU2MDk3NTYwOTc1NTUiIHdpZHRoPSI0Ljg3NzU2MDk3NTYwOTc1NTUiIHk9IjE1Ni4wOTE5NTEyMTk1MTIxNyIgeD0iMTg1LjM1NzMxNzA3MzE3MDciLz4mI3hhOzxyZWN0IHJ4PSIwIiBoZWlnaHQ9IjQuODc3NTYwOTc1NjA5NzU1NSIgd2lkdGg9IjQuODc3NTYwOTc1NjA5NzU1NSIgeT0iMTU2LjA5MTk1MTIxOTUxMjE3IiB4PSIxOTAuMjM0ODc4MDQ4NzgwNDQiLz4mI3hhOzxyZWN0IHJ4PSIwIiBoZWlnaHQ9IjQuODc3NTYwOTc1NjA5NzU1NSIgd2lkdGg9IjQuODc3NTYwOTc1NjA5NzU1NSIgeT0iMTYwLjk2OTUxMjE5NTEyMTkyIiB4PSIzOS4wMzA0ODc4MDQ4NzgwNCIvPiYjeGE7PHJlY3Qgcng9IjAiIGhlaWdodD0iNC44Nzc1NjA5NzU2MDk3NTU1IiB3aWR0aD0iNC44Nzc1NjA5NzU2MDk3NTU1IiB5PSIxNjAuOTY5NTEyMTk1MTIxOTIiIHg9IjQzLjkwODA0ODc4MDQ4Nzc5NiIvPiYjeGE7PHJlY3Qgcng9IjAiIGhlaWdodD0iNC44Nzc1NjA5NzU2MDk3NTU1IiB3aWR0aD0iNC44Nzc1NjA5NzU2MDk3NTU1IiB5PSIxNjAuOTY5NTEyMTk1MTIxOTIiIHg9IjQ4Ljc4NTYwOTc1NjA5NzU1Ii8+JiN4YTs8cmVjdCByeD0iMCIgaGVpZ2h0PSI0Ljg3NzU2MDk3NTYwOTc1NTUiIHdpZHRoPSI0Ljg3NzU2MDk3NTYwOTc1NTUiIHk9IjE2MC45Njk1MTIxOTUxMjE5MiIgeD0iNjMuNDE4MjkyNjgyOTI2ODIiLz4mI3hhOzxyZWN0IHJ4PSIwIiBoZWlnaHQ9IjQuODc3NTYwOTc1NjA5NzU1NSIgd2lkdGg9IjQuODc3NTYwOTc1NjA5NzU1NSIgeT0iMTYwLjk2OTUxMjE5NTEyMTkyIiB4PSI4Mi45Mjg1MzY1ODUzNjU4NSIvPiYjeGE7PHJlY3Qgcng9IjAiIGhlaWdodD0iNC44Nzc1NjA5NzU2MDk3NTU1IiB3aWR0aD0iNC44Nzc1NjA5NzU2MDk3NTU1IiB5PSIxNjAuOTY5NTEyMTk1MTIxOTIiIHg9Ijg3LjgwNjA5NzU2MDk3NTYiLz4mI3hhOzxyZWN0IHJ4PSIwIiBoZWlnaHQ9IjQuODc3NTYwOTc1NjA5NzU1NSIgd2lkdGg9IjQuODc3NTYwOTc1NjA5NzU1NSIgeT0iMTYwLjk2OTUxMjE5NTEyMTkyIiB4PSI5Mi42ODM2NTg1MzY1ODUzNiIvPiYjeGE7PHJlY3Qgcng9IjAiIGhlaWdodD0iNC44Nzc1NjA5NzU2MDk3NTU1IiB3aWR0aD0iNC44Nzc1NjA5NzU2MDk3NTU1IiB5PSIxNjAuOTY5NTEyMTk1MTIxOTIiIHg9Ijk3LjU2MTIxOTUxMjE5NTExIi8+JiN4YTs8cmVjdCByeD0iMCIgaGVpZ2h0PSI0Ljg3NzU2MDk3NTYwOTc1NTUiIHdpZHRoPSI0Ljg3NzU2MDk3NTYwOTc1NTUiIHk9IjE2MC45Njk1MTIxOTUxMjE5MiIgeD0iMTAyLjQzODc4MDQ4NzgwNDg4Ii8+JiN4YTs8cmVjdCByeD0iMCIgaGVpZ2h0PSI0Ljg3NzU2MDk3NTYwOTc1NTUiIHdpZHRoPSI0Ljg3NzU2MDk3NTYwOTc1NTUiIHk9IjE2MC45Njk1MTIxOTUxMjE5MiIgeD0iMTEyLjE5MzkwMjQzOTAyNDM4Ii8+JiN4YTs8cmVjdCByeD0iMCIgaGVpZ2h0PSI0Ljg3NzU2MDk3NTYwOTc1NTUiIHdpZHRoPSI0Ljg3NzU2MDk3NTYwOTc1NTUiIHk9IjE2MC45Njk1MTIxOTUxMjE5MiIgeD0iMTE3LjA3MTQ2MzQxNDYzNDE0Ii8+JiN4YTs8cmVjdCByeD0iMCIgaGVpZ2h0PSI0Ljg3NzU2MDk3NTYwOTc1NTUiIHdpZHRoPSI0Ljg3NzU2MDk3NTYwOTc1NTUiIHk9IjE2MC45Njk1MTIxOTUxMjE5MiIgeD0iMTI2LjgyNjU4NTM2NTg1MzY1Ii8+JiN4YTs8cmVjdCByeD0iMCIgaGVpZ2h0PSI0Ljg3NzU2MDk3NTYwOTc1NTUiIHdpZHRoPSI0Ljg3NzU2MDk3NTYwOTc1NTUiIHk9IjE2MC45Njk1MTIxOTUxMjE5MiIgeD0iMTQxLjQ1OTI2ODI5MjY4MjkiLz4mI3hhOzxyZWN0IHJ4PSIwIiBoZWlnaHQ9IjQuODc3NTYwOTc1NjA5NzU1NSIgd2lkdGg9IjQuODc3NTYwOTc1NjA5NzU1NSIgeT0iMTYwLjk2OTUxMjE5NTEyMTkyIiB4PSIxNDYuMzM2ODI5MjY4MjkyNjYiLz4mI3hhOzxyZWN0IHJ4PSIwIiBoZWlnaHQ9IjQuODc3NTYwOTc1NjA5NzU1NSIgd2lkdGg9IjQuODc3NTYwOTc1NjA5NzU1NSIgeT0iMTYwLjk2OTUxMjE5NTEyMTkyIiB4PSIxNTYuMDkxOTUxMjE5NTEyMTciLz4mI3hhOzxyZWN0IHJ4PSIwIiBoZWlnaHQ9IjQuODc3NTYwOTc1NjA5NzU1NSIgd2lkdGg9IjQuODc3NTYwOTc1NjA5NzU1NSIgeT0iMTYwLjk2OTUxMjE5NTEyMTkyIiB4PSIxNzUuNjAyMTk1MTIxOTUxMTgiLz4mI3hhOzxyZWN0IHJ4PSIwIiBoZWlnaHQ9IjQuODc3NTYwOTc1NjA5NzU1NSIgd2lkdGg9IjQuODc3NTYwOTc1NjA5NzU1NSIgeT0iMTYwLjk2OTUxMjE5NTEyMTkyIiB4PSIxODAuNDc5NzU2MDk3NTYwOTQiLz4mI3hhOzxyZWN0IHJ4PSIwIiBoZWlnaHQ9IjQuODc3NTYwOTc1NjA5NzU1NSIgd2lkdGg9IjQuODc3NTYwOTc1NjA5NzU1NSIgeT0iMTYwLjk2OTUxMjE5NTEyMTkyIiB4PSIxODUuMzU3MzE3MDczMTcwNyIvPiYjeGE7PHJlY3Qgcng9IjAiIGhlaWdodD0iNC44Nzc1NjA5NzU2MDk3NTU1IiB3aWR0aD0iNC44Nzc1NjA5NzU2MDk3NTU1IiB5PSIxNjAuOTY5NTEyMTk1MTIxOTIiIHg9IjE5MC4yMzQ4NzgwNDg3ODA0NCIvPiYjeGE7PHJlY3Qgcng9IjAiIGhlaWdodD0iNC44Nzc1NjA5NzU2MDk3NTU1IiB3aWR0aD0iNC44Nzc1NjA5NzU2MDk3NTU1IiB5PSIxNjAuOTY5NTEyMTk1MTIxOTIiIHg9IjE5NS4xMTI0MzkwMjQzOTAyIi8+JiN4YTs8cmVjdCByeD0iMCIgaGVpZ2h0PSI0Ljg3NzU2MDk3NTYwOTc1NTUiIHdpZHRoPSI0Ljg3NzU2MDk3NTYwOTc1NTUiIHk9IjE2NS44NDcwNzMxNzA3MzE2OCIgeD0iNDMuOTA4MDQ4NzgwNDg3Nzk2Ii8+JiN4YTs8cmVjdCByeD0iMCIgaGVpZ2h0PSI0Ljg3NzU2MDk3NTYwOTc1NTUiIHdpZHRoPSI0Ljg3NzU2MDk3NTYwOTc1NTUiIHk9IjE2NS44NDcwNzMxNzA3MzE2OCIgeD0iNDguNzg1NjA5NzU2MDk3NTUiLz4mI3hhOzxyZWN0IHJ4PSIwIiBoZWlnaHQ9IjQuODc3NTYwOTc1NjA5NzU1NSIgd2lkdGg9IjQuODc3NTYwOTc1NjA5NzU1NSIgeT0iMTY1Ljg0NzA3MzE3MDczMTY4IiB4PSI1My42NjMxNzA3MzE3MDczMSIvPiYjeGE7PHJlY3Qgcng9IjAiIGhlaWdodD0iNC44Nzc1NjA5NzU2MDk3NTU1IiB3aWR0aD0iNC44Nzc1NjA5NzU2MDk3NTU1IiB5PSIxNjUuODQ3MDczMTcwNzMxNjgiIHg9IjU4LjU0MDczMTcwNzMxNzA2NSIvPiYjeGE7PHJlY3Qgcng9IjAiIGhlaWdodD0iNC44Nzc1NjA5NzU2MDk3NTU1IiB3aWR0aD0iNC44Nzc1NjA5NzU2MDk3NTU1IiB5PSIxNjUuODQ3MDczMTcwNzMxNjgiIHg9Ijc4LjA1MDk3NTYwOTc1NjEiLz4mI3hhOzxyZWN0IHJ4PSIwIiBoZWlnaHQ9IjQuODc3NTYwOTc1NjA5NzU1NSIgd2lkdGg9IjQuODc3NTYwOTc1NjA5NzU1NSIgeT0iMTY1Ljg0NzA3MzE3MDczMTY4IiB4PSI4Mi45Mjg1MzY1ODUzNjU4NSIvPiYjeGE7PHJlY3Qgcng9IjAiIGhlaWdodD0iNC44Nzc1NjA5NzU2MDk3NTU1IiB3aWR0aD0iNC44Nzc1NjA5NzU2MDk3NTU1IiB5PSIxNjUuODQ3MDczMTcwNzMxNjgiIHg9Ijg3LjgwNjA5NzU2MDk3NTYiLz4mI3hhOzxyZWN0IHJ4PSIwIiBoZWlnaHQ9IjQuODc3NTYwOTc1NjA5NzU1NSIgd2lkdGg9IjQuODc3NTYwOTc1NjA5NzU1NSIgeT0iMTY1Ljg0NzA3MzE3MDczMTY4IiB4PSI5Ny41NjEyMTk1MTIxOTUxMSIvPiYjeGE7PHJlY3Qgcng9IjAiIGhlaWdodD0iNC44Nzc1NjA5NzU2MDk3NTU1IiB3aWR0aD0iNC44Nzc1NjA5NzU2MDk3NTU1IiB5PSIxNjUuODQ3MDczMTcwNzMxNjgiIHg9IjEwMi40Mzg3ODA0ODc4MDQ4OCIvPiYjeGE7PHJlY3Qgcng9IjAiIGhlaWdodD0iNC44Nzc1NjA5NzU2MDk3NTU1IiB3aWR0aD0iNC44Nzc1NjA5NzU2MDk3NTU1IiB5PSIxNjUuODQ3MDczMTcwNzMxNjgiIHg9IjExMi4xOTM5MDI0MzkwMjQzOCIvPiYjeGE7PHJlY3Qgcng9IjAiIGhlaWdodD0iNC44Nzc1NjA5NzU2MDk3NTU1IiB3aWR0aD0iNC44Nzc1NjA5NzU2MDk3NTU1IiB5PSIxNjUuODQ3MDczMTcwNzMxNjgiIHg9IjExNy4wNzE0NjM0MTQ2MzQxNCIvPiYjeGE7PHJlY3Qgcng9IjAiIGhlaWdodD0iNC44Nzc1NjA5NzU2MDk3NTU1IiB3aWR0aD0iNC44Nzc1NjA5NzU2MDk3NTU1IiB5PSIxNjUuODQ3MDczMTcwNzMxNjgiIHg9IjEyNi44MjY1ODUzNjU4NTM2NSIvPiYjeGE7PHJlY3Qgcng9IjAiIGhlaWdodD0iNC44Nzc1NjA5NzU2MDk3NTU1IiB3aWR0aD0iNC44Nzc1NjA5NzU2MDk3NTU1IiB5PSIxNjUuODQ3MDczMTcwNzMxNjgiIHg9IjEzMS43MDQxNDYzNDE0NjM0Ii8+JiN4YTs8cmVjdCByeD0iMCIgaGVpZ2h0PSI0Ljg3NzU2MDk3NTYwOTc1NTUiIHdpZHRoPSI0Ljg3NzU2MDk3NTYwOTc1NTUiIHk9IjE2NS44NDcwNzMxNzA3MzE2OCIgeD0iMTM2LjU4MTcwNzMxNzA3MzE1Ii8+JiN4YTs8cmVjdCByeD0iMCIgaGVpZ2h0PSI0Ljg3NzU2MDk3NTYwOTc1NTUiIHdpZHRoPSI0Ljg3NzU2MDk3NTYwOTc1NTUiIHk9IjE2NS44NDcwNzMxNzA3MzE2OCIgeD0iMTQxLjQ1OTI2ODI5MjY4MjkiLz4mI3hhOzxyZWN0IHJ4PSIwIiBoZWlnaHQ9IjQuODc3NTYwOTc1NjA5NzU1NSIgd2lkdGg9IjQuODc3NTYwOTc1NjA5NzU1NSIgeT0iMTY1Ljg0NzA3MzE3MDczMTY4IiB4PSIxNTEuMjE0MzkwMjQzOTAyNDEiLz4mI3hhOzxyZWN0IHJ4PSIwIiBoZWlnaHQ9IjQuODc3NTYwOTc1NjA5NzU1NSIgd2lkdGg9IjQuODc3NTYwOTc1NjA5NzU1NSIgeT0iMTY1Ljg0NzA3MzE3MDczMTY4IiB4PSIxNTYuMDkxOTUxMjE5NTEyMTciLz4mI3hhOzxyZWN0IHJ4PSIwIiBoZWlnaHQ9IjQuODc3NTYwOTc1NjA5NzU1NSIgd2lkdGg9IjQuODc3NTYwOTc1NjA5NzU1NSIgeT0iMTY1Ljg0NzA3MzE3MDczMTY4IiB4PSIxNjUuODQ3MDczMTcwNzMxNjgiLz4mI3hhOzxyZWN0IHJ4PSIwIiBoZWlnaHQ9IjQuODc3NTYwOTc1NjA5NzU1NSIgd2lkdGg9IjQuODc3NTYwOTc1NjA5NzU1NSIgeT0iMTY1Ljg0NzA3MzE3MDczMTY4IiB4PSIxNzUuNjAyMTk1MTIxOTUxMTgiLz4mI3hhOzxyZWN0IHJ4PSIwIiBoZWlnaHQ9IjQuODc3NTYwOTc1NjA5NzU1NSIgd2lkdGg9IjQuODc3NTYwOTc1NjA5NzU1NSIgeT0iMTY1Ljg0NzA3MzE3MDczMTY4IiB4PSIxOTAuMjM0ODc4MDQ4NzgwNDQiLz4mI3hhOzxyZWN0IHJ4PSIwIiBoZWlnaHQ9IjQuODc3NTYwOTc1NjA5NzU1NSIgd2lkdGg9IjQuODc3NTYwOTc1NjA5NzU1NSIgeT0iMTcwLjcyNDYzNDE0NjM0MTQzIiB4PSI0My45MDgwNDg3ODA0ODc3OTYiLz4mI3hhOzxyZWN0IHJ4PSIwIiBoZWlnaHQ9IjQuODc3NTYwOTc1NjA5NzU1NSIgd2lkdGg9IjQuODc3NTYwOTc1NjA5NzU1NSIgeT0iMTcwLjcyNDYzNDE0NjM0MTQzIiB4PSI0OC43ODU2MDk3NTYwOTc1NSIvPiYjeGE7PHJlY3Qgcng9IjAiIGhlaWdodD0iNC44Nzc1NjA5NzU2MDk3NTU1IiB3aWR0aD0iNC44Nzc1NjA5NzU2MDk3NTU1IiB5PSIxNzAuNzI0NjM0MTQ2MzQxNDMiIHg9IjU4LjU0MDczMTcwNzMxNzA2NSIvPiYjeGE7PHJlY3Qgcng9IjAiIGhlaWdodD0iNC44Nzc1NjA5NzU2MDk3NTU1IiB3aWR0aD0iNC44Nzc1NjA5NzU2MDk3NTU1IiB5PSIxNzAuNzI0NjM0MTQ2MzQxNDMiIHg9IjczLjE3MzQxNDYzNDE0NjM0Ii8+JiN4YTs8cmVjdCByeD0iMCIgaGVpZ2h0PSI0Ljg3NzU2MDk3NTYwOTc1NTUiIHdpZHRoPSI0Ljg3NzU2MDk3NTYwOTc1NTUiIHk9IjE3MC43MjQ2MzQxNDYzNDE0MyIgeD0iNzguMDUwOTc1NjA5NzU2MSIvPiYjeGE7PHJlY3Qgcng9IjAiIGhlaWdodD0iNC44Nzc1NjA5NzU2MDk3NTU1IiB3aWR0aD0iNC44Nzc1NjA5NzU2MDk3NTU1IiB5PSIxNzAuNzI0NjM0MTQ2MzQxNDMiIHg9IjgyLjkyODUzNjU4NTM2NTg1Ii8+JiN4YTs8cmVjdCByeD0iMCIgaGVpZ2h0PSI0Ljg3NzU2MDk3NTYwOTc1NTUiIHdpZHRoPSI0Ljg3NzU2MDk3NTYwOTc1NTUiIHk9IjE3MC43MjQ2MzQxNDYzNDE0MyIgeD0iODcuODA2MDk3NTYwOTc1NiIvPiYjeGE7PHJlY3Qgcng9IjAiIGhlaWdodD0iNC44Nzc1NjA5NzU2MDk3NTU1IiB3aWR0aD0iNC44Nzc1NjA5NzU2MDk3NTU1IiB5PSIxNzAuNzI0NjM0MTQ2MzQxNDMiIHg9IjkyLjY4MzY1ODUzNjU4NTM2Ii8+JiN4YTs8cmVjdCByeD0iMCIgaGVpZ2h0PSI0Ljg3NzU2MDk3NTYwOTc1NTUiIHdpZHRoPSI0Ljg3NzU2MDk3NTYwOTc1NTUiIHk9IjE3MC43MjQ2MzQxNDYzNDE0MyIgeD0iMTAyLjQzODc4MDQ4NzgwNDg4Ii8+JiN4YTs8cmVjdCByeD0iMCIgaGVpZ2h0PSI0Ljg3NzU2MDk3NTYwOTc1NTUiIHdpZHRoPSI0Ljg3NzU2MDk3NTYwOTc1NTUiIHk9IjE3MC43MjQ2MzQxNDYzNDE0MyIgeD0iMTA3LjMxNjM0MTQ2MzQxNDYzIi8+JiN4YTs8cmVjdCByeD0iMCIgaGVpZ2h0PSI0Ljg3NzU2MDk3NTYwOTc1NTUiIHdpZHRoPSI0Ljg3NzU2MDk3NTYwOTc1NTUiIHk9IjE3MC43MjQ2MzQxNDYzNDE0MyIgeD0iMTE3LjA3MTQ2MzQxNDYzNDE0Ii8+JiN4YTs8cmVjdCByeD0iMCIgaGVpZ2h0PSI0Ljg3NzU2MDk3NTYwOTc1NTUiIHdpZHRoPSI0Ljg3NzU2MDk3NTYwOTc1NTUiIHk9IjE3MC43MjQ2MzQxNDYzNDE0MyIgeD0iMTIxLjk0OTAyNDM5MDI0Mzg5Ii8+JiN4YTs8cmVjdCByeD0iMCIgaGVpZ2h0PSI0Ljg3NzU2MDk3NTYwOTc1NTUiIHdpZHRoPSI0Ljg3NzU2MDk3NTYwOTc1NTUiIHk9IjE3MC43MjQ2MzQxNDYzNDE0MyIgeD0iMTMxLjcwNDE0NjM0MTQ2MzQiLz4mI3hhOzxyZWN0IHJ4PSIwIiBoZWlnaHQ9IjQuODc3NTYwOTc1NjA5NzU1NSIgd2lkdGg9IjQuODc3NTYwOTc1NjA5NzU1NSIgeT0iMTcwLjcyNDYzNDE0NjM0MTQzIiB4PSIxMzYuNTgxNzA3MzE3MDczMTUiLz4mI3hhOzxyZWN0IHJ4PSIwIiBoZWlnaHQ9IjQuODc3NTYwOTc1NjA5NzU1NSIgd2lkdGg9IjQuODc3NTYwOTc1NjA5NzU1NSIgeT0iMTcwLjcyNDYzNDE0NjM0MTQzIiB4PSIxNDEuNDU5MjY4MjkyNjgyOSIvPiYjeGE7PHJlY3Qgcng9IjAiIGhlaWdodD0iNC44Nzc1NjA5NzU2MDk3NTU1IiB3aWR0aD0iNC44Nzc1NjA5NzU2MDk3NTU1IiB5PSIxNzAuNzI0NjM0MTQ2MzQxNDMiIHg9IjE0Ni4zMzY4MjkyNjgyOTI2NiIvPiYjeGE7PHJlY3Qgcng9IjAiIGhlaWdodD0iNC44Nzc1NjA5NzU2MDk3NTU1IiB3aWR0aD0iNC44Nzc1NjA5NzU2MDk3NTU1IiB5PSIxNzAuNzI0NjM0MTQ2MzQxNDMiIHg9IjE1MS4yMTQzOTAyNDM5MDI0MSIvPiYjeGE7PHJlY3Qgcng9IjAiIGhlaWdodD0iNC44Nzc1NjA5NzU2MDk3NTU1IiB3aWR0aD0iNC44Nzc1NjA5NzU2MDk3NTU1IiB5PSIxNzAuNzI0NjM0MTQ2MzQxNDMiIHg9IjE1Ni4wOTE5NTEyMTk1MTIxNyIvPiYjeGE7PHJlY3Qgcng9IjAiIGhlaWdodD0iNC44Nzc1NjA5NzU2MDk3NTU1IiB3aWR0aD0iNC44Nzc1NjA5NzU2MDk3NTU1IiB5PSIxNzAuNzI0NjM0MTQ2MzQxNDMiIHg9IjE3NS42MDIxOTUxMjE5NTExOCIvPiYjeGE7PHJlY3Qgcng9IjAiIGhlaWdodD0iNC44Nzc1NjA5NzU2MDk3NTU1IiB3aWR0aD0iNC44Nzc1NjA5NzU2MDk3NTU1IiB5PSIxNzAuNzI0NjM0MTQ2MzQxNDMiIHg9IjE4MC40Nzk3NTYwOTc1NjA5NCIvPiYjeGE7PHJlY3Qgcng9IjAiIGhlaWdodD0iNC44Nzc1NjA5NzU2MDk3NTU1IiB3aWR0aD0iNC44Nzc1NjA5NzU2MDk3NTU1IiB5PSIxNzAuNzI0NjM0MTQ2MzQxNDMiIHg9IjE5MC4yMzQ4NzgwNDg3ODA0NCIvPiYjeGE7PHJlY3Qgcng9IjAiIGhlaWdodD0iNC44Nzc1NjA5NzU2MDk3NTU1IiB3aWR0aD0iNC44Nzc1NjA5NzU2MDk3NTU1IiB5PSIxNzAuNzI0NjM0MTQ2MzQxNDMiIHg9IjE5NS4xMTI0MzkwMjQzOTAyIi8+JiN4YTs8cmVjdCByeD0iMCIgaGVpZ2h0PSI0Ljg3NzU2MDk3NTYwOTc1NTUiIHdpZHRoPSI0Ljg3NzU2MDk3NTYwOTc1NTUiIHk9IjE3NS42MDIxOTUxMjE5NTExOCIgeD0iMzkuMDMwNDg3ODA0ODc4MDQiLz4mI3hhOzxyZWN0IHJ4PSIwIiBoZWlnaHQ9IjQuODc3NTYwOTc1NjA5NzU1NSIgd2lkdGg9IjQuODc3NTYwOTc1NjA5NzU1NSIgeT0iMTc1LjYwMjE5NTEyMTk1MTE4IiB4PSI0OC43ODU2MDk3NTYwOTc1NSIvPiYjeGE7PHJlY3Qgcng9IjAiIGhlaWdodD0iNC44Nzc1NjA5NzU2MDk3NTU1IiB3aWR0aD0iNC44Nzc1NjA5NzU2MDk3NTU1IiB5PSIxNzUuNjAyMTk1MTIxOTUxMTgiIHg9IjU4LjU0MDczMTcwNzMxNzA2NSIvPiYjeGE7PHJlY3Qgcng9IjAiIGhlaWdodD0iNC44Nzc1NjA5NzU2MDk3NTU1IiB3aWR0aD0iNC44Nzc1NjA5NzU2MDk3NTU1IiB5PSIxNzUuNjAyMTk1MTIxOTUxMTgiIHg9IjY4LjI5NTg1MzY1ODUzNjU5Ii8+JiN4YTs8cmVjdCByeD0iMCIgaGVpZ2h0PSI0Ljg3NzU2MDk3NTYwOTc1NTUiIHdpZHRoPSI0Ljg3NzU2MDk3NTYwOTc1NTUiIHk9IjE3NS42MDIxOTUxMjE5NTExOCIgeD0iODcuODA2MDk3NTYwOTc1NiIvPiYjeGE7PHJlY3Qgcng9IjAiIGhlaWdodD0iNC44Nzc1NjA5NzU2MDk3NTU1IiB3aWR0aD0iNC44Nzc1NjA5NzU2MDk3NTU1IiB5PSIxNzUuNjAyMTk1MTIxOTUxMTgiIHg9IjkyLjY4MzY1ODUzNjU4NTM2Ii8+JiN4YTs8cmVjdCByeD0iMCIgaGVpZ2h0PSI0Ljg3NzU2MDk3NTYwOTc1NTUiIHdpZHRoPSI0Ljg3NzU2MDk3NTYwOTc1NTUiIHk9IjE3NS42MDIxOTUxMjE5NTExOCIgeD0iMTA3LjMxNjM0MTQ2MzQxNDYzIi8+JiN4YTs8cmVjdCByeD0iMCIgaGVpZ2h0PSI0Ljg3NzU2MDk3NTYwOTc1NTUiIHdpZHRoPSI0Ljg3NzU2MDk3NTYwOTc1NTUiIHk9IjE3NS42MDIxOTUxMjE5NTExOCIgeD0iMTEyLjE5MzkwMjQzOTAyNDM4Ii8+JiN4YTs8cmVjdCByeD0iMCIgaGVpZ2h0PSI0Ljg3NzU2MDk3NTYwOTc1NTUiIHdpZHRoPSI0Ljg3NzU2MDk3NTYwOTc1NTUiIHk9IjE3NS42MDIxOTUxMjE5NTExOCIgeD0iMTIxLjk0OTAyNDM5MDI0Mzg5Ii8+JiN4YTs8cmVjdCByeD0iMCIgaGVpZ2h0PSI0Ljg3NzU2MDk3NTYwOTc1NTUiIHdpZHRoPSI0Ljg3NzU2MDk3NTYwOTc1NTUiIHk9IjE3NS42MDIxOTUxMjE5NTExOCIgeD0iMTI2LjgyNjU4NTM2NTg1MzY1Ii8+JiN4YTs8cmVjdCByeD0iMCIgaGVpZ2h0PSI0Ljg3NzU2MDk3NTYwOTc1NTUiIHdpZHRoPSI0Ljg3NzU2MDk3NTYwOTc1NTUiIHk9IjE3NS42MDIxOTUxMjE5NTExOCIgeD0iMTU2LjA5MTk1MTIxOTUxMjE3Ii8+JiN4YTs8cmVjdCByeD0iMCIgaGVpZ2h0PSI0Ljg3NzU2MDk3NTYwOTc1NTUiIHdpZHRoPSI0Ljg3NzU2MDk3NTYwOTc1NTUiIHk9IjE3NS42MDIxOTUxMjE5NTExOCIgeD0iMTYwLjk2OTUxMjE5NTEyMTkyIi8+JiN4YTs8cmVjdCByeD0iMCIgaGVpZ2h0PSI0Ljg3NzU2MDk3NTYwOTc1NTUiIHdpZHRoPSI0Ljg3NzU2MDk3NTYwOTc1NTUiIHk9IjE3NS42MDIxOTUxMjE5NTExOCIgeD0iMTY1Ljg0NzA3MzE3MDczMTY4Ii8+JiN4YTs8cmVjdCByeD0iMCIgaGVpZ2h0PSI0Ljg3NzU2MDk3NTYwOTc1NTUiIHdpZHRoPSI0Ljg3NzU2MDk3NTYwOTc1NTUiIHk9IjE3NS42MDIxOTUxMjE5NTExOCIgeD0iMTcwLjcyNDYzNDE0NjM0MTQzIi8+JiN4YTs8cmVjdCByeD0iMCIgaGVpZ2h0PSI0Ljg3NzU2MDk3NTYwOTc1NTUiIHdpZHRoPSI0Ljg3NzU2MDk3NTYwOTc1NTUiIHk9IjE3NS42MDIxOTUxMjE5NTExOCIgeD0iMTc1LjYwMjE5NTEyMTk1MTE4Ii8+JiN4YTs8cmVjdCByeD0iMCIgaGVpZ2h0PSI0Ljg3NzU2MDk3NTYwOTc1NTUiIHdpZHRoPSI0Ljg3NzU2MDk3NTYwOTc1NTUiIHk9IjE3NS42MDIxOTUxMjE5NTExOCIgeD0iMTg1LjM1NzMxNzA3MzE3MDciLz4mI3hhOzxyZWN0IHJ4PSIwIiBoZWlnaHQ9IjQuODc3NTYwOTc1NjA5NzU1NSIgd2lkdGg9IjQuODc3NTYwOTc1NjA5NzU1NSIgeT0iMTc1LjYwMjE5NTEyMTk1MTE4IiB4PSIxOTAuMjM0ODc4MDQ4NzgwNDQiLz4mI3hhOzxyZWN0IHJ4PSIwIiBoZWlnaHQ9IjQuODc3NTYwOTc1NjA5NzU1NSIgd2lkdGg9IjQuODc3NTYwOTc1NjA5NzU1NSIgeT0iMTgwLjQ3OTc1NjA5NzU2MDk0IiB4PSIzOS4wMzA0ODc4MDQ4NzgwNCIvPiYjeGE7PHJlY3Qgcng9IjAiIGhlaWdodD0iNC44Nzc1NjA5NzU2MDk3NTU1IiB3aWR0aD0iNC44Nzc1NjA5NzU2MDk3NTU1IiB5PSIxODAuNDc5NzU2MDk3NTYwOTQiIHg9IjQzLjkwODA0ODc4MDQ4Nzc5NiIvPiYjeGE7PHJlY3Qgcng9IjAiIGhlaWdodD0iNC44Nzc1NjA5NzU2MDk3NTU1IiB3aWR0aD0iNC44Nzc1NjA5NzU2MDk3NTU1IiB5PSIxODAuNDc5NzU2MDk3NTYwOTQiIHg9IjQ4Ljc4NTYwOTc1NjA5NzU1Ii8+JiN4YTs8cmVjdCByeD0iMCIgaGVpZ2h0PSI0Ljg3NzU2MDk3NTYwOTc1NTUiIHdpZHRoPSI0Ljg3NzU2MDk3NTYwOTc1NTUiIHk9IjE4MC40Nzk3NTYwOTc1NjA5NCIgeD0iNTguNTQwNzMxNzA3MzE3MDY1Ii8+JiN4YTs8cmVjdCByeD0iMCIgaGVpZ2h0PSI0Ljg3NzU2MDk3NTYwOTc1NTUiIHdpZHRoPSI0Ljg3NzU2MDk3NTYwOTc1NTUiIHk9IjE4MC40Nzk3NTYwOTc1NjA5NCIgeD0iNjMuNDE4MjkyNjgyOTI2ODIiLz4mI3hhOzxyZWN0IHJ4PSIwIiBoZWlnaHQ9IjQuODc3NTYwOTc1NjA5NzU1NSIgd2lkdGg9IjQuODc3NTYwOTc1NjA5NzU1NSIgeT0iMTgwLjQ3OTc1NjA5NzU2MDk0IiB4PSI3OC4wNTA5NzU2MDk3NTYxIi8+JiN4YTs8cmVjdCByeD0iMCIgaGVpZ2h0PSI0Ljg3NzU2MDk3NTYwOTc1NTUiIHdpZHRoPSI0Ljg3NzU2MDk3NTYwOTc1NTUiIHk9IjE4MC40Nzk3NTYwOTc1NjA5NCIgeD0iODIuOTI4NTM2NTg1MzY1ODUiLz4mI3hhOzxyZWN0IHJ4PSIwIiBoZWlnaHQ9IjQuODc3NTYwOTc1NjA5NzU1NSIgd2lkdGg9IjQuODc3NTYwOTc1NjA5NzU1NSIgeT0iMTgwLjQ3OTc1NjA5NzU2MDk0IiB4PSI4Ny44MDYwOTc1NjA5NzU2Ii8+JiN4YTs8cmVjdCByeD0iMCIgaGVpZ2h0PSI0Ljg3NzU2MDk3NTYwOTc1NTUiIHdpZHRoPSI0Ljg3NzU2MDk3NTYwOTc1NTUiIHk9IjE4MC40Nzk3NTYwOTc1NjA5NCIgeD0iMTA3LjMxNjM0MTQ2MzQxNDYzIi8+JiN4YTs8cmVjdCByeD0iMCIgaGVpZ2h0PSI0Ljg3NzU2MDk3NTYwOTc1NTUiIHdpZHRoPSI0Ljg3NzU2MDk3NTYwOTc1NTUiIHk9IjE4MC40Nzk3NTYwOTc1NjA5NCIgeD0iMTEyLjE5MzkwMjQzOTAyNDM4Ii8+JiN4YTs8cmVjdCByeD0iMCIgaGVpZ2h0PSI0Ljg3NzU2MDk3NTYwOTc1NTUiIHdpZHRoPSI0Ljg3NzU2MDk3NTYwOTc1NTUiIHk9IjE4MC40Nzk3NTYwOTc1NjA5NCIgeD0iMTI2LjgyNjU4NTM2NTg1MzY1Ii8+JiN4YTs8cmVjdCByeD0iMCIgaGVpZ2h0PSI0Ljg3NzU2MDk3NTYwOTc1NTUiIHdpZHRoPSI0Ljg3NzU2MDk3NTYwOTc1NTUiIHk9IjE4MC40Nzk3NTYwOTc1NjA5NCIgeD0iMTM2LjU4MTcwNzMxNzA3MzE1Ii8+JiN4YTs8cmVjdCByeD0iMCIgaGVpZ2h0PSI0Ljg3NzU2MDk3NTYwOTc1NTUiIHdpZHRoPSI0Ljg3NzU2MDk3NTYwOTc1NTUiIHk9IjE4MC40Nzk3NTYwOTc1NjA5NCIgeD0iMTQ2LjMzNjgyOTI2ODI5MjY2Ii8+JiN4YTs8cmVjdCByeD0iMCIgaGVpZ2h0PSI0Ljg3NzU2MDk3NTYwOTc1NTUiIHdpZHRoPSI0Ljg3NzU2MDk3NTYwOTc1NTUiIHk9IjE4MC40Nzk3NTYwOTc1NjA5NCIgeD0iMTUxLjIxNDM5MDI0MzkwMjQxIi8+JiN4YTs8cmVjdCByeD0iMCIgaGVpZ2h0PSI0Ljg3NzU2MDk3NTYwOTc1NTUiIHdpZHRoPSI0Ljg3NzU2MDk3NTYwOTc1NTUiIHk9IjE4MC40Nzk3NTYwOTc1NjA5NCIgeD0iMTYwLjk2OTUxMjE5NTEyMTkyIi8+JiN4YTs8cmVjdCByeD0iMCIgaGVpZ2h0PSI0Ljg3NzU2MDk3NTYwOTc1NTUiIHdpZHRoPSI0Ljg3NzU2MDk3NTYwOTc1NTUiIHk9IjE4MC40Nzk3NTYwOTc1NjA5NCIgeD0iMTcwLjcyNDYzNDE0NjM0MTQzIi8+JiN4YTs8cmVjdCByeD0iMCIgaGVpZ2h0PSI0Ljg3NzU2MDk3NTYwOTc1NTUiIHdpZHRoPSI0Ljg3NzU2MDk3NTYwOTc1NTUiIHk9IjE4MC40Nzk3NTYwOTc1NjA5NCIgeD0iMTgwLjQ3OTc1NjA5NzU2MDk0Ii8+JiN4YTs8cmVjdCByeD0iMCIgaGVpZ2h0PSI0Ljg3NzU2MDk3NTYwOTc1NTUiIHdpZHRoPSI0Ljg3NzU2MDk3NTYwOTc1NTUiIHk9IjE4MC40Nzk3NTYwOTc1NjA5NCIgeD0iMTk1LjExMjQzOTAyNDM5MDIiLz4mI3hhOzxyZWN0IHJ4PSIwIiBoZWlnaHQ9IjQuODc3NTYwOTc1NjA5NzU1NSIgd2lkdGg9IjQuODc3NTYwOTc1NjA5NzU1NSIgeT0iMTg1LjM1NzMxNzA3MzE3MDciIHg9IjM5LjAzMDQ4NzgwNDg3ODA0Ii8+JiN4YTs8cmVjdCByeD0iMCIgaGVpZ2h0PSI0Ljg3NzU2MDk3NTYwOTc1NTUiIHdpZHRoPSI0Ljg3NzU2MDk3NTYwOTc1NTUiIHk9IjE4NS4zNTczMTcwNzMxNzA3IiB4PSI0My45MDgwNDg3ODA0ODc3OTYiLz4mI3hhOzxyZWN0IHJ4PSIwIiBoZWlnaHQ9IjQuODc3NTYwOTc1NjA5NzU1NSIgd2lkdGg9IjQuODc3NTYwOTc1NjA5NzU1NSIgeT0iMTg1LjM1NzMxNzA3MzE3MDciIHg9IjUzLjY2MzE3MDczMTcwNzMxIi8+JiN4YTs8cmVjdCByeD0iMCIgaGVpZ2h0PSI0Ljg3NzU2MDk3NTYwOTc1NTUiIHdpZHRoPSI0Ljg3NzU2MDk3NTYwOTc1NTUiIHk9IjE4NS4zNTczMTcwNzMxNzA3IiB4PSI2OC4yOTU4NTM2NTg1MzY1OSIvPiYjeGE7PHJlY3Qgcng9IjAiIGhlaWdodD0iNC44Nzc1NjA5NzU2MDk3NTU1IiB3aWR0aD0iNC44Nzc1NjA5NzU2MDk3NTU1IiB5PSIxODUuMzU3MzE3MDczMTcwNyIgeD0iOTIuNjgzNjU4NTM2NTg1MzYiLz4mI3hhOzxyZWN0IHJ4PSIwIiBoZWlnaHQ9IjQuODc3NTYwOTc1NjA5NzU1NSIgd2lkdGg9IjQuODc3NTYwOTc1NjA5NzU1NSIgeT0iMTg1LjM1NzMxNzA3MzE3MDciIHg9IjEwNy4zMTYzNDE0NjM0MTQ2MyIvPiYjeGE7PHJlY3Qgcng9IjAiIGhlaWdodD0iNC44Nzc1NjA5NzU2MDk3NTU1IiB3aWR0aD0iNC44Nzc1NjA5NzU2MDk3NTU1IiB5PSIxODUuMzU3MzE3MDczMTcwNyIgeD0iMTEyLjE5MzkwMjQzOTAyNDM4Ii8+JiN4YTs8cmVjdCByeD0iMCIgaGVpZ2h0PSI0Ljg3NzU2MDk3NTYwOTc1NTUiIHdpZHRoPSI0Ljg3NzU2MDk3NTYwOTc1NTUiIHk9IjE4NS4zNTczMTcwNzMxNzA3IiB4PSIxMTcuMDcxNDYzNDE0NjM0MTQiLz4mI3hhOzxyZWN0IHJ4PSIwIiBoZWlnaHQ9IjQuODc3NTYwOTc1NjA5NzU1NSIgd2lkdGg9IjQuODc3NTYwOTc1NjA5NzU1NSIgeT0iMTg1LjM1NzMxNzA3MzE3MDciIHg9IjEyMS45NDkwMjQzOTAyNDM4OSIvPiYjeGE7PHJlY3Qgcng9IjAiIGhlaWdodD0iNC44Nzc1NjA5NzU2MDk3NTU1IiB3aWR0aD0iNC44Nzc1NjA5NzU2MDk3NTU1IiB5PSIxODUuMzU3MzE3MDczMTcwNyIgeD0iMTI2LjgyNjU4NTM2NTg1MzY1Ii8+JiN4YTs8cmVjdCByeD0iMCIgaGVpZ2h0PSI0Ljg3NzU2MDk3NTYwOTc1NTUiIHdpZHRoPSI0Ljg3NzU2MDk3NTYwOTc1NTUiIHk9IjE4NS4zNTczMTcwNzMxNzA3IiB4PSIxMzEuNzA0MTQ2MzQxNDYzNCIvPiYjeGE7PHJlY3Qgcng9IjAiIGhlaWdodD0iNC44Nzc1NjA5NzU2MDk3NTU1IiB3aWR0aD0iNC44Nzc1NjA5NzU2MDk3NTU1IiB5PSIxODUuMzU3MzE3MDczMTcwNyIgeD0iMTUxLjIxNDM5MDI0MzkwMjQxIi8+JiN4YTs8cmVjdCByeD0iMCIgaGVpZ2h0PSI0Ljg3NzU2MDk3NTYwOTc1NTUiIHdpZHRoPSI0Ljg3NzU2MDk3NTYwOTc1NTUiIHk9IjE4NS4zNTczMTcwNzMxNzA3IiB4PSIxNTYuMDkxOTUxMjE5NTEyMTciLz4mI3hhOzxyZWN0IHJ4PSIwIiBoZWlnaHQ9IjQuODc3NTYwOTc1NjA5NzU1NSIgd2lkdGg9IjQuODc3NTYwOTc1NjA5NzU1NSIgeT0iMTg1LjM1NzMxNzA3MzE3MDciIHg9IjE2MC45Njk1MTIxOTUxMjE5MiIvPiYjeGE7PHJlY3Qgcng9IjAiIGhlaWdodD0iNC44Nzc1NjA5NzU2MDk3NTU1IiB3aWR0aD0iNC44Nzc1NjA5NzU2MDk3NTU1IiB5PSIxODUuMzU3MzE3MDczMTcwNyIgeD0iMTY1Ljg0NzA3MzE3MDczMTY4Ii8+JiN4YTs8cmVjdCByeD0iMCIgaGVpZ2h0PSI0Ljg3NzU2MDk3NTYwOTc1NTUiIHdpZHRoPSI0Ljg3NzU2MDk3NTYwOTc1NTUiIHk9IjE4NS4zNTczMTcwNzMxNzA3IiB4PSIxNzAuNzI0NjM0MTQ2MzQxNDMiLz4mI3hhOzxyZWN0IHJ4PSIwIiBoZWlnaHQ9IjQuODc3NTYwOTc1NjA5NzU1NSIgd2lkdGg9IjQuODc3NTYwOTc1NjA5NzU1NSIgeT0iMTg1LjM1NzMxNzA3MzE3MDciIHg9IjE3NS42MDIxOTUxMjE5NTExOCIvPiYjeGE7PHJlY3Qgcng9IjAiIGhlaWdodD0iNC44Nzc1NjA5NzU2MDk3NTU1IiB3aWR0aD0iNC44Nzc1NjA5NzU2MDk3NTU1IiB5PSIxODUuMzU3MzE3MDczMTcwNyIgeD0iMTkwLjIzNDg3ODA0ODc4MDQ0Ii8+JiN4YTs8cmVjdCByeD0iMCIgaGVpZ2h0PSI0Ljg3NzU2MDk3NTYwOTc1NTUiIHdpZHRoPSI0Ljg3NzU2MDk3NTYwOTc1NTUiIHk9IjE5MC4yMzQ4NzgwNDg3ODA0NCIgeD0iNDguNzg1NjA5NzU2MDk3NTUiLz4mI3hhOzxyZWN0IHJ4PSIwIiBoZWlnaHQ9IjQuODc3NTYwOTc1NjA5NzU1NSIgd2lkdGg9IjQuODc3NTYwOTc1NjA5NzU1NSIgeT0iMTkwLjIzNDg3ODA0ODc4MDQ0IiB4PSI1My42NjMxNzA3MzE3MDczMSIvPiYjeGE7PHJlY3Qgcng9IjAiIGhlaWdodD0iNC44Nzc1NjA5NzU2MDk3NTU1IiB3aWR0aD0iNC44Nzc1NjA5NzU2MDk3NTU1IiB5PSIxOTAuMjM0ODc4MDQ4NzgwNDQiIHg9IjY4LjI5NTg1MzY1ODUzNjU5Ii8+JiN4YTs8cmVjdCByeD0iMCIgaGVpZ2h0PSI0Ljg3NzU2MDk3NTYwOTc1NTUiIHdpZHRoPSI0Ljg3NzU2MDk3NTYwOTc1NTUiIHk9IjE5MC4yMzQ4NzgwNDg3ODA0NCIgeD0iNzMuMTczNDE0NjM0MTQ2MzQiLz4mI3hhOzxyZWN0IHJ4PSIwIiBoZWlnaHQ9IjQuODc3NTYwOTc1NjA5NzU1NSIgd2lkdGg9IjQuODc3NTYwOTc1NjA5NzU1NSIgeT0iMTkwLjIzNDg3ODA0ODc4MDQ0IiB4PSI5Mi42ODM2NTg1MzY1ODUzNiIvPiYjeGE7PHJlY3Qgcng9IjAiIGhlaWdodD0iNC44Nzc1NjA5NzU2MDk3NTU1IiB3aWR0aD0iNC44Nzc1NjA5NzU2MDk3NTU1IiB5PSIxOTAuMjM0ODc4MDQ4NzgwNDQiIHg9IjEwNy4zMTYzNDE0NjM0MTQ2MyIvPiYjeGE7PHJlY3Qgcng9IjAiIGhlaWdodD0iNC44Nzc1NjA5NzU2MDk3NTU1IiB3aWR0aD0iNC44Nzc1NjA5NzU2MDk3NTU1IiB5PSIxOTAuMjM0ODc4MDQ4NzgwNDQiIHg9IjEyMS45NDkwMjQzOTAyNDM4OSIvPiYjeGE7PHJlY3Qgcng9IjAiIGhlaWdodD0iNC44Nzc1NjA5NzU2MDk3NTU1IiB3aWR0aD0iNC44Nzc1NjA5NzU2MDk3NTU1IiB5PSIxOTAuMjM0ODc4MDQ4NzgwNDQiIHg9IjEzNi41ODE3MDczMTcwNzMxNSIvPiYjeGE7PHJlY3Qgcng9IjAiIGhlaWdodD0iNC44Nzc1NjA5NzU2MDk3NTU1IiB3aWR0aD0iNC44Nzc1NjA5NzU2MDk3NTU1IiB5PSIxOTAuMjM0ODc4MDQ4NzgwNDQiIHg9IjE0Ni4zMzY4MjkyNjgyOTI2NiIvPiYjeGE7PHJlY3Qgcng9IjAiIGhlaWdodD0iNC44Nzc1NjA5NzU2MDk3NTU1IiB3aWR0aD0iNC44Nzc1NjA5NzU2MDk3NTU1IiB5PSIxOTAuMjM0ODc4MDQ4NzgwNDQiIHg9IjE1Ni4wOTE5NTEyMTk1MTIxNyIvPiYjeGE7PHJlY3Qgcng9IjAiIGhlaWdodD0iNC44Nzc1NjA5NzU2MDk3NTU1IiB3aWR0aD0iNC44Nzc1NjA5NzU2MDk3NTU1IiB5PSIxOTAuMjM0ODc4MDQ4NzgwNDQiIHg9IjE2MC45Njk1MTIxOTUxMjE5MiIvPiYjeGE7PHJlY3Qgcng9IjAiIGhlaWdodD0iNC44Nzc1NjA5NzU2MDk3NTU1IiB3aWR0aD0iNC44Nzc1NjA5NzU2MDk3NTU1IiB5PSIxOTAuMjM0ODc4MDQ4NzgwNDQiIHg9IjE3NS42MDIxOTUxMjE5NTExOCIvPiYjeGE7PHJlY3Qgcng9IjAiIGhlaWdodD0iNC44Nzc1NjA5NzU2MDk3NTU1IiB3aWR0aD0iNC44Nzc1NjA5NzU2MDk3NTU1IiB5PSIxOTAuMjM0ODc4MDQ4NzgwNDQiIHg9IjE4MC40Nzk3NTYwOTc1NjA5NCIvPiYjeGE7PHJlY3Qgcng9IjAiIGhlaWdodD0iNC44Nzc1NjA5NzU2MDk3NTU1IiB3aWR0aD0iNC44Nzc1NjA5NzU2MDk3NTU1IiB5PSIxOTAuMjM0ODc4MDQ4NzgwNDQiIHg9IjE5MC4yMzQ4NzgwNDg3ODA0NCIvPiYjeGE7PHJlY3Qgcng9IjAiIGhlaWdodD0iNC44Nzc1NjA5NzU2MDk3NTU1IiB3aWR0aD0iNC44Nzc1NjA5NzU2MDk3NTU1IiB5PSIxOTUuMTEyNDM5MDI0MzkwMiIgeD0iNDMuOTA4MDQ4NzgwNDg3Nzk2Ii8+JiN4YTs8cmVjdCByeD0iMCIgaGVpZ2h0PSI0Ljg3NzU2MDk3NTYwOTc1NTUiIHdpZHRoPSI0Ljg3NzU2MDk3NTYwOTc1NTUiIHk9IjE5NS4xMTI0MzkwMjQzOTAyIiB4PSI0OC43ODU2MDk3NTYwOTc1NSIvPiYjeGE7PHJlY3Qgcng9IjAiIGhlaWdodD0iNC44Nzc1NjA5NzU2MDk3NTU1IiB3aWR0aD0iNC44Nzc1NjA5NzU2MDk3NTU1IiB5PSIxOTUuMTEyNDM5MDI0MzkwMiIgeD0iNTMuNjYzMTcwNzMxNzA3MzEiLz4mI3hhOzxyZWN0IHJ4PSIwIiBoZWlnaHQ9IjQuODc3NTYwOTc1NjA5NzU1NSIgd2lkdGg9IjQuODc3NTYwOTc1NjA5NzU1NSIgeT0iMTk1LjExMjQzOTAyNDM5MDIiIHg9IjU4LjU0MDczMTcwNzMxNzA2NSIvPiYjeGE7PHJlY3Qgcng9IjAiIGhlaWdodD0iNC44Nzc1NjA5NzU2MDk3NTU1IiB3aWR0aD0iNC44Nzc1NjA5NzU2MDk3NTU1IiB5PSIxOTUuMTEyNDM5MDI0MzkwMiIgeD0iNjguMjk1ODUzNjU4NTM2NTkiLz4mI3hhOzxyZWN0IHJ4PSIwIiBoZWlnaHQ9IjQuODc3NTYwOTc1NjA5NzU1NSIgd2lkdGg9IjQuODc3NTYwOTc1NjA5NzU1NSIgeT0iMTk1LjExMjQzOTAyNDM5MDIiIHg9IjczLjE3MzQxNDYzNDE0NjM0Ii8+JiN4YTs8cmVjdCByeD0iMCIgaGVpZ2h0PSI0Ljg3NzU2MDk3NTYwOTc1NTUiIHdpZHRoPSI0Ljg3NzU2MDk3NTYwOTc1NTUiIHk9IjE5NS4xMTI0MzkwMjQzOTAyIiB4PSI3OC4wNTA5NzU2MDk3NTYxIi8+JiN4YTs8cmVjdCByeD0iMCIgaGVpZ2h0PSI0Ljg3NzU2MDk3NTYwOTc1NTUiIHdpZHRoPSI0Ljg3NzU2MDk3NTYwOTc1NTUiIHk9IjE5NS4xMTI0MzkwMjQzOTAyIiB4PSI4Ny44MDYwOTc1NjA5NzU2Ii8+JiN4YTs8cmVjdCByeD0iMCIgaGVpZ2h0PSI0Ljg3NzU2MDk3NTYwOTc1NTUiIHdpZHRoPSI0Ljg3NzU2MDk3NTYwOTc1NTUiIHk9IjE5NS4xMTI0MzkwMjQzOTAyIiB4PSI5Mi42ODM2NTg1MzY1ODUzNiIvPiYjeGE7PHJlY3Qgcng9IjAiIGhlaWdodD0iNC44Nzc1NjA5NzU2MDk3NTU1IiB3aWR0aD0iNC44Nzc1NjA5NzU2MDk3NTU1IiB5PSIxOTUuMTEyNDM5MDI0MzkwMiIgeD0iMTAyLjQzODc4MDQ4NzgwNDg4Ii8+JiN4YTs8cmVjdCByeD0iMCIgaGVpZ2h0PSI0Ljg3NzU2MDk3NTYwOTc1NTUiIHdpZHRoPSI0Ljg3NzU2MDk3NTYwOTc1NTUiIHk9IjE5NS4xMTI0MzkwMjQzOTAyIiB4PSIxMDcuMzE2MzQxNDYzNDE0NjMiLz4mI3hhOzxyZWN0IHJ4PSIwIiBoZWlnaHQ9IjQuODc3NTYwOTc1NjA5NzU1NSIgd2lkdGg9IjQuODc3NTYwOTc1NjA5NzU1NSIgeT0iMTk1LjExMjQzOTAyNDM5MDIiIHg9IjEyNi44MjY1ODUzNjU4NTM2NSIvPiYjeGE7PHJlY3Qgcng9IjAiIGhlaWdodD0iNC44Nzc1NjA5NzU2MDk3NTU1IiB3aWR0aD0iNC44Nzc1NjA5NzU2MDk3NTU1IiB5PSIxOTUuMTEyNDM5MDI0MzkwMiIgeD0iMTMxLjcwNDE0NjM0MTQ2MzQiLz4mI3hhOzxyZWN0IHJ4PSIwIiBoZWlnaHQ9IjQuODc3NTYwOTc1NjA5NzU1NSIgd2lkdGg9IjQuODc3NTYwOTc1NjA5NzU1NSIgeT0iMTk1LjExMjQzOTAyNDM5MDIiIHg9IjE0MS40NTkyNjgyOTI2ODI5Ii8+JiN4YTs8cmVjdCByeD0iMCIgaGVpZ2h0PSI0Ljg3NzU2MDk3NTYwOTc1NTUiIHdpZHRoPSI0Ljg3NzU2MDk3NTYwOTc1NTUiIHk9IjE5NS4xMTI0MzkwMjQzOTAyIiB4PSIxNTEuMjE0MzkwMjQzOTAyNDEiLz4mI3hhOzxyZWN0IHJ4PSIwIiBoZWlnaHQ9IjQuODc3NTYwOTc1NjA5NzU1NSIgd2lkdGg9IjQuODc3NTYwOTc1NjA5NzU1NSIgeT0iMTk1LjExMjQzOTAyNDM5MDIiIHg9IjE2MC45Njk1MTIxOTUxMjE5MiIvPiYjeGE7PHJlY3Qgcng9IjAiIGhlaWdodD0iNC44Nzc1NjA5NzU2MDk3NTU1IiB3aWR0aD0iNC44Nzc1NjA5NzU2MDk3NTU1IiB5PSIxOTUuMTEyNDM5MDI0MzkwMiIgeD0iMTcwLjcyNDYzNDE0NjM0MTQzIi8+JiN4YTs8cmVjdCByeD0iMCIgaGVpZ2h0PSI0Ljg3NzU2MDk3NTYwOTc1NTUiIHdpZHRoPSI0Ljg3NzU2MDk3NTYwOTc1NTUiIHk9IjE5NS4xMTI0MzkwMjQzOTAyIiB4PSIxNzUuNjAyMTk1MTIxOTUxMTgiLz4mI3hhOzxyZWN0IHJ4PSIwIiBoZWlnaHQ9IjQuODc3NTYwOTc1NjA5NzU1NSIgd2lkdGg9IjQuODc3NTYwOTc1NjA5NzU1NSIgeT0iMTk1LjExMjQzOTAyNDM5MDIiIHg9IjE4NS4zNTczMTcwNzMxNzA3Ii8+JiN4YTs8L2c+JiN4YTs8Zz4mI3hhOzxyZWN0IHN0cm9rZT0iIzIyMjIyMiIgc3Ryb2tlLXdpZHRoPSI0Ljg3NzU2MDk3NTYwOTc1NTUiIGhlaWdodD0iMjkuMjY1MzY1ODUzNjU4NTMzIiBmaWxsPSJub25lIiB3aWR0aD0iMjkuMjY1MzY1ODUzNjU4NTMzIiB5PSIyLjQzODc4MDQ4NzgwNDg3NzgiIHg9IjIuNDM4NzgwNDg3ODA0ODc3OCIvPiYjeGE7PHJlY3QgaGVpZ2h0PSIxNC42MzI2ODI5MjY4MjkyNjciIGZpbGw9IiMyMjIyMjIiIHdpZHRoPSIxNC42MzI2ODI5MjY4MjkyNjciIHk9IjkuNzU1MTIxOTUxMjE5NTExIiB4PSI5Ljc1NTEyMTk1MTIxOTUxMSIvPiYjeGE7PHJlY3Qgc3Ryb2tlPSIjMjIyMjIyIiBzdHJva2Utd2lkdGg9IjQuODc3NTYwOTc1NjA5NzU1NSIgaGVpZ2h0PSIyOS4yNjUzNjU4NTM2NTg1MzMiIGZpbGw9Im5vbmUiIHdpZHRoPSIyOS4yNjUzNjU4NTM2NTg1MzMiIHk9IjIuNDM4NzgwNDg3ODA0ODc3OCIgeD0iMTY4LjI5NTg1MzY1ODUzNjYiLz4mI3hhOzxyZWN0IGhlaWdodD0iMTQuNjMyNjgyOTI2ODI5MjY3IiBmaWxsPSIjMjIyMjIyIiB3aWR0aD0iMTQuNjMyNjgyOTI2ODI5MjY3IiB5PSI5Ljc1NTEyMTk1MTIxOTUxMSIgeD0iMTc1LjYxMjE5NTEyMTk1MTIzIi8+JiN4YTs8cmVjdCBzdHJva2U9IiMyMjIyMjIiIHN0cm9rZS13aWR0aD0iNC44Nzc1NjA5NzU2MDk3NTU1IiBoZWlnaHQ9IjI5LjI2NTM2NTg1MzY1ODUzMyIgZmlsbD0ibm9uZSIgd2lkdGg9IjI5LjI2NTM2NTg1MzY1ODUzMyIgeT0iMTY4LjI5NTg1MzY1ODUzNjYiIHg9IjIuNDM4NzgwNDg3ODA0ODc3OCIvPiYjeGE7PHJlY3QgaGVpZ2h0PSIxNC42MzI2ODI5MjY4MjkyNjciIGZpbGw9IiMyMjIyMjIiIHdpZHRoPSIxNC42MzI2ODI5MjY4MjkyNjciIHk9IjE3NS42MTIxOTUxMjE5NTEyMyIgeD0iOS43NTUxMjE5NTEyMTk1MTEiLz4mI3hhOzwvZz4mI3hhOzwvZz4mI3hhOzwvc3ZnPg==;" vertex="1" parent="1">
          <mxGeometry x="655" y="365" width="275" height="275" as="geometry" />
        </mxCell>
      </root>
    </mxGraphModel>
  </diagram>
</mxfile>
